# Blender v2.79 (sub 0) OBJ File: 'BearTrap_Closed.blend'
# www.blender.org
mtllib BearTrap_Closed.mtl
o BearTrap_Closed_Cylinder.009
v -0.158149 0.171828 0.800481
v -0.190614 0.685762 0.693237
v -0.204750 1.051514 0.400241
v -0.209924 1.185389 0.000000
v -0.204750 1.051515 -0.400241
v -0.190614 0.685763 -0.693237
v -0.158149 0.171828 -0.800482
v -0.158149 0.171828 0.990027
v -0.195186 0.804069 0.857389
v -0.212670 1.256427 0.495014
v -0.219069 1.422002 0.000000
v -0.212670 1.256428 -0.495013
v -0.195186 0.804069 -0.857389
v -0.158149 0.171828 -0.990027
v -0.007486 1.126176 0.200121
v 0.018892 0.443673 0.746859
v 0.002169 0.876362 0.546739
v -0.007486 1.126176 -0.200120
v 0.018892 0.443673 -0.746859
v 0.002169 0.876363 -0.546739
v -0.004077 1.037972 0.676201
v -0.016018 1.346939 -0.247507
v 0.016606 0.502827 -0.923708
v 0.016606 0.502826 0.923708
v -0.016018 1.346939 0.247507
v -0.004077 1.037972 -0.676201
v -0.190764 0.171081 0.800481
v -0.224802 0.684441 0.693237
v -0.238938 1.050193 0.400241
v -0.244112 1.184068 0.000000
v -0.238938 1.050193 -0.400241
v -0.224802 0.684441 -0.693237
v -0.190765 0.171081 -0.800482
v -0.251452 0.169692 0.990027
v -0.292988 0.800289 0.857389
v -0.310471 1.252647 0.495014
v -0.316871 1.418222 0.000000
v -0.310471 1.252648 -0.495013
v -0.292988 0.800289 -0.857389
v -0.251452 0.169692 -0.990027
v 0.102984 0.113711 0.799438
v 0.107436 -0.003144 0.799438
v 0.008669 -0.003144 0.799829
v 0.006650 0.115006 0.799829
v 0.261973 1.163228 -0.001304
v 0.255768 1.029397 0.398937
v 0.238815 0.663764 0.691933
v 0.166412 0.163639 0.799177
v 0.166412 0.163638 -0.801786
v 0.238815 0.663764 -0.694542
v 0.255768 1.029397 -0.401545
v 0.265266 1.234243 0.493710
v 0.272940 1.399763 -0.001304
v 0.244299 0.782032 0.856085
v 0.166412 0.163639 0.988723
v 0.166412 0.163638 -0.991332
v 0.244299 0.782031 -0.858693
v 0.265266 1.234242 -0.496318
v 0.059085 1.105575 0.198816
v 0.027451 0.423296 0.745555
v 0.047506 0.855844 0.545435
v 0.065907 1.252702 -0.233016
v 0.027451 0.423295 -0.748164
v 0.047506 0.855843 -0.548044
v 0.069317 1.326266 0.246203
v 0.030193 0.482429 0.922404
v 0.054997 1.017400 -0.677506
v 0.054997 1.017400 0.674897
v 0.030193 0.482429 -0.925012
v 0.296150 1.161643 -0.001304
v 0.289945 1.027812 0.398937
v 0.272992 0.662180 0.691933
v 0.200542 0.166028 0.799177
v 0.200542 0.166027 -0.801786
v 0.272992 0.662179 -0.694542
v 0.289945 1.027812 -0.401545
v 0.363035 1.229709 0.493710
v 0.370710 1.395230 -0.001304
v 0.342068 0.777499 0.856085
v 0.264048 0.170472 0.988723
v 0.264048 0.170472 -0.991332
v 0.342069 0.777498 -0.858693
v 0.363035 1.229709 -0.496318
v -0.091752 0.116277 0.800221
v -0.090099 -0.003144 0.800220
v 0.102984 0.113767 -0.801525
v 0.107437 -0.003144 -0.801525
v 0.173833 -0.003144 0.799177
v 0.173833 -0.003144 -0.801786
v 0.173833 -0.003144 0.988723
v 0.173833 -0.003144 -0.991332
v 0.207963 -0.003144 0.799177
v 0.207963 -0.003144 -0.801786
v 0.271469 -0.003144 0.988723
v 0.271469 -0.003144 -0.991332
v -0.155393 -0.003144 0.800481
v -0.155393 -0.003144 -0.800482
v -0.155393 -0.003144 0.990027
v -0.155394 -0.003144 -0.990027
v -0.188009 -0.003144 0.800481
v -0.188009 -0.003144 -0.800482
v -0.248696 -0.003144 0.990027
v -0.248696 -0.003144 -0.990027
v 0.005856 0.167773 0.989375
v 0.005856 0.167773 0.799829
v 0.005855 0.167773 -0.801134
v 0.005855 0.167773 -0.990680
v 0.009220 -0.003144 0.989375
v 0.009220 -0.003144 0.799829
v 0.009220 -0.003144 -0.801134
v 0.009220 -0.003144 -0.990680
v 0.006650 0.115384 -0.801134
v 0.008669 -0.003144 -0.801134
v -0.091753 0.116970 -0.800743
v -0.090099 -0.003144 -0.800743
v 0.098380 0.090162 -0.750015
v 0.014974 -0.003144 -0.768870
v 0.008518 -0.003144 -0.768870
v -0.077666 0.079359 -0.751072
v -0.074710 -0.003144 -0.750723
v 0.098596 -0.003144 -0.751327
v 0.096058 0.130793 -0.720749
v 0.096049 0.107809 -0.715608
v -0.079997 0.097766 -0.719726
v 0.006188 0.096694 -0.738631
v 0.006188 0.119898 -0.744512
v -0.080000 0.120760 -0.724907
v 0.088058 0.174377 -0.555135
v 0.088050 0.143592 -0.555135
v -0.087996 0.145279 -0.555135
v -0.001812 0.163425 -0.555135
v -0.001812 0.194983 -0.555135
v -0.087999 0.176107 -0.555135
v 0.088059 0.215116 -0.005851
v 0.088050 0.184331 -0.005851
v -0.091575 0.189712 -0.003138
v 0.004099 0.204164 -0.006532
v -0.001812 0.235722 -0.005851
v -0.085771 0.215116 -0.006532
v -0.077541 0.079350 0.745612
v 0.008519 -0.003144 0.763498
v 0.097970 0.090083 0.744613
v -0.093771 0.130793 0.708366
v -0.093762 0.107809 0.703225
v 0.082284 0.097766 0.707343
v -0.003901 0.096694 0.726248
v -0.003901 0.119898 0.732129
v 0.082287 0.120760 0.712524
v -0.085771 0.174377 0.542752
v -0.085763 0.143592 0.542752
v 0.090283 0.145279 0.542752
v 0.004099 0.163425 0.542752
v 0.004099 0.194983 0.542752
v 0.090286 0.176107 0.542752
v -0.076197 -0.003144 0.755274
v 0.014974 -0.003144 0.773866
v 0.098525 -0.003144 0.756225
v 0.006680 0.226866 -0.471677
v 0.006680 0.301095 -0.471677
v 0.304265 0.226866 -0.409010
v 0.304266 0.301095 -0.409010
v 0.522113 0.226866 -0.237800
v 0.522113 0.301095 -0.237800
v 0.601851 0.226866 -0.003922
v 0.601851 0.301095 -0.003922
v 0.522113 0.226866 0.229956
v 0.522113 0.301095 0.229956
v 0.304266 0.226866 0.401166
v 0.304266 0.301095 0.401166
v 0.006680 0.226866 0.463833
v 0.006680 0.301095 0.463833
v -0.290905 0.226866 0.401166
v -0.290905 0.301095 0.401166
v -0.508753 0.226866 0.229956
v -0.508753 0.301095 0.229956
v -0.588491 0.226866 -0.003922
v -0.588491 0.301095 -0.003922
v -0.508754 0.226866 -0.237800
v -0.508754 0.301095 -0.237800
v -0.290906 0.226866 -0.409010
v -0.290906 0.301095 -0.409010
vn 0.7887 0.5517 0.2712
vn -0.0241 0.6245 -0.7807
vn 0.0241 -0.6245 -0.7807
vn 0.8678 -0.4896 -0.0845
vn -0.0366 0.9476 -0.3174
vn 0.0156 -0.2033 -0.9790
vn 0.8678 -0.4896 0.0845
vn -0.0157 0.2044 -0.9788
vn 0.7633 0.3583 -0.5375
vn 0.7519 0.0966 0.6521
vn 0.0366 -0.9476 0.3174
vn 0.7703 -0.1750 -0.6132
vn 0.8104 -0.4089 0.4197
vn 0.0156 -0.2033 0.9790
vn -0.0241 0.6245 0.7807
vn 0.8104 -0.4089 -0.4197
vn 0.0366 -0.9476 -0.3174
vn 0.7703 -0.1750 0.6132
vn 0.7519 0.0966 -0.6521
vn 0.7633 0.3583 0.5375
vn 0.0241 -0.6245 0.7807
vn -0.0157 0.2044 0.9788
vn 0.7887 0.5517 -0.2712
vn -0.0366 0.9476 0.3174
vn 0.0025 -0.2108 0.9775
vn -0.0064 0.2052 -0.9787
vn -0.0064 0.2052 0.9787
vn -0.9445 -0.1260 0.3034
vn -0.9459 -0.2244 0.2345
vn -0.9514 -0.2956 0.0866
vn -0.9514 -0.2956 -0.0866
vn -0.9459 -0.2244 -0.2345
vn -0.9445 -0.1260 -0.3034
vn 0.0000 -1.0000 0.0000
vn -0.9064 -0.4159 -0.0739
vn -0.7716 -0.1691 0.6132
vn -0.6337 -0.7306 0.2541
vn -0.7606 0.3642 -0.5375
vn -0.9064 -0.4159 0.0739
vn 0.0439 0.9473 0.3174
vn -0.8135 -0.4026 -0.4197
vn 0.0114 0.2083 0.9780
vn 0.0289 0.6243 -0.7807
vn -0.0439 -0.9473 -0.3174
vn -0.7606 0.3642 0.5375
vn -0.7844 0.5577 -0.2712
vn -0.0114 -0.2081 -0.9780
vn -0.7511 0.1024 -0.6521
vn -0.0289 -0.6243 0.7807
vn -0.7844 0.5577 0.2712
vn 0.0289 0.6243 0.7807
vn 0.0114 0.2083 -0.9780
vn -0.3090 0.9034 -0.2973
vn -0.0289 -0.6243 -0.7807
vn -0.7835 -0.2306 -0.5770
vn -0.0114 -0.2081 0.9780
vn -0.8135 -0.4026 0.4197
vn -0.7562 0.0351 0.6534
vn -0.0439 -0.9473 0.3174
vn -0.0025 0.2119 -0.9773
vn -0.0025 0.2119 0.9773
vn 0.0439 0.9473 -0.3174
vn 0.0063 -0.2040 0.9790
vn 0.9387 -0.1905 -0.2874
vn 0.9441 -0.2317 -0.2345
vn 0.9491 -0.3029 -0.0866
vn 0.9491 -0.3029 0.0866
vn 0.9441 -0.2317 0.2345
vn 0.9387 -0.1905 0.2874
vn 0.0063 -0.2040 -0.9790
vn -0.0041 -0.0001 -1.0000
vn 0.9473 0.0410 0.3178
vn 0.0247 0.9997 0.0000
vn 0.0000 0.0000 -1.0000
vn 0.9473 0.0410 -0.3178
vn 0.0041 0.0001 1.0000
vn 0.0000 0.0000 1.0000
vn -0.9523 -0.0151 -0.3049
vn 0.0040 0.0001 1.0000
vn -0.9523 -0.0151 0.3049
vn -0.0040 -0.0001 -1.0000
vn 0.0257 0.9997 0.0000
vn 0.9894 0.0156 -0.1443
vn -0.9855 -0.1269 0.1129
vn -0.9646 -0.0269 -0.2624
vn -0.9609 -0.0214 0.2760
vn 0.0064 0.9980 -0.0631
vn 0.9905 0.0211 0.1358
vn 0.1277 -0.9406 0.3146
vn -0.0824 -0.9561 0.2811
vn 0.9968 -0.0009 0.0804
vn 0.0741 -0.4785 0.8750
vn -0.0296 0.9873 -0.1564
vn -0.0358 -0.4627 0.8858
vn 0.2229 0.9722 -0.0721
vn -0.2252 0.9718 -0.0701
vn -0.9989 -0.0046 -0.0464
vn -0.1362 0.9292 -0.3435
vn 0.0923 0.9456 -0.3119
vn 0.9988 0.0043 0.0480
vn -0.7209 0.6930 -0.0001
vn 1.0000 -0.0003 0.0000
vn -0.2222 -0.9722 0.0733
vn 0.1773 -0.9813 0.0756
vn -0.9947 0.1021 -0.0090
vn 0.9428 0.2204 -0.2501
vn 0.0106 0.9971 0.0749
vn -0.1277 -0.9406 -0.3146
vn 0.0824 -0.9561 -0.2811
vn -0.9614 -0.2717 0.0436
vn -0.0928 -0.5400 -0.8366
vn 0.0496 0.9919 0.1167
vn 0.1143 -0.5456 -0.8302
vn -0.2303 0.9704 0.0733
vn 0.2183 0.9734 0.0691
vn 0.9989 -0.0046 0.0464
vn 0.1362 0.9292 0.3435
vn -0.0923 0.9456 0.3119
vn -0.9988 0.0043 -0.0480
vn -0.9997 -0.0261 -0.0005
vn -0.9945 0.1034 0.0135
vn 0.1798 -0.9806 -0.0787
vn -0.2171 -0.9736 -0.0703
vn 1.0000 -0.0002 -0.0041
vn 0.6917 0.7221 -0.0000
vn 1.0000 0.0041 0.0002
vn 0.2061 -0.0000 -0.9785
vn 0.6179 -0.0000 -0.7862
vn 0.9465 -0.0000 -0.3227
vn 0.9465 -0.0000 0.3227
vn 0.6179 0.0000 0.7862
vn 0.2061 0.0000 0.9785
vn -0.2061 0.0000 0.9785
vn -0.6179 -0.0000 0.7862
vn -0.9465 0.0000 0.3227
vn -0.9465 -0.0000 -0.3227
vn 0.0000 1.0000 0.0000
vn -0.6179 -0.0000 -0.7862
vn -0.2061 -0.0000 -0.9785
vn 0.0025 -0.2108 -0.9775
vn -0.0040 -0.0002 -1.0000
vn 0.0040 0.0002 1.0000
usemtl Grey.001
s off
f 13//1 6//1 19//1 23//1
f 13//2 12//2 26//2
f 2//3 3//3 17//3
f 7//4 14//4 23//4 19//4
f 12//5 11//5 22//5
f 1//6 2//6 16//6
f 8//7 1//7 16//7 24//7
f 14//8 13//8 23//8
f 3//9 10//9 21//9 17//9
f 11//10 4//10 18//10 22//10
f 4//11 5//11 18//11
f 5//12 12//12 22//12 18//12
f 9//13 2//13 17//13 21//13
f 6//14 7//14 19//14
f 10//15 9//15 21//15
f 6//16 13//16 26//16 20//16
f 3//17 4//17 15//17
f 10//18 3//18 15//18 25//18
f 4//19 11//19 25//19 15//19
f 12//20 5//20 20//20 26//20
f 5//21 6//21 20//21
f 9//22 8//22 24//22
f 2//23 9//23 24//23 16//23
f 11//24 10//24 25//24
f 74//25 75//25 50//25 49//25
f 11//5 12//5 38//5 37//5
f 3//3 2//3 28//3 29//3
f 12//2 13//2 39//2 38//2
f 4//17 3//17 29//17 30//17
f 13//26 14//26 40//26 39//26
f 5//11 4//11 30//11 31//11
f 6//21 5//21 31//21 32//21
f 8//27 9//27 35//27 34//27
f 9//15 10//15 36//15 35//15
f 10//24 11//24 37//24 36//24
f 32//28 39//28 40//28 33//28
f 31//29 38//29 39//29 32//29
f 30//30 37//30 38//30 31//30
f 29//31 36//31 37//31 30//31
f 28//32 35//32 36//32 29//32
f 27//33 34//33 35//33 28//33
f 88//34 109//34 43//34 42//34
f 56//35 49//35 63//35 69//35
f 46//36 52//36 65//36 59//36
f 51//37 45//37 62//37
f 52//38 46//38 61//38 68//38
f 48//39 55//39 66//39 60//39
f 52//40 53//40 65//40
f 57//41 50//41 64//41 67//41
f 55//42 54//42 66//42
f 58//43 57//43 67//43
f 45//44 46//44 59//44
f 51//45 58//45 67//45 64//45
f 54//46 47//46 60//46 66//46
f 47//47 48//47 60//47
f 53//48 45//48 59//48 65//48
f 50//49 51//49 64//49
f 50//50 57//50 69//50 63//50
f 54//51 52//51 68//51
f 57//52 56//52 69//52
f 53//53 58//53 62//53
f 46//54 47//54 61//54
f 58//55 51//55 62//55
f 49//56 50//56 63//56
f 47//57 54//57 68//57 61//57
f 45//58 53//58 62//58
f 45//59 51//59 76//59 70//59
f 53//40 52//40 77//40 78//40
f 52//51 54//51 79//51 77//51
f 56//60 57//60 82//60 81//60
f 54//61 55//61 80//61 79//61
f 57//43 58//43 83//43 82//43
f 46//44 45//44 70//44 71//44
f 58//62 53//62 78//62 83//62
f 47//54 46//54 71//54 72//54
f 7//63 6//63 32//63 33//63
f 51//49 50//49 75//49 76//49
f 72//64 79//64 80//64 73//64
f 71//65 77//65 79//65 72//65
f 70//66 78//66 77//66 71//66
f 76//67 83//67 78//67 70//67
f 75//68 82//68 83//68 76//68
f 74//69 81//69 82//69 75//69
f 1//70 27//70 28//70 2//70
f 109//34 96//34 85//34 43//34
f 105//71 48//71 41//71 44//71
f 81//72 74//72 93//72 95//72
f 1//73 8//73 104//73 105//73
f 48//74 73//74 92//74 88//74
f 56//74 81//74 95//74 91//74
f 73//75 80//75 94//75 92//75
f 49//76 106//76 112//76 86//76
f 80//77 55//77 90//77 94//77
f 74//77 49//77 89//77 93//77
f 34//78 27//78 100//78 102//78
f 8//79 98//79 108//79 104//79
f 7//77 33//77 101//77 97//77
f 33//80 40//80 103//80 101//80
f 1//81 105//81 44//81 84//81
f 8//77 34//77 102//77 98//77
f 27//74 1//74 96//74 100//74
f 40//74 14//74 99//74 103//74
f 98//34 102//34 100//34 96//34
f 90//34 88//34 92//34 94//34
f 91//34 95//34 93//34 89//34
f 99//34 97//34 101//34 103//34
f 55//82 48//82 105//82 104//82
f 14//73 7//73 106//73 107//73
f 88//34 90//34 108//34 109//34
f 49//82 56//82 107//82 106//82
f 90//79 55//79 104//79 108//79
f 91//34 89//34 110//34 111//34
f 98//34 96//34 109//34 108//34
f 99//81 14//81 107//81 111//81
f 97//34 99//34 111//34 110//34
f 7//79 97//79 115//79 114//79
f 56//81 91//81 111//81 107//81
f 96//81 1//81 84//81 85//81
f 157//83 142//83 41//83 42//83
f 114//84 119//84 124//84 127//84
f 115//34 113//34 117//34 120//34
f 113//34 87//34 121//34 117//34
f 155//34 156//34 43//34 85//34
f 156//34 157//34 42//34 43//34
f 140//85 155//85 85//85 84//85
f 114//86 115//86 120//86 119//86
f 112//87 114//87 127//87 126//87
f 87//88 86//88 116//88 121//88
f 124//89 125//89 131//89 130//89
f 125//90 123//90 129//90 131//90
f 116//91 86//91 122//91 123//91
f 118//92 116//92 123//92 125//92
f 86//93 112//93 126//93 122//93
f 119//94 118//94 125//94 124//94
f 128//95 132//95 138//95 134//95
f 132//96 133//96 139//96 138//96
f 127//97 124//97 130//97 133//97
f 126//98 127//98 133//98 132//98
f 122//99 126//99 132//99 128//99
f 123//100 122//100 128//100 129//100
f 120//34 117//34 156//34 155//34
f 116//101 118//101 141//101 142//101
f 129//102 128//102 134//102 135//102
f 131//103 129//103 135//103 137//103
f 130//104 131//104 137//104 136//104
f 133//105 130//105 136//105 139//105
f 41//106 142//106 145//106 148//106
f 44//107 41//107 148//107 147//107
f 145//108 146//108 152//108 151//108
f 146//109 144//109 150//109 152//109
f 140//110 84//110 143//110 144//110
f 141//111 140//111 144//111 146//111
f 84//112 44//112 147//112 143//112
f 142//113 141//113 146//113 145//113
f 149//114 153//114 138//114 139//114
f 153//115 154//115 134//115 138//115
f 148//116 145//116 151//116 154//116
f 147//117 148//117 154//117 153//117
f 143//118 147//118 153//118 149//118
f 144//119 143//119 149//119 150//119
f 117//34 121//34 157//34 156//34
f 119//120 120//120 155//120 140//120
f 150//121 149//121 139//121 136//121
f 152//122 150//122 136//122 137//122
f 151//123 152//123 137//123 135//123
f 154//124 151//124 135//124 134//124
f 118//125 119//125 140//125 141//125
f 121//126 116//126 142//126 157//126
f 158//127 159//127 161//127 160//127
f 160//128 161//128 163//128 162//128
f 162//129 163//129 165//129 164//129
f 164//130 165//130 167//130 166//130
f 166//131 167//131 169//131 168//131
f 168//132 169//132 171//132 170//132
f 170//133 171//133 173//133 172//133
f 172//134 173//134 175//134 174//134
f 174//135 175//135 177//135 176//135
f 176//136 177//136 179//136 178//136
f 161//137 159//137 181//137 179//137 177//137 175//137 173//137 171//137 169//137 167//137 165//137 163//137
f 178//138 179//138 181//138 180//138
f 180//139 181//139 159//139 158//139
f 158//34 160//34 162//34 164//34 166//34 168//34 170//34 172//34 174//34 176//34 178//34 180//34
f 73//140 48//140 47//140 72//140
f 48//141 88//141 42//141 41//141
f 114//79 115//79 113//79 112//79
f 87//79 86//79 112//79 113//79
f 110//137 89//137 87//137 113//137
f 97//137 110//137 113//137 115//137
f 89//142 49//142 86//142 87//142
f 106//79 7//79 114//79 112//79
