# Blender v2.79 (sub 0) OBJ File: 'Bomb.blend'
# www.blender.org
mtllib Bomb.mtl
o Bomb_Icosphere.002
v 0.000000 -0.331594 0.000000
v 0.239944 -0.148295 0.174327
v -0.091649 -0.148295 0.282070
v -0.296586 -0.148294 0.000000
v -0.091649 -0.148295 -0.282070
v 0.239944 -0.148295 -0.174327
v 0.091649 0.148295 0.282070
v -0.239944 0.148295 0.174327
v -0.239944 0.148295 -0.174327
v 0.091649 0.148295 -0.282070
v 0.296586 0.148294 0.000000
v 0.000000 0.331594 0.000000
v -0.053869 -0.282072 0.165795
v 0.141034 -0.282072 0.102466
v 0.087166 -0.174331 0.268263
v 0.282069 -0.174331 0.000000
v 0.141034 -0.282072 -0.102466
v -0.174329 -0.282071 0.000000
v -0.228199 -0.174331 0.165796
v -0.053869 -0.282072 -0.165795
v -0.228199 -0.174331 -0.165796
v 0.087166 -0.174331 -0.268263
v 0.315365 0.000000 0.102467
v 0.315365 0.000000 -0.102467
v 0.000000 0.000000 0.331594
v 0.194906 0.000000 0.268265
v -0.315365 0.000000 0.102467
v -0.194906 0.000000 0.268265
v -0.194906 0.000000 -0.268265
v -0.315365 0.000000 -0.102467
v 0.194906 0.000000 -0.268265
v 0.000000 0.000000 -0.331594
v 0.228199 0.174331 0.165796
v -0.087166 0.174331 0.268263
v -0.282069 0.174331 0.000000
v -0.087166 0.174331 -0.268263
v 0.228199 0.174331 -0.165796
v 0.053869 0.282072 0.165795
v 0.174329 0.282071 0.000000
v -0.141034 0.282072 0.102466
v -0.141034 0.282072 -0.102466
v 0.053869 0.282072 -0.165795
v -0.059165 0.061004 -0.150797
v -0.255247 0.290156 -0.150797
v 0.021853 0.130330 -0.106630
v -0.174229 0.359482 -0.106630
v 0.055411 0.159046 0.000000
v -0.140671 0.388198 0.000000
v 0.021853 0.130330 0.106630
v -0.174229 0.359482 0.106630
v -0.059165 0.061004 0.150797
v -0.255247 0.290156 0.150797
v -0.140182 -0.008321 0.106630
v -0.336264 0.220831 0.106630
v -0.173741 -0.037037 0.000000
v -0.369823 0.192115 0.000000
v -0.140182 -0.008321 -0.106630
v -0.336264 0.220831 -0.106630
v -0.227839 0.313609 -0.036073
v -0.255247 0.290156 -0.051015
v -0.216486 0.323324 0.000000
v -0.227839 0.313609 0.036073
v -0.255247 0.290156 0.051015
v -0.282655 0.266704 0.036073
v -0.294008 0.256989 0.000000
v -0.282655 0.266704 -0.036073
v -0.326983 0.395310 -0.036073
v -0.337917 0.360934 -0.051015
v -0.322455 0.409549 0.000000
v -0.326983 0.395310 0.036073
v -0.337917 0.360934 0.051015
v -0.348851 0.326558 0.036073
v -0.353379 0.312319 0.000000
v -0.348850 0.326558 -0.036073
v -0.466922 0.365196 -0.036073
v -0.440216 0.340946 -0.051015
v -0.477983 0.375241 0.000000
v -0.466922 0.365196 0.036073
v -0.440216 0.340946 0.051015
v -0.413511 0.316695 0.036073
v -0.402450 0.306650 -0.000000
v -0.413511 0.316695 -0.036073
v -0.498298 0.248681 -0.023063
v -0.475567 0.247231 -0.034139
v -0.506565 0.249059 0.000875
v -0.495526 0.248143 0.023652
v -0.471646 0.246470 0.031925
v -0.448914 0.245019 0.020849
v -0.440647 0.244641 -0.003089
v -0.451687 0.245557 -0.025865
vn 0.1024 -0.9435 0.3151
vn 0.7002 -0.6617 0.2680
vn -0.2680 -0.9435 0.1947
vn -0.2680 -0.9435 -0.1947
vn 0.1024 -0.9435 -0.3151
vn 0.9050 -0.3304 0.2680
vn 0.0247 -0.3304 0.9435
vn -0.8897 -0.3304 0.3151
vn -0.5746 -0.3304 -0.7488
vn 0.5346 -0.3304 -0.7779
vn 0.8026 -0.1256 0.5831
vn -0.3066 -0.1256 0.9435
vn -0.9921 -0.1256 0.0000
vn -0.3066 -0.1256 -0.9435
vn 0.8026 -0.1256 -0.5831
vn 0.4089 0.6617 0.6284
vn -0.4713 0.6617 0.5831
vn -0.7002 0.6617 -0.2680
vn 0.0385 0.6617 -0.7488
vn 0.7240 0.6617 -0.1947
vn 0.2680 0.9435 -0.1947
vn 0.4911 0.7947 -0.3568
vn 0.4089 0.6617 -0.6284
vn -0.1024 0.9435 -0.3151
vn -0.1876 0.7947 -0.5773
vn -0.4713 0.6617 -0.5831
vn -0.3313 0.9435 0.0000
vn -0.6071 0.7947 0.0000
vn -0.7002 0.6617 0.2680
vn -0.1024 0.9435 0.3151
vn -0.1876 0.7947 0.5773
vn 0.0385 0.6617 0.7488
vn 0.2680 0.9435 0.1947
vn 0.4911 0.7947 0.3568
vn 0.7240 0.6617 0.1947
vn 0.8897 0.3304 -0.3151
vn 0.7947 0.1876 -0.5773
vn 0.5746 0.3304 -0.7488
vn -0.0247 0.3304 -0.9435
vn -0.3035 0.1876 -0.9342
vn -0.5346 0.3304 -0.7779
vn -0.9050 0.3304 -0.2680
vn -0.9822 0.1876 0.0000
vn -0.9050 0.3304 0.2680
vn -0.5346 0.3304 0.7779
vn -0.3035 0.1876 0.9342
vn -0.0247 0.3304 0.9435
vn 0.5746 0.3304 0.7488
vn 0.7947 0.1876 0.5773
vn 0.8897 0.3304 0.3151
vn 0.3066 0.1256 -0.9435
vn 0.3035 -0.1876 -0.9342
vn 0.0247 -0.3304 -0.9435
vn -0.8026 0.1256 -0.5831
vn -0.7947 -0.1876 -0.5773
vn -0.8897 -0.3304 -0.3151
vn -0.8026 0.1256 0.5831
vn -0.7947 -0.1876 0.5773
vn -0.5746 -0.3304 0.7488
vn 0.3066 0.1256 0.9435
vn 0.3035 -0.1876 0.9342
vn 0.5346 -0.3304 0.7779
vn 0.9921 0.1256 0.0000
vn 0.9822 -0.1876 0.0000
vn 0.9050 -0.3304 -0.2680
vn 0.4713 -0.6617 -0.5831
vn 0.1876 -0.7947 -0.5773
vn -0.0385 -0.6617 -0.7488
vn -0.4089 -0.6617 -0.6284
vn -0.4911 -0.7947 -0.3568
vn -0.7240 -0.6617 -0.1947
vn -0.7240 -0.6617 0.1947
vn -0.4911 -0.7947 0.3568
vn -0.4089 -0.6617 0.6284
vn 0.7002 -0.6617 -0.2680
vn 0.6071 -0.7947 0.0000
vn 0.3313 -0.9435 0.0000
vn -0.0385 -0.6617 0.7488
vn 0.1876 -0.7947 0.5773
vn 0.4713 -0.6617 0.5831
vn 0.2908 0.2488 -0.9239
vn 0.7020 0.6007 -0.3827
vn 0.7020 0.6007 0.3827
vn 0.2908 0.2488 0.9239
vn -0.2908 -0.2488 0.9239
vn -0.7020 -0.6007 0.3827
vn -0.6502 0.7598 -0.0000
vn -0.7020 -0.6007 -0.3827
vn -0.2908 -0.2488 -0.9239
vn 0.5889 0.7193 -0.3685
vn 0.0780 -0.4360 -0.8966
vn -0.6290 -0.6857 -0.3662
vn -0.2629 -0.2996 0.9171
vn 0.5889 0.7193 0.3685
vn 0.2555 0.3047 -0.9175
vn -0.2629 -0.2996 -0.9171
vn -0.6290 -0.6857 0.3662
vn 0.2555 0.3047 0.9175
vn 0.8021 -0.4886 0.3432
vn 0.1279 -0.9364 0.3268
vn -0.0896 0.4331 0.8969
vn -0.2012 0.9227 -0.3288
vn 0.1279 -0.9364 -0.3268
vn 0.0780 -0.4360 0.8966
vn -0.2012 0.9227 0.3288
vn -0.0896 0.4331 -0.8969
vn -0.0673 -0.9977 -0.0075
vn -0.4233 -0.0148 0.9059
vn -0.9198 0.2082 -0.3324
vn 0.7913 -0.4745 -0.3856
vn 0.3112 -0.3107 0.8981
vn -0.9057 0.1951 0.3765
vn -0.4579 0.0190 -0.8888
vn 0.2804 -0.2761 -0.9193
usemtl Black
s off
f 1//1 14//1 13//1
f 2//2 14//2 16//2
f 1//3 13//3 18//3
f 1//4 18//4 20//4
f 1//5 20//5 17//5
f 2//6 16//6 23//6
f 3//7 15//7 25//7
f 4//8 19//8 27//8
f 5//9 21//9 29//9
f 6//10 22//10 31//10
f 2//11 23//11 26//11
f 3//12 25//12 28//12
f 4//13 27//13 30//13
f 5//14 29//14 32//14
f 6//15 31//15 24//15
f 7//16 33//16 38//16
f 8//17 34//17 40//17
f 9//18 35//18 41//18
f 10//19 36//19 42//19
f 11//20 37//20 39//20
f 39//21 42//21 12//21
f 39//22 37//22 42//22
f 37//23 10//23 42//23
f 42//24 41//24 12//24
f 42//25 36//25 41//25
f 36//26 9//26 41//26
f 41//27 40//27 12//27
f 41//28 35//28 40//28
f 35//29 8//29 40//29
f 40//30 38//30 12//30
f 40//31 34//31 38//31
f 34//32 7//32 38//32
f 38//33 39//33 12//33
f 38//34 33//34 39//34
f 33//35 11//35 39//35
f 24//36 37//36 11//36
f 24//37 31//37 37//37
f 31//38 10//38 37//38
f 32//39 36//39 10//39
f 32//40 29//40 36//40
f 29//41 9//41 36//41
f 30//42 35//42 9//42
f 30//43 27//43 35//43
f 27//44 8//44 35//44
f 28//45 34//45 8//45
f 28//46 25//46 34//46
f 25//47 7//47 34//47
f 26//48 33//48 7//48
f 26//49 23//49 33//49
f 23//50 11//50 33//50
f 31//51 32//51 10//51
f 31//52 22//52 32//52
f 22//53 5//53 32//53
f 29//54 30//54 9//54
f 29//55 21//55 30//55
f 21//56 4//56 30//56
f 27//57 28//57 8//57
f 27//58 19//58 28//58
f 19//59 3//59 28//59
f 25//60 26//60 7//60
f 25//61 15//61 26//61
f 15//62 2//62 26//62
f 23//63 24//63 11//63
f 23//64 16//64 24//64
f 16//65 6//65 24//65
f 17//66 22//66 6//66
f 17//67 20//67 22//67
f 20//68 5//68 22//68
f 20//69 21//69 5//69
f 20//70 18//70 21//70
f 18//71 4//71 21//71
f 18//72 19//72 4//72
f 18//73 13//73 19//73
f 13//74 3//74 19//74
f 16//75 17//75 6//75
f 16//76 14//76 17//76
f 14//77 1//77 17//77
f 13//78 15//78 3//78
f 13//79 14//79 15//79
f 14//80 2//80 15//80
f 43//81 44//81 46//81 45//81
f 45//82 46//82 48//82 47//82
f 47//83 48//83 50//83 49//83
f 49//84 50//84 52//84 51//84
f 51//85 52//85 54//85 53//85
f 53//86 54//86 56//86 55//86
f 54//87 52//87 63//87 64//87
f 55//88 56//88 58//88 57//88
f 57//89 58//89 44//89 43//89
f 44//87 58//87 66//87 60//87
f 46//87 44//87 60//87 59//87
f 50//87 48//87 61//87 62//87
f 56//87 54//87 64//87 65//87
f 52//87 50//87 62//87 63//87
f 58//87 56//87 65//87 66//87
f 48//87 46//87 59//87 61//87
usemtl Grey
f 61//90 59//90 67//90 69//90
f 68//91 74//91 82//91 76//91
f 66//92 65//92 73//92 74//92
f 64//93 63//93 71//93 72//93
f 62//94 61//94 69//94 70//94
f 59//95 60//95 68//95 67//95
f 60//96 66//96 74//96 68//96
f 65//97 64//97 72//97 73//97
f 63//98 62//98 70//98 71//98
f 81//99 80//99 88//99 89//99
f 73//100 72//100 80//100 81//100
f 71//101 70//101 78//101 79//101
f 69//102 67//102 75//102 77//102
f 74//103 73//103 81//103 82//103
f 72//104 71//104 79//104 80//104
f 70//105 69//105 77//105 78//105
f 67//106 68//106 76//106 75//106
f 83//107 84//107 90//107 89//107 88//107 87//107 86//107 85//107
f 79//108 78//108 86//108 87//108
f 77//109 75//109 83//109 85//109
f 82//110 81//110 89//110 90//110
f 80//111 79//111 87//111 88//111
f 78//112 77//112 85//112 86//112
f 75//113 76//113 84//113 83//113
f 76//114 82//114 90//114 84//114
