# Blender v2.79 (sub 0) OBJ File: 'Cloud1.blend'
# www.blender.org
mtllib Cloud1.mtl
o Cloud1_Icosphere.003
v 0.093035 -0.715712 0.222772
v 0.922877 -0.759657 0.354789
v -0.238267 -0.761491 0.124541
v -0.242226 -0.773931 -0.145020
v 0.087837 -0.625571 -0.204152
v 1.292064 -0.457513 0.460103
v -0.002875 -0.270835 0.823952
v -1.243223 -0.399346 0.368456
v -0.501779 -0.305800 -0.614406
v 0.504975 -0.301208 -0.595653
v 1.026209 -0.185257 0.710509
v -0.271967 -0.126262 0.829379
v -1.498860 -0.159342 -0.026793
v -0.248745 -0.145185 -0.792090
v 0.932633 -0.095257 -0.565721
v 0.311144 0.511516 0.515832
v -0.411575 0.520435 0.455648
v -0.635534 0.544430 -0.257220
v 0.040103 0.544940 -0.695527
v 0.684954 0.569729 -0.148372
v 0.193606 0.704471 -0.129261
v 0.417807 0.634970 -0.292084
v 0.351927 0.537120 -0.587164
v -0.074142 0.676739 -0.219836
v -0.161765 0.615059 -0.491021
v -0.440091 0.545018 -0.526837
v -0.251476 0.739543 0.025441
v -0.534543 0.677274 0.023874
v -0.621359 0.553789 0.231565
v -0.087586 0.803902 0.271150
v -0.160868 0.708279 0.493665
v 0.055912 0.534609 0.621462
v 0.212161 0.767401 0.179711
v 0.394112 0.648685 0.296595
v 0.642704 0.520514 0.131335
v 1.036541 0.370657 -0.380046
v 0.889431 0.216325 -0.555018
v 0.471964 0.317546 -0.618424
v 0.004506 0.324319 -0.886554
v -0.243204 0.175988 -0.776462
v -0.485933 0.326568 -0.621252
v -1.035393 0.373089 -0.398319
v -1.306097 0.271310 -0.016083
v -0.993055 0.319165 0.332708
v -0.454005 0.236331 0.593971
v -0.257450 0.143560 0.802289
v 0.001760 0.253994 0.791763
v 0.441161 0.227284 0.590460
v 0.879554 0.166330 0.563806
v 0.998128 0.322390 0.323917
v 0.247762 0.150121 -0.790450
v 0.237572 -0.157051 -0.756976
v -0.011225 -0.304027 -0.868708
v -0.907907 0.199174 -0.571724
v -0.918212 -0.112021 -0.549250
v -1.238460 -0.368757 -0.386555
v -0.894158 0.143828 0.574054
v -0.951563 -0.144032 0.620513
v -0.525927 -0.321351 0.667520
v 0.259210 0.112011 0.809026
v 0.269091 -0.142996 0.814125
v 0.597698 -0.379310 0.742262
v 1.325774 0.252032 -0.014625
v 1.473055 -0.176284 -0.025142
v 1.227023 -0.369241 -0.401265
v 0.492350 -0.453019 -0.480650
v 0.170979 -0.533277 -0.451849
v -0.065193 -0.528442 -0.678584
v -0.400167 -0.530958 -0.584157
v -0.494058 -0.684154 -0.298290
v -0.915918 -0.715733 -0.165844
v -0.916845 -0.747270 0.164911
v -0.491026 -0.703251 0.302027
v -0.391768 -0.532646 0.552579
v 0.860434 -0.567856 -0.239686
v 0.737278 -0.677043 0.031123
v 0.286052 -0.654500 0.037855
v -0.052885 -0.485747 0.613339
v 0.179159 -0.610572 0.461017
v 0.557775 -0.631974 0.599767
v -0.074717 -0.716077 0.179809
v 0.724803 -0.712949 0.511564
v -0.016097 -0.394474 0.724562
v 1.137707 -0.684028 0.395716
v 0.646004 -0.476409 -0.353015
v -0.261317 -0.795993 -0.006478
v -1.087359 -0.622764 0.256599
v -0.079975 -0.705981 -0.196484
v -0.485136 -0.439097 -0.630352
v 0.511338 -0.415249 -0.585640
v 1.211098 -0.299126 0.644564
v 1.199834 0.308096 -0.262721
v -0.134559 -0.193461 0.854397
v 0.369500 0.166630 0.703917
v -1.427467 -0.295068 0.230428
v -0.622584 0.166310 0.569462
v -0.374190 -0.221635 -0.695692
v -1.050070 0.291890 -0.541211
v 0.676678 -0.206448 -0.549527
v 0.132164 0.230415 -0.881913
v 0.380821 0.355673 0.538448
v -0.418772 0.366949 0.526913
v -0.812078 0.473308 -0.297517
v 0.014532 0.460554 -0.810435
v 0.825582 0.477200 -0.252031
v 0.188659 0.556510 0.582398
v 0.219949 0.730855 0.022396
v -0.511953 0.552905 0.345517
v -0.533257 0.549691 -0.388889
v 0.193802 0.547786 -0.640065
v -0.214519 -0.509968 0.574584
v 0.202055 -0.720355 0.137472
v 0.599015 -0.536794 0.711233
v 1.059934 -0.547094 -0.296080
v 0.199826 -0.620885 -0.087282
v -0.955354 -0.782089 -0.007880
v -0.485742 -0.454002 0.624695
v -0.226689 -0.542607 -0.637066
v -1.085242 -0.583580 -0.262909
v -0.027523 -0.436137 -0.788354
v 1.193108 0.296741 0.231462
v 1.122664 -0.188353 -0.535862
v 0.121523 0.176019 0.825997
v 0.790558 -0.316685 0.742989
v -1.004295 0.224129 0.476261
v -0.403448 -0.208802 0.743535
v -0.647193 0.244927 -0.561930
v -1.423399 -0.288131 -0.276517
v 0.365753 0.229508 -0.695056
v -0.134866 -0.221749 -0.879174
v 0.773728 0.415918 0.203667
v 0.015738 0.385444 0.694404
v -0.763320 0.421012 0.237514
v -0.479270 0.462266 -0.622867
v 0.443220 0.451040 -0.635040
v 0.071758 0.783184 0.238850
v 0.677479 0.574289 0.005443
v -0.191069 0.776124 0.152512
v -0.163708 0.696159 -0.106745
v 0.056563 0.688463 -0.192868
v 0.298057 0.685519 -0.203418
v 0.562348 0.611937 -0.222447
v 0.387281 0.584057 -0.447523
v -0.114583 0.652810 -0.343727
v -0.069436 0.586900 -0.605620
v -0.298485 0.585848 -0.516000
v -0.385112 0.731167 0.030274
v -0.587123 0.600814 -0.117659
v -0.607579 0.651328 0.141048
v -0.127803 0.803277 0.393431
v -0.304375 0.625724 0.482578
v -0.040586 0.629363 0.571803
v 0.310689 0.751878 0.252723
v 0.353391 0.591371 0.416905
v 0.514174 0.566150 0.204430
v 1.031842 0.308203 -0.519854
v 0.954439 0.066942 -0.575467
v 0.625224 0.259823 -0.544517
v -0.125392 0.256511 -0.868007
v -0.239673 0.008258 -0.772231
v -0.364687 0.257630 -0.681775
v -1.179870 0.327982 -0.268748
v -1.468512 0.100481 -0.022742
v -1.172163 0.315212 0.232201
v -0.370952 0.200440 0.698057
v -0.270481 0.006017 0.841611
v -0.118884 0.207568 0.819259
v 0.604769 0.186551 0.558336
v 0.999643 0.031359 0.652633
v 0.990959 0.247437 0.463815
v 0.238058 -0.000947 -0.767032
v 0.363816 -0.232353 -0.655889
v 0.118041 -0.233844 -0.843978
v -0.955413 0.058234 -0.575444
v -0.661459 -0.224360 -0.537744
v -1.111142 -0.204767 -0.515795
v -0.984632 0.036039 0.632697
v -1.124242 -0.243359 0.531657
v -0.697970 -0.260970 0.634308
v 0.270202 -0.006054 0.839482
v 0.130246 -0.210195 0.839143
v 0.418516 -0.240026 0.746966
v 1.466980 0.091426 -0.021965
v 1.413873 -0.326551 0.254991
v 1.394735 -0.305194 -0.278543
v 0.334543 -0.478221 -0.464605
v 0.131484 -0.571096 -0.315330
v 0.047425 -0.552315 -0.577572
v -0.453808 -0.592551 -0.444755
v -0.364839 -0.757175 -0.217809
v -0.682561 -0.694776 -0.232345
v -0.682729 -0.731087 0.248490
v -0.360122 -0.749509 0.201832
v -0.448676 -0.612070 0.439746
v 0.844202 -0.628999 -0.102898
v 0.860741 -0.753885 0.163743
v 0.471273 -0.635966 0.047420
v 0.057753 -0.542001 0.540253
v 0.138726 -0.680560 0.339811
v 0.356110 -0.609584 0.516194
v -0.003160 -0.728710 0.000031
v 0.932572 -0.591438 0.684396
v -0.256239 -0.366462 0.725357
v -1.295074 -0.623036 -0.020727
v -0.262457 -0.400333 -0.781743
v 0.802845 -0.394893 -0.486313
v 0.219481 0.328573 0.679005
v -0.632248 0.320915 0.411766
v -0.714580 0.424697 -0.504720
v 0.249820 0.411015 -0.783137
v 0.922925 0.436602 -0.006671
v -0.000744 0.724595 0.014992
v -0.150139 -0.635499 0.379192
v 0.445221 -0.724564 0.291462
v 0.256112 -0.429292 0.694325
v 1.239814 -0.686499 -0.003451
v 0.433245 -0.507673 -0.193276
v -0.556398 -0.828037 -0.000234
v -0.758344 -0.534037 0.492270
v -0.159919 -0.648027 -0.414647
v -0.753129 -0.469787 -0.452837
v 0.235717 -0.434800 -0.703773
v 1.384258 0.079962 0.497376
v 1.369882 0.097507 -0.520099
v -0.000155 0.003019 0.927921
v 0.563471 -0.015213 0.716027
v -1.376770 0.087593 0.485868
v -0.555287 -0.005906 0.706134
v -0.501834 0.010933 -0.576133
v -1.371304 0.097870 -0.520579
v 0.500437 0.010895 -0.573342
v -0.000926 0.003067 -0.921614
v 0.573054 0.373306 0.375389
v -0.213397 0.413753 0.653079
v -0.851337 0.495864 -0.005889
v -0.242672 0.482506 -0.749538
v 0.659895 0.476768 -0.461532
v 0.145104 0.772214 0.456832
v 0.453277 0.699184 0.022812
v -0.391612 0.773994 0.284458
v -0.337705 0.647341 -0.238715
v 0.115594 0.643955 -0.416738
vn -0.0061 -0.9981 0.0609
vn -0.0588 -0.9828 0.1749
vn -0.0944 -0.9378 0.3341
vn 0.1856 -0.8774 0.4424
vn -0.0841 -0.9929 0.0840
vn 0.2362 -0.9716 0.0106
vn 0.2291 -0.9565 0.1808
vn 0.1370 -0.9059 0.4008
vn 0.0985 -0.9603 0.2610
vn 0.2845 -0.9426 -0.1750
vn 0.0696 -0.9745 -0.2131
vn 0.1911 -0.9105 -0.3668
vn 0.3772 -0.8834 -0.2781
vn 0.3646 -0.8682 -0.3366
vn 0.3172 -0.9023 -0.2920
vn 0.5835 -0.5165 0.6268
vn 0.8115 -0.5550 0.1827
vn 0.8671 -0.1809 0.4641
vn -0.0962 -0.5794 0.8093
vn 0.0665 -0.5644 0.8228
vn 0.0314 -0.3550 0.9343
vn -0.6387 -0.6273 0.4456
vn -0.3485 -0.5721 0.7424
vn -0.6326 -0.3411 0.6953
vn -0.5623 0.0387 -0.8260
vn -0.5149 -0.0538 -0.8556
vn -0.4799 0.1052 -0.8710
vn 0.3185 -0.0889 -0.9438
vn 0.3892 -0.0396 -0.9203
vn 0.3157 0.0722 -0.9461
vn 0.2309 -0.1153 0.9661
vn 0.3750 0.2179 0.9011
vn 0.0858 0.2018 0.9757
vn -0.3312 -0.3931 0.8577
vn -0.2821 -0.1313 0.9504
vn -0.4419 -0.1316 0.8874
vn -0.9154 -0.4025 -0.0129
vn -0.9760 0.0363 0.2149
vn -0.9721 0.0382 -0.2312
vn -0.6084 0.0005 -0.7936
vn -0.6112 0.0960 -0.7857
vn -0.5266 0.1492 -0.8369
vn 0.0405 -0.2723 -0.9614
vn -0.0045 -0.0899 -0.9959
vn 0.1324 -0.0662 -0.9890
vn 0.5616 0.3760 0.7370
vn 0.5914 0.4229 0.6866
vn 0.5567 0.5040 0.6603
vn -0.5373 0.4354 0.7223
vn -0.5477 0.3706 0.7501
vn -0.5943 0.4816 0.6441
vn -0.3458 0.8832 -0.3168
vn -0.3883 0.9079 -0.1580
vn -0.3044 0.9232 -0.2345
vn 0.2222 0.7530 -0.6193
vn -0.0796 0.8335 -0.5468
vn 0.0917 0.9303 -0.3552
vn 0.5039 0.8630 -0.0355
vn 0.4101 0.8648 -0.2895
vn 0.4429 0.8933 -0.0762
vn 0.1125 0.9810 -0.1580
vn 0.0029 0.9784 -0.2067
vn -0.0268 0.9845 -0.1735
vn 0.2469 0.9437 -0.2202
vn 0.3216 0.8763 -0.3587
vn 0.1627 0.9308 -0.3274
vn 0.3505 0.8101 -0.4701
vn 0.2943 0.7266 -0.6209
vn 0.1693 0.9235 -0.3441
vn -0.0326 0.9803 -0.1947
vn -0.0946 0.9756 -0.1981
vn -0.0391 0.9814 -0.1878
vn -0.0340 0.9678 -0.2494
vn -0.1641 0.8977 -0.4089
vn -0.1425 0.9644 -0.2228
vn -0.2817 0.8293 -0.4825
vn -0.3948 0.8271 -0.4001
vn -0.2711 0.9334 -0.2352
vn -0.0456 0.9477 -0.3159
vn -0.1077 0.9762 -0.1881
vn 0.0449 0.9559 -0.2901
vn -0.3205 0.8837 -0.3410
vn -0.4718 0.8576 -0.2048
vn -0.3897 0.9124 -0.1249
vn -0.6331 0.6214 0.4616
vn -0.5534 0.5258 0.6460
vn -0.6386 0.5329 0.5552
vn -0.1012 0.9912 -0.0851
vn 0.1173 0.9928 0.0224
vn 0.0646 0.9592 -0.2751
vn -0.3726 0.6849 0.6261
vn -0.2845 0.4951 0.8209
vn -0.0605 0.6997 0.7118
vn -0.0880 0.4311 0.8980
vn 0.1868 0.3990 0.8977
vn 0.1301 0.5312 0.8372
vn 0.1291 0.9915 0.0140
vn 0.1730 0.9723 -0.1569
vn -0.0089 0.9706 -0.2407
vn 0.6149 0.6379 0.4637
vn 0.6845 0.5736 0.4499
vn 0.6831 0.6775 0.2726
vn 0.4184 0.7200 0.5537
vn 0.4434 0.7928 0.4182
vn 0.4800 0.7673 0.4253
vn 0.5100 0.7931 -0.3329
vn 0.3201 0.8928 -0.3169
vn 0.4106 0.9111 -0.0360
vn 0.1172 0.1872 -0.9753
vn -0.0196 0.1257 -0.9919
vn 0.0152 0.3497 -0.9368
vn 0.5072 -0.0791 -0.8582
vn 0.5978 0.0081 -0.8016
vn 0.5587 0.1452 -0.8166
vn -0.0426 0.1091 -0.9931
vn -0.2297 0.4069 -0.8841
vn 0.2345 0.3957 -0.8880
vn -0.5485 -0.0690 -0.8333
vn -0.6061 -0.0154 -0.7952
vn -0.6125 0.0702 -0.7874
vn -0.3838 -0.1117 -0.9166
vn -0.4264 0.0768 -0.9013
vn -0.4640 -0.0048 -0.8858
vn -0.5147 0.7832 -0.3489
vn -0.3728 0.9210 -0.1133
vn -0.2710 0.8799 -0.3904
vn -0.6893 0.7078 -0.1542
vn -0.6700 0.7226 0.1702
vn -0.4431 0.8960 0.0297
vn -0.2902 0.8139 0.5034
vn -0.1252 0.8237 0.5530
vn -0.2373 0.8984 0.3695
vn -0.4431 0.5225 0.7284
vn -0.5449 0.5198 0.6580
vn -0.4293 0.5824 0.6903
vn -0.4482 0.3694 0.8140
vn -0.2760 0.3085 0.9103
vn -0.3883 0.4932 0.7785
vn 0.0379 0.4763 0.8785
vn 0.2013 0.5920 0.7804
vn -0.0627 0.6047 0.7939
vn 0.3961 0.5718 0.7184
vn 0.4081 0.6193 0.6708
vn 0.5139 0.5474 0.6605
vn 0.0432 0.5967 0.8013
vn 0.2074 0.6484 0.7325
vn 0.0570 0.7169 0.6948
vn 0.3186 0.8322 0.4538
vn 0.2472 0.9318 0.2657
vn 0.1591 0.8840 0.4396
vn 0.6170 -0.0980 -0.7809
vn 0.5352 -0.1663 -0.8282
vn 0.6246 0.0170 -0.7807
vn 0.5970 -0.0598 -0.8000
vn 0.6011 -0.1542 -0.7842
vn 0.5609 -0.0156 -0.8277
vn 0.3149 -0.4555 -0.8327
vn -0.1366 -0.4436 -0.8858
vn 0.1277 -0.1725 -0.9767
vn 0.0128 0.0511 -0.9986
vn -0.1292 0.0923 -0.9873
vn -0.0146 0.2962 -0.9550
vn -0.0190 -0.1516 -0.9883
vn -0.0591 -0.2851 -0.9567
vn -0.1296 -0.1457 -0.9808
vn -0.2245 -0.5516 -0.8033
vn -0.5440 -0.6472 -0.5340
vn -0.5018 -0.3677 -0.7829
vn -0.2106 0.6120 0.7623
vn -0.0642 0.5745 0.8160
vn -0.0594 0.7208 0.6906
vn -0.3703 -0.1467 0.9172
vn -0.2298 -0.4049 0.8850
vn -0.1592 -0.1483 0.9760
vn -0.3078 -0.3818 0.8715
vn -0.2522 -0.3522 0.9013
vn -0.3215 -0.1445 0.9358
vn 0.2889 0.3032 0.9081
vn 0.4169 0.4007 0.8158
vn 0.3917 0.5254 0.7553
vn 0.2880 -0.1990 0.9367
vn 0.2450 -0.3837 0.8904
vn 0.3649 -0.1331 0.9215
vn -0.1101 -0.1845 0.9766
vn 0.0515 -0.1864 0.9811
vn 0.0260 0.0743 0.9969
vn 0.6832 0.7122 0.1613
vn 0.7015 0.6964 -0.1517
vn 0.4168 0.9086 0.0266
vn 0.9849 -0.0107 0.1726
vn 0.9076 -0.4170 -0.0492
vn 0.9745 -0.0339 -0.2219
vn 0.5090 -0.6649 -0.5466
vn 0.1947 -0.5684 -0.7994
vn 0.5545 -0.3607 -0.7500
vn 0.0677 -0.9826 -0.1730
vn 0.1599 -0.9518 -0.2616
vn 0.1670 -0.9255 -0.3400
vn 0.2850 -0.9383 -0.1961
vn 0.3065 -0.9374 -0.1654
vn 0.3377 -0.9028 -0.2661
vn 0.0535 -0.9166 -0.3961
vn -0.1216 -0.7293 -0.6733
vn 0.2116 -0.8222 -0.5284
vn -0.1492 -0.8998 -0.4099
vn -0.3403 -0.7521 -0.5644
vn -0.2937 -0.6904 -0.6611
vn -0.1048 -0.8241 -0.5567
vn -0.1515 -0.8774 -0.4552
vn -0.2448 -0.7440 -0.6217
vn -0.0764 -0.8944 -0.4407
vn -0.3699 -0.8150 -0.4460
vn -0.1436 -0.7097 -0.6897
vn -0.0854 -0.9559 0.2810
vn -0.1956 -0.7757 0.6000
vn -0.4275 -0.8527 0.3003
vn 0.0023 -0.9245 0.3812
vn 0.0537 -0.8559 0.5144
vn -0.0812 -0.7986 0.5963
vn 0.0436 -0.8314 0.5539
vn -0.0179 -0.7136 0.7003
vn -0.1015 -0.7662 0.6345
vn -0.0261 -0.9095 -0.4148
vn -0.1708 -0.8955 -0.4110
vn -0.0633 -0.8240 -0.5631
vn -0.0460 -0.9057 -0.4214
vn -0.1706 -0.9176 -0.3589
vn -0.1627 -0.8809 -0.4445
vn 0.1677 -0.9182 -0.3589
vn 0.2764 -0.8778 -0.3912
vn 0.1732 -0.8775 -0.4472
vn -0.0294 -0.8365 0.5472
vn -0.0192 -0.7843 0.6201
vn -0.0698 -0.7436 0.6650
vn -0.0728 -0.8339 0.5471
vn -0.0851 -0.8836 0.4605
vn -0.1219 -0.7639 0.6337
vn -0.2476 -0.8993 0.3605
vn -0.0612 -0.7673 0.6384
vn -0.2883 -0.7223 0.6286
usemtl White
s off
f 1//1 81//1 201//1 112//1
f 1//2 112//2 214//2 199//2
f 1//3 199//3 213//3 81//3
f 2//4 84//4 202//4 82//4
f 2//5 82//5 214//5 196//5
f 2//6 196//6 216//6 84//6
f 3//7 86//7 201//7 81//7
f 3//8 81//8 213//8 193//8
f 3//9 193//9 218//9 86//9
f 4//10 88//10 201//10 86//10
f 4//11 86//11 218//11 190//11
f 4//12 190//12 220//12 88//12
f 5//13 115//13 201//13 88//13
f 5//14 88//14 220//14 187//14
f 5//15 187//15 217//15 115//15
f 6//16 91//16 202//16 84//16
f 6//17 84//17 216//17 184//17
f 6//18 184//18 223//18 91//18
f 7//19 93//19 203//19 83//19
f 7//20 83//20 215//20 181//20
f 7//21 181//21 225//21 93//21
f 8//22 95//22 204//22 87//22
f 8//23 87//23 219//23 178//23
f 8//24 178//24 227//24 95//24
f 9//25 97//25 205//25 89//25
f 9//26 89//26 221//26 175//26
f 9//27 175//27 229//27 97//27
f 10//28 99//28 206//28 90//28
f 10//29 90//29 222//29 172//29
f 10//30 172//30 231//30 99//30
f 11//31 124//31 202//31 91//31
f 11//32 91//32 223//32 169//32
f 11//33 169//33 226//33 124//33
f 12//34 126//34 203//34 93//34
f 12//35 93//35 225//35 166//35
f 12//36 166//36 228//36 126//36
f 13//37 128//37 204//37 95//37
f 13//38 95//38 227//38 163//38
f 13//39 163//39 230//39 128//39
f 14//40 130//40 205//40 97//40
f 14//41 97//41 229//41 160//41
f 14//42 160//42 232//42 130//42
f 15//43 122//43 206//43 99//43
f 15//44 99//44 231//44 157//44
f 15//45 157//45 224//45 122//45
f 16//46 106//46 207//46 101//46
f 16//47 101//47 233//47 154//47
f 16//48 154//48 238//48 106//48
f 17//49 108//49 208//49 102//49
f 17//50 102//50 234//50 151//50
f 17//51 151//51 240//51 108//51
f 18//52 109//52 209//52 103//52
f 18//53 103//53 235//53 148//53
f 18//54 148//54 241//54 109//54
f 19//55 110//55 210//55 104//55
f 19//56 104//56 236//56 145//56
f 19//57 145//57 242//57 110//57
f 20//58 137//58 211//58 105//58
f 20//59 105//59 237//59 142//59
f 20//60 142//60 239//60 137//60
f 21//61 107//61 239//61 141//61
f 21//62 141//62 242//62 140//62
f 21//63 140//63 212//63 107//63
f 22//64 141//64 239//64 142//64
f 22//65 142//65 237//65 143//65
f 22//66 143//66 242//66 141//66
f 23//67 143//67 237//67 135//67
f 23//68 135//68 210//68 110//68
f 23//69 110//69 242//69 143//69
f 24//70 140//70 242//70 144//70
f 24//71 144//71 241//71 139//71
f 24//72 139//72 212//72 140//72
f 25//73 144//73 242//73 145//73
f 25//74 145//74 236//74 146//74
f 25//75 146//75 241//75 144//75
f 26//76 146//76 236//76 134//76
f 26//77 134//77 209//77 109//77
f 26//78 109//78 241//78 146//78
f 27//79 139//79 241//79 147//79
f 27//80 147//80 240//80 138//80
f 27//81 138//81 212//81 139//81
f 28//82 147//82 241//82 148//82
f 28//83 148//83 235//83 149//83
f 28//84 149//84 240//84 147//84
f 29//85 149//85 235//85 133//85
f 29//86 133//86 208//86 108//86
f 29//87 108//87 240//87 149//87
f 30//88 138//88 240//88 150//88
f 30//89 150//89 238//89 136//89
f 30//90 136//90 212//90 138//90
f 31//91 150//91 240//91 151//91
f 31//92 151//92 234//92 152//92
f 31//93 152//93 238//93 150//93
f 32//94 152//94 234//94 132//94
f 32//95 132//95 207//95 106//95
f 32//96 106//96 238//96 152//96
f 33//97 136//97 238//97 153//97
f 33//98 153//98 239//98 107//98
f 33//99 107//99 212//99 136//99
f 34//100 153//100 238//100 154//100
f 34//101 154//101 233//101 155//101
f 34//102 155//102 239//102 153//102
f 35//103 155//103 233//103 131//103
f 35//104 131//104 211//104 137//104
f 35//105 137//105 239//105 155//105
f 36//106 92//106 224//106 156//106
f 36//107 156//107 237//107 105//107
f 36//108 105//108 211//108 92//108
f 37//109 156//109 224//109 157//109
f 37//110 157//110 231//110 158//110
f 37//111 158//111 237//111 156//111
f 38//112 158//112 231//112 129//112
f 38//113 129//113 210//113 135//113
f 38//114 135//114 237//114 158//114
f 39//115 100//115 232//115 159//115
f 39//116 159//116 236//116 104//116
f 39//117 104//117 210//117 100//117
f 40//118 159//118 232//118 160//118
f 40//119 160//119 229//119 161//119
f 40//120 161//120 236//120 159//120
f 41//121 161//121 229//121 127//121
f 41//122 127//122 209//122 134//122
f 41//123 134//123 236//123 161//123
f 42//124 98//124 230//124 162//124
f 42//125 162//125 235//125 103//125
f 42//126 103//126 209//126 98//126
f 43//127 162//127 230//127 163//127
f 43//128 163//128 227//128 164//128
f 43//129 164//129 235//129 162//129
f 44//130 164//130 227//130 125//130
f 44//131 125//131 208//131 133//131
f 44//132 133//132 235//132 164//132
f 45//133 96//133 228//133 165//133
f 45//134 165//134 234//134 102//134
f 45//135 102//135 208//135 96//135
f 46//136 165//136 228//136 166//136
f 46//137 166//137 225//137 167//137
f 46//138 167//138 234//138 165//138
f 47//139 167//139 225//139 123//139
f 47//140 123//140 207//140 132//140
f 47//141 132//141 234//141 167//141
f 48//142 94//142 226//142 168//142
f 48//143 168//143 233//143 101//143
f 48//144 101//144 207//144 94//144
f 49//145 168//145 226//145 169//145
f 49//146 169//146 223//146 170//146
f 49//147 170//147 233//147 168//147
f 50//148 170//148 223//148 121//148
f 50//149 121//149 211//149 131//149
f 50//150 131//150 233//150 170//150
f 51//151 129//151 231//151 171//151
f 51//152 171//152 232//152 100//152
f 51//153 100//153 210//153 129//153
f 52//154 171//154 231//154 172//154
f 52//155 172//155 222//155 173//155
f 52//156 173//156 232//156 171//156
f 53//157 173//157 222//157 120//157
f 53//158 120//158 205//158 130//158
f 53//159 130//159 232//159 173//159
f 54//160 127//160 229//160 174//160
f 54//161 174//161 230//161 98//161
f 54//162 98//162 209//162 127//162
f 55//163 174//163 229//163 175//163
f 55//164 175//164 221//164 176//164
f 55//165 176//165 230//165 174//165
f 56//166 176//166 221//166 119//166
f 56//167 119//167 204//167 128//167
f 56//168 128//168 230//168 176//168
f 57//169 125//169 227//169 177//169
f 57//170 177//170 228//170 96//170
f 57//171 96//171 208//171 125//171
f 58//172 177//172 227//172 178//172
f 58//173 178//173 219//173 179//173
f 58//174 179//174 228//174 177//174
f 59//175 179//175 219//175 117//175
f 59//176 117//176 203//176 126//176
f 59//177 126//177 228//177 179//177
f 60//178 123//178 225//178 180//178
f 60//179 180//179 226//179 94//179
f 60//180 94//180 207//180 123//180
f 61//181 180//181 225//181 181//181
f 61//182 181//182 215//182 182//182
f 61//183 182//183 226//183 180//183
f 62//184 182//184 215//184 113//184
f 62//185 113//185 202//185 124//185
f 62//186 124//186 226//186 182//186
f 63//187 121//187 223//187 183//187
f 63//188 183//188 224//188 92//188
f 63//189 92//189 211//189 121//189
f 64//190 183//190 223//190 184//190
f 64//191 184//191 216//191 185//191
f 64//192 185//192 224//192 183//192
f 65//193 185//193 216//193 114//193
f 65//194 114//194 206//194 122//194
f 65//195 122//195 224//195 185//195
f 66//196 85//196 217//196 186//196
f 66//197 186//197 222//197 90//197
f 66//198 90//198 206//198 85//198
f 67//199 186//199 217//199 187//199
f 67//200 187//200 220//200 188//200
f 67//201 188//201 222//201 186//201
f 68//202 188//202 220//202 118//202
f 68//203 118//203 205//203 120//203
f 68//204 120//204 222//204 188//204
f 69//205 118//205 220//205 189//205
f 69//206 189//206 221//206 89//206
f 69//207 89//207 205//207 118//207
f 70//208 189//208 220//208 190//208
f 70//209 190//209 218//209 191//209
f 70//210 191//210 221//210 189//210
f 71//211 191//211 218//211 116//211
f 71//212 116//212 204//212 119//212
f 71//213 119//213 221//213 191//213
f 72//214 116//214 218//214 192//214
f 72//215 192//215 219//215 87//215
f 72//216 87//216 204//216 116//216
f 73//217 192//217 218//217 193//217
f 73//218 193//218 213//218 194//218
f 73//219 194//219 219//219 192//219
f 74//220 194//220 213//220 111//220
f 74//221 111//221 203//221 117//221
f 74//222 117//222 219//222 194//222
f 75//223 114//223 216//223 195//223
f 75//224 195//224 217//224 85//224
f 75//225 85//225 206//225 114//225
f 76//226 195//226 216//226 196//226
f 76//227 196//227 214//227 197//227
f 76//228 197//228 217//228 195//228
f 77//229 197//229 214//229 112//229
f 77//230 112//230 201//230 115//230
f 77//231 115//231 217//231 197//231
f 78//232 111//232 213//232 198//232
f 78//233 198//233 215//233 83//233
f 78//234 83//234 203//234 111//234
f 79//235 198//235 213//235 199//235
f 79//236 199//236 214//236 200//236
f 79//237 200//237 215//237 198//237
f 80//238 200//238 214//238 82//238
f 80//239 82//239 202//239 113//239
f 80//240 113//240 215//240 200//240
