# Blender v2.79 (sub 0) OBJ File: 'Flag.blend'
# www.blender.org
mtllib Flag.mtl
o Flag_Cylinder.013
v 0.000000 -0.057859 -0.089138
v 0.000000 4.006978 -0.089138
v 0.077196 -0.057859 -0.044569
v 0.077196 4.006978 -0.044569
v 0.077196 -0.057859 0.044569
v 0.077196 4.006978 0.044569
v -0.000000 -0.057859 0.089138
v -0.000000 4.006978 0.089138
v -0.077196 -0.057859 0.044569
v -0.077196 4.006978 0.044569
v -0.077196 -0.057859 -0.044569
v -0.077196 4.006978 -0.044569
v 0.000000 2.931423 -0.089138
v 0.000000 3.911599 -0.089138
v 0.077196 3.911599 -0.044569
v 0.077196 2.931423 -0.044569
v 0.077196 3.911599 0.044569
v 0.077196 2.931423 0.044569
v -0.000000 3.911599 0.089138
v -0.000000 2.931423 0.089138
v -0.077196 3.911599 0.044569
v -0.077196 2.931423 0.044569
v -0.077196 3.911599 -0.044569
v -0.077196 2.931423 -0.044569
v 0.000000 3.061796 -0.089138
v 0.000000 3.781227 -0.089138
v 0.077196 3.781227 -0.044569
v 0.077196 3.061796 -0.044569
v 0.077196 3.781227 0.044569
v 0.077196 3.061796 0.044569
v -0.000000 3.781227 0.089138
v -0.000000 3.061796 0.089138
v -0.077196 3.781227 0.044569
v -0.077196 3.061796 0.044569
v -0.077196 3.781227 -0.044569
v -0.077196 3.061796 -0.044569
v 0.000000 3.783834 -0.106965
v 0.000000 3.908992 -0.106965
v -0.092635 3.908992 -0.053483
v -0.092635 3.908992 0.053483
v -0.000000 3.908992 0.106965
v 0.092635 3.908992 0.053483
v 0.092635 3.908992 -0.053483
v 0.092635 3.783834 -0.053483
v 0.092635 3.783834 0.053483
v -0.000000 3.783834 0.106965
v -0.092635 3.783834 0.053483
v -0.092635 3.783834 -0.053483
v 0.092635 3.059189 -0.053483
v 0.092635 2.934031 -0.053483
v 0.092635 3.059189 0.053483
v 0.092635 2.934031 0.053483
v -0.000000 3.059189 0.106965
v -0.000000 2.934031 0.106965
v -0.092635 3.059189 0.053483
v -0.092635 2.934031 0.053483
v -0.092635 3.059189 -0.053483
v -0.092635 2.934031 -0.053483
v 0.000000 2.934031 -0.106965
v 0.000000 3.059189 -0.106965
v 0.188654 3.908992 -0.053483
v 0.188653 3.908992 0.053483
v 0.188653 3.783834 -0.053483
v 0.188653 3.783834 0.053483
v 0.188653 3.059189 -0.053483
v 0.188654 2.934031 -0.053483
v 0.188653 3.059189 0.053483
v 0.188653 2.934031 0.053483
v 1.859456 3.944595 -0.107024
v 1.884517 3.944595 -0.003036
v 1.741139 3.809343 -0.078509
v 1.766200 3.809343 0.025479
v 1.797093 3.086987 -0.091994
v 1.934739 2.972714 -0.125167
v 1.822154 3.086987 0.011994
v 1.959800 2.972714 -0.021179
v 0.188654 3.421511 -0.053483
v 0.188654 3.421511 0.053483
v 1.336091 3.412675 0.019108
v 1.361152 3.412675 0.123096
v 0.585177 3.014842 -0.125276
v 1.105299 2.906511 0.013688
v 1.098149 2.906511 0.120414
v 0.565942 3.014842 -0.020054
v 0.574790 3.139553 -0.127174
v 1.095380 3.031274 0.013023
v 0.495418 3.861615 -0.032946
v 1.030803 3.753629 0.115902
v 1.020884 3.878392 0.115238
v 0.485031 3.986327 -0.034845
v 1.028034 3.878392 0.008512
v 0.504266 3.986327 -0.140066
v 0.555555 3.139553 -0.021953
v 1.088230 3.031274 0.119749
v 0.514652 3.861615 -0.138168
v 1.037952 3.753629 0.009176
v 0.525486 3.500584 -0.027449
v 1.059517 3.392452 0.117826
v 0.544721 3.500584 -0.132671
v 1.066666 3.392452 0.011100
v 1.426700 3.054576 0.107299
v 1.449342 2.930877 0.101842
v 1.300475 3.896727 0.137719
v 1.316054 3.772449 0.133964
v 1.275985 3.896774 0.033593
v 1.403334 2.929161 0.002902
v 1.291421 3.772484 0.029873
v 1.386063 3.053300 0.007065
vn 0.5000 -0.0000 -0.8660
vn 1.0000 -0.0000 0.0000
vn 0.5000 -0.0000 0.8660
vn -0.5000 -0.0000 0.8660
vn 0.0000 1.0000 0.0000
vn -1.0000 -0.0000 0.0000
vn -0.5000 -0.0000 -0.8660
vn 0.0000 -1.0000 0.0000
vn 0.0833 0.9860 -0.1442
vn -0.0833 -0.9860 0.1442
vn 0.0833 0.9860 0.1442
vn 0.1665 -0.9860 -0.0000
vn -0.1665 0.9860 0.0000
vn -0.1665 -0.9860 0.0000
vn -0.0833 -0.9860 -0.1442
vn -0.0833 0.9860 -0.1442
vn 0.0833 -0.9860 -0.1442
vn -0.0833 0.9860 0.1442
vn 0.0833 -0.9860 0.1442
vn 0.1665 0.9860 0.0000
vn 0.0000 0.0000 1.0000
vn -0.0293 0.0109 -0.9995
vn 0.0720 -0.9974 -0.0053
vn 0.0000 0.0000 -1.0000
vn 0.7227 -0.6689 -0.1742
vn 0.6106 0.7782 -0.1471
vn -0.0703 -0.0196 0.9973
vn -0.0700 0.9975 0.0060
vn 0.6703 -0.7243 -0.1616
vn 0.0458 -0.0133 0.9989
vn 0.0124 -0.0177 0.9998
vn 0.0893 0.0213 -0.9958
vn -0.1985 -0.0157 -0.9800
vn 0.0535 0.0177 -0.9984
vn 0.2476 0.0177 0.9687
vn 0.5504 0.8243 -0.1326
vn 0.2343 0.0000 0.9722
vn -0.2674 -0.0119 0.9635
vn -0.2299 -0.0170 -0.9731
vn 0.2706 0.0121 -0.9626
vn -0.2343 0.0000 -0.9722
vn 0.2650 0.0117 -0.9642
vn -0.2538 -0.0179 -0.9671
vn 0.2743 0.0124 -0.9616
vn 0.2134 0.0163 0.9768
vn -0.2619 -0.0114 0.9650
vn 0.1930 0.0155 0.9811
vn -0.2582 -0.0111 0.9660
vn -0.2511 0.9677 -0.0228
vn 0.1931 0.9809 0.0240
vn 0.2738 0.0187 0.9616
vn -0.2710 -0.0122 0.9625
vn 0.2078 -0.9780 0.0188
vn -0.1954 -0.9804 -0.0243
vn -0.1798 -0.0149 -0.9836
vn 0.2613 0.0113 -0.9652
vn -0.0386 -0.0164 0.9991
vn -0.0772 0.9968 0.0186
vn 0.0772 -0.9968 -0.0186
vn 0.0026 0.0143 -0.9999
usemtl Brown
s off
f 14//1 2//1 4//1 15//1
f 15//2 4//2 6//2 17//2
f 17//3 6//3 8//3 19//3
f 19//4 8//4 10//4 21//4
f 4//5 2//5 12//5 10//5 8//5 6//5
f 21//6 10//6 12//6 23//6
f 23//7 12//7 2//7 14//7
f 1//8 3//8 5//8 7//8 9//8 11//8
f 11//7 24//7 13//7 1//7
f 9//6 22//6 24//6 11//6
f 7//4 20//4 22//4 9//4
f 5//3 18//3 20//3 7//3
f 3//2 16//2 18//2 5//2
f 1//1 13//1 16//1 3//1
f 25//1 26//1 27//1 28//1
f 28//2 27//2 29//2 30//2
f 30//3 29//3 31//3 32//3
f 32//4 31//4 33//4 34//4
f 34//6 33//6 35//6 36//6
f 36//7 35//7 26//7 25//7
usemtl LightRed
f 14//9 15//9 43//9 38//9
f 33//10 31//10 46//10 47//10
f 17//11 19//11 41//11 42//11
f 29//12 27//12 44//12 45//12
f 21//13 23//13 39//13 40//13
f 35//14 33//14 47//14 48//14
f 25//9 28//9 49//9 60//9
f 13//15 24//15 58//15 59//15
f 36//16 25//16 60//16 57//16
f 16//17 13//17 59//17 50//17
f 32//18 34//18 55//18 53//18
f 20//19 18//19 52//19 54//19
f 48//7 39//7 38//7 37//7
f 47//6 40//6 39//6 48//6
f 46//4 41//4 40//4 47//4
f 45//3 42//3 41//3 46//3
f 49//5 51//5 67//5 65//5
f 37//1 38//1 43//1 44//1
f 26//15 35//15 48//15 37//15
f 23//16 14//16 38//16 39//16
f 27//17 26//17 37//17 44//17
f 19//18 21//18 40//18 41//18
f 31//19 29//19 45//19 46//19
f 15//20 17//20 42//20 43//20
f 59//1 60//1 49//1 50//1
f 42//21 45//21 64//21 62//21
f 52//3 51//3 53//3 54//3
f 54//4 53//4 55//4 56//4
f 56//6 55//6 57//6 58//6
f 58//7 57//7 60//7 59//7
f 22//10 20//10 54//10 56//10
f 30//11 32//11 53//11 51//11
f 18//12 16//12 50//12 52//12
f 34//13 36//13 57//13 55//13
f 24//14 22//14 56//14 58//14
f 28//20 30//20 51//20 49//20
f 82//22 86//22 108//22 106//22
f 83//23 82//23 106//23 102//23
f 50//24 49//24 65//24 66//24
f 45//8 44//8 63//8 64//8
f 52//8 50//8 66//8 68//8
f 44//24 43//24 61//24 63//24
f 43//5 42//5 62//5 61//5
f 51//21 52//21 68//21 67//21
f 71//25 69//25 70//25 72//25
f 74//26 73//26 75//26 76//26
f 89//27 88//27 104//27 103//27
f 91//28 89//28 103//28 105//28
f 71//29 72//29 80//29 79//29
f 94//30 83//30 102//30 101//30
f 94//31 101//31 80//31 98//31
f 96//32 91//32 105//32 107//32
f 85//33 65//33 77//33 99//33
f 96//34 107//34 79//34 100//34
f 65//6 67//6 78//6 77//6
f 87//35 64//35 78//35 97//35
f 64//6 63//6 77//6 78//6
f 75//36 73//36 79//36 80//36
f 72//37 104//37 80//37
f 88//38 87//38 97//38 98//38
f 63//39 95//39 99//39 77//39
f 95//40 96//40 100//40 99//40
f 73//41 108//41 79//41
f 86//42 85//42 99//42 100//42
f 63//43 61//43 92//43 95//43
f 95//44 92//44 91//44 96//44
f 67//45 93//45 97//45 78//45
f 93//46 94//46 98//46 97//46
f 67//47 68//47 84//47 93//47
f 93//48 84//48 83//48 94//48
f 61//49 62//49 90//49 92//49
f 92//50 90//50 89//50 91//50
f 62//51 64//51 87//51 90//51
f 90//52 87//52 88//52 89//52
f 68//53 66//53 81//53 84//53
f 84//54 81//54 82//54 83//54
f 66//55 65//55 85//55 81//55
f 81//56 85//56 86//56 82//56
f 101//37 102//37 76//37 75//37
f 80//37 101//37 75//37
f 103//37 104//37 72//37 70//37
f 80//57 104//57 88//57 98//57
f 105//58 103//58 70//58 69//58
f 102//59 106//59 74//59 76//59
f 106//41 108//41 73//41 74//41
f 79//41 107//41 71//41
f 107//41 105//41 69//41 71//41
f 79//60 108//60 86//60 100//60
