# Blender v2.79 (sub 0) OBJ File: 'Grass2.blend'
# www.blender.org
mtllib Grass2.mtl
o Grass2_Plane.004
v -0.172885 -0.010103 -0.082036
v -0.159199 0.203650 -0.082036
v -0.183895 0.111956 -0.082036
v 0.119436 -0.010103 -0.081225
v 0.078999 0.252235 -0.084741
v 0.137554 0.083886 -0.082882
v -0.000796 -0.010103 0.072459
v -0.055361 0.345917 0.072459
v -0.023816 0.211525 0.072459
v -0.172885 -0.010103 -0.034737
v -0.159199 0.203650 -0.034737
v -0.183895 0.111956 -0.034737
v 0.123744 -0.010103 -0.034123
v 0.081908 0.255412 -0.037639
v 0.141861 0.083886 -0.035780
v -0.000796 -0.010103 0.025161
v -0.055361 0.345917 0.025161
v -0.023816 0.211525 0.025161
v -0.222052 -0.010103 -0.058387
v -0.123718 -0.010103 -0.058386
v -0.141976 0.113145 -0.058386
v -0.225815 0.110767 -0.058387
v -0.158682 0.227453 -0.058386
v -0.124010 0.229830 -0.058386
v 0.072627 -0.010103 -0.053196
v 0.170552 -0.010103 -0.062152
v 0.181453 0.085075 -0.063149
v 0.097963 0.082697 -0.055513
v 0.046800 0.262727 -0.059712
v 0.068362 0.289799 -0.062870
v 0.048371 -0.010103 0.048810
v -0.049963 -0.010103 0.048810
v -0.064396 0.218462 0.048810
v 0.016763 0.204587 0.048810
v -0.029343 0.370202 0.048810
v -0.061335 0.384076 0.048810
v -0.209760 -0.010103 -0.076123
v -0.175638 0.068381 -0.082036
v -0.136010 -0.010103 -0.076123
v -0.183227 0.155736 -0.082036
v -0.152456 0.112848 -0.076123
v -0.215335 0.111065 -0.076123
v -0.158811 0.221502 -0.076123
v -0.132808 0.223285 -0.076123
v 0.083252 -0.010103 -0.071979
v 0.123965 0.040955 -0.081639
v 0.156696 -0.010103 -0.078695
v 0.117782 0.208338 -0.084175
v 0.169401 0.084778 -0.079857
v 0.106784 0.082995 -0.074131
v 0.054122 0.259310 -0.077745
v 0.070294 0.279613 -0.080113
v 0.036079 -0.010103 0.066547
v -0.046344 0.105217 0.072459
v -0.037671 -0.010103 0.066547
v -0.057497 0.268853 0.072459
v -0.054251 0.216728 0.066547
v 0.006618 0.206322 0.066547
v -0.035848 0.364131 0.066547
v -0.059842 0.374537 0.066547
v -0.209760 -0.010103 -0.040650
v -0.175638 0.068381 -0.034737
v -0.136010 -0.010103 -0.040650
v -0.183227 0.155736 -0.034737
v -0.152456 0.112848 -0.040650
v -0.215335 0.111065 -0.040650
v -0.158811 0.221502 -0.040650
v -0.132808 0.223285 -0.040649
v 0.086483 -0.010103 -0.036652
v 0.128273 0.040955 -0.034537
v 0.159927 -0.010103 -0.043369
v 0.120691 0.211515 -0.037073
v 0.172632 0.084778 -0.044531
v 0.110014 0.082995 -0.038804
v 0.056304 0.261692 -0.042418
v 0.072475 0.281996 -0.044787
v 0.036079 -0.010103 0.031073
v -0.046344 0.105217 0.025161
v -0.037671 -0.010103 0.031073
v -0.057497 0.268853 0.025161
v -0.054251 0.216728 0.031073
v 0.006618 0.206322 0.031073
v -0.035848 0.364131 0.031073
v -0.059842 0.374537 0.031073
v -0.222993 0.068083 -0.058387
v -0.128283 0.068678 -0.058386
v -0.210913 0.160200 -0.058386
v -0.146614 0.163767 -0.058386
v -0.114566 0.266128 -0.058386
v 0.078961 0.040658 -0.053775
v 0.173277 0.041252 -0.062401
v 0.093213 0.190718 -0.057721
v 0.133823 0.240354 -0.063577
v 0.023272 0.309922 -0.061443
v -0.000055 0.096774 0.048810
v -0.092632 0.113660 0.048810
v -0.024852 0.266252 0.048810
v -0.085132 0.287064 0.048810
v -0.030306 0.423973 0.048810
v -0.211154 0.068158 -0.076123
v -0.140122 0.068604 -0.076123
v -0.203991 0.159084 -0.076123
v -0.155767 0.161759 -0.076123
v -0.131428 0.242526 -0.071525
v 0.089135 0.040732 -0.072517
v 0.159872 0.041178 -0.078986
v 0.098628 0.194329 -0.076110
v 0.129085 0.231556 -0.080502
v 0.044066 0.287847 -0.074431
v -0.011627 0.098884 0.066547
v -0.081060 0.111549 0.066547
v -0.033013 0.266902 0.066547
v -0.078223 0.282511 0.066547
v -0.039771 0.394485 0.061948
v -0.211154 0.068158 -0.040650
v -0.140122 0.068604 -0.040650
v -0.203991 0.159084 -0.040650
v -0.155767 0.161759 -0.040650
v -0.131428 0.242526 -0.045248
v 0.092366 0.040732 -0.037190
v 0.163103 0.041178 -0.043659
v 0.100810 0.196712 -0.040784
v 0.131267 0.233938 -0.045176
v 0.045682 0.289612 -0.048263
v -0.011627 0.098884 0.031073
v -0.081060 0.111549 0.031074
v -0.033013 0.266902 0.031073
v -0.078223 0.282511 0.031073
v -0.039771 0.394485 0.035672
vn -0.1612 -0.0043 -0.9869
vn 0.1612 0.0070 -0.9869
vn 0.2644 -0.1135 -0.9577
vn -0.3244 0.2035 -0.9238
vn -0.0187 0.2734 -0.9617
vn -0.1735 -0.0249 -0.9845
vn -0.2195 0.0287 -0.9752
vn 0.1962 0.0056 -0.9805
vn 0.1731 0.0406 -0.9841
vn -0.2504 0.0165 -0.9680
vn 0.0707 -0.0122 -0.9974
vn 0.1458 0.1529 -0.9774
vn -0.2814 -0.2341 -0.9306
vn -0.2223 0.0636 -0.9729
vn -0.2633 0.0643 -0.9626
vn -0.3055 -0.0494 -0.9509
vn 0.1402 0.0240 -0.9898
vn 0.0842 -0.0468 -0.9954
vn 0.1686 0.0701 0.9832
vn -0.1681 -0.0631 0.9838
vn -0.3628 0.0440 0.9308
vn 0.2592 0.0010 0.9658
vn 0.0807 0.1860 0.9792
vn 0.1728 -0.0330 0.9844
vn 0.2258 0.1404 0.9640
vn -0.2669 -0.1250 0.9556
vn -0.1716 0.0400 0.9844
vn -0.1612 -0.0043 0.9869
vn 0.1612 0.0070 0.9869
vn 0.2644 -0.1135 0.9577
vn -0.0188 0.2734 0.9617
vn -0.3244 0.2035 0.9238
vn -0.1735 -0.0249 0.9845
vn 0.1731 0.0406 0.9841
vn 0.1962 0.0056 0.9805
vn -0.2195 0.0287 0.9752
vn -0.0707 0.0165 0.9974
vn 0.2504 -0.0122 0.9681
vn 0.2632 0.2810 0.9229
vn -0.1020 0.1950 0.9755
vn -0.1634 -0.1052 0.9809
vn -0.0844 0.0643 0.9944
vn 0.2633 -0.0468 0.9636
vn 0.3360 0.0825 0.9383
vn -0.1283 -0.0027 0.9917
vn 0.1686 0.0701 -0.9832
vn -0.1681 -0.0631 -0.9838
vn -0.3628 0.0440 -0.9308
vn 0.0807 0.1860 -0.9792
vn 0.2592 0.0010 -0.9658
vn 0.1728 -0.0330 -0.9844
vn -0.1716 0.0400 -0.9844
vn -0.2670 -0.1250 -0.9556
vn 0.2258 0.1404 -0.9640
vn -0.8268 -0.0123 -0.5624
vn -0.8268 -0.0123 0.5624
vn 0.8259 0.0455 -0.5619
vn 0.8259 0.0455 0.5619
vn 0.8204 0.2407 -0.5187
vn 0.8709 0.0695 -0.4865
vn 0.8709 0.0695 0.4865
vn 0.8204 0.2407 0.5187
vn -0.8706 0.2345 -0.4325
vn -0.8441 -0.0691 -0.5318
vn -0.8441 -0.0691 0.5318
vn -0.8706 0.2345 0.4325
vn -0.5803 0.7238 -0.3734
vn -0.7714 0.5795 -0.2631
vn -0.7714 0.5795 0.2631
vn -0.5803 0.7238 0.3734
vn 0.8758 -0.3127 -0.3678
vn 0.8152 -0.1118 -0.5683
vn 0.8152 -0.1118 0.5683
vn 0.8758 -0.3127 0.3678
vn -0.8704 0.0994 -0.4823
vn -0.7685 0.0994 0.6321
vn 0.7714 -0.0477 -0.6346
vn 0.8737 -0.0477 0.4842
vn 0.7838 -0.1698 -0.5974
vn 0.8401 0.2429 -0.4850
vn 0.9068 0.2662 0.3269
vn 0.8791 -0.1698 0.4453
vn -0.9294 -0.0616 -0.3640
vn -0.8373 0.3472 -0.4223
vn -0.7468 0.3472 0.5672
vn -0.8591 -0.0444 0.5100
vn -0.8191 -0.3538 -0.4516
vn -0.7961 -0.5358 -0.2813
vn -0.7512 -0.4868 0.4458
vn -0.7546 -0.2834 0.5918
vn 0.5522 0.7087 -0.4391
vn 0.2354 0.7477 -0.6209
vn 0.3035 0.8221 0.4818
vn 0.5960 0.7565 0.2693
vn 0.7867 0.3503 0.5084
vn 0.7867 0.3503 -0.5084
vn -0.8038 -0.2818 0.5239
vn -0.8038 -0.2818 -0.5239
vn -0.8222 0.2155 0.5267
vn -0.8809 -0.2931 0.3716
vn -0.8809 -0.2931 -0.3716
vn -0.8222 0.2155 -0.5267
vn 0.7752 0.5152 0.3654
vn 0.8382 -0.1365 0.5280
vn 0.8382 -0.1365 -0.5280
vn 0.7752 0.5152 -0.3654
vn 0.8460 0.0780 0.5274
vn 0.9218 0.0336 0.3862
vn 0.9218 0.0336 -0.3862
vn 0.8460 0.0780 -0.5274
vn -0.9302 0.2075 0.3028
vn -0.6108 0.5642 0.5555
vn -0.6108 0.5642 -0.5555
vn -0.9302 0.2075 -0.3028
usemtl Green
s off
f 1//1 37//1 100//1 38//1
f 1//2 38//2 101//2 39//2
f 2//3 44//3 103//3 40//3
f 2//4 40//4 102//4 43//4
f 2//5 43//5 104//5 44//5
f 3//6 38//6 100//6 42//6
f 3//7 42//7 102//7 40//7
f 3//8 40//8 103//8 41//8
f 3//9 41//9 101//9 38//9
f 4//10 45//10 105//10 46//10
f 4//11 46//11 106//11 47//11
f 5//12 52//12 108//12 48//12
f 5//13 48//13 107//13 51//13
f 5//14 51//14 109//14 52//14
f 6//15 46//15 105//15 50//15
f 6//16 50//16 107//16 48//16
f 6//17 48//17 108//17 49//17
f 6//18 49//18 106//18 46//18
f 7//19 53//19 110//19 54//19
f 7//20 54//20 111//20 55//20
f 8//21 60//21 113//21 56//21
f 8//22 56//22 112//22 59//22
f 8//23 59//23 114//23 60//23
f 9//24 54//24 110//24 58//24
f 9//25 58//25 112//25 56//25
f 9//26 56//26 113//26 57//26
f 9//27 57//27 111//27 54//27
f 10//28 62//28 115//28 61//28
f 10//29 63//29 116//29 62//29
f 11//30 64//30 118//30 68//30
f 11//31 68//31 119//31 67//31
f 11//32 67//32 117//32 64//32
f 12//33 66//33 115//33 62//33
f 12//34 62//34 116//34 65//34
f 12//35 65//35 118//35 64//35
f 12//36 64//36 117//36 66//36
f 13//37 70//37 120//37 69//37
f 13//38 71//38 121//38 70//38
f 14//39 72//39 123//39 76//39
f 14//40 76//40 124//40 75//40
f 14//41 75//41 122//41 72//41
f 15//42 74//42 120//42 70//42
f 15//43 70//43 121//43 73//43
f 15//44 73//44 123//44 72//44
f 15//45 72//45 122//45 74//45
f 16//46 78//46 125//46 77//46
f 16//47 79//47 126//47 78//47
f 17//48 80//48 128//48 84//48
f 17//49 84//49 129//49 83//49
f 17//50 83//50 127//50 80//50
f 18//51 82//51 125//51 78//51
f 18//52 78//52 126//52 81//52
f 18//53 81//53 128//53 80//53
f 18//54 80//54 127//54 82//54
f 19//55 85//55 100//55 37//55
f 19//56 61//56 115//56 85//56
f 20//57 39//57 101//57 86//57
f 20//58 86//58 116//58 63//58
f 21//59 86//59 101//59 41//59
f 21//60 41//60 103//60 88//60
f 21//61 88//61 118//61 65//61
f 21//62 65//62 116//62 86//62
f 22//63 87//63 102//63 42//63
f 22//64 42//64 100//64 85//64
f 22//65 85//65 115//65 66//65
f 22//66 66//66 117//66 87//66
f 23//67 89//67 104//67 43//67
f 23//68 43//68 102//68 87//68
f 23//69 87//69 117//69 67//69
f 23//70 67//70 119//70 89//70
f 24//71 88//71 103//71 44//71
f 24//72 44//72 104//72 89//72
f 24//73 89//73 119//73 68//73
f 24//74 68//74 118//74 88//74
f 25//75 90//75 105//75 45//75
f 25//76 69//76 120//76 90//76
f 26//77 47//77 106//77 91//77
f 26//78 91//78 121//78 71//78
f 27//79 91//79 106//79 49//79
f 27//80 49//80 108//80 93//80
f 27//81 93//81 123//81 73//81
f 27//82 73//82 121//82 91//82
f 28//83 92//83 107//83 50//83
f 28//84 50//84 105//84 90//84
f 28//85 90//85 120//85 74//85
f 28//86 74//86 122//86 92//86
f 29//87 94//87 109//87 51//87
f 29//88 51//88 107//88 92//88
f 29//89 92//89 122//89 75//89
f 29//90 75//90 124//90 94//90
f 30//91 93//91 108//91 52//91
f 30//92 52//92 109//92 94//92
f 30//93 94//93 124//93 76//93
f 30//94 76//94 123//94 93//94
f 31//95 95//95 110//95 53//95
f 31//96 77//96 125//96 95//96
f 32//97 55//97 111//97 96//97
f 32//98 96//98 126//98 79//98
f 33//99 96//99 111//99 57//99
f 33//100 57//100 113//100 98//100
f 33//101 98//101 128//101 81//101
f 33//102 81//102 126//102 96//102
f 34//103 97//103 112//103 58//103
f 34//104 58//104 110//104 95//104
f 34//105 95//105 125//105 82//105
f 34//106 82//106 127//106 97//106
f 35//107 99//107 114//107 59//107
f 35//108 59//108 112//108 97//108
f 35//109 97//109 127//109 83//109
f 35//110 83//110 129//110 99//110
f 36//111 98//111 113//111 60//111
f 36//112 60//112 114//112 99//112
f 36//113 99//113 129//113 84//113
f 36//114 84//114 128//114 98//114
