# Blender v2.79 (sub 0) OBJ File: 'Grass1.blend'
# www.blender.org
mtllib Grass1.mtl
o Grass1_Plane.004
v -0.115751 -0.010103 0.025161
v -0.148219 0.132695 0.025161
v -0.150864 0.235643 0.025161
v -0.093384 0.347133 0.025161
v 0.071648 -0.010103 0.034738
v 0.054454 0.465223 0.034738
v 0.123237 0.270023 0.034738
v -0.115751 -0.010103 0.072459
v -0.148219 0.132695 0.072459
v -0.150864 0.235643 0.072459
v -0.093384 0.347133 0.072459
v 0.071648 -0.010103 0.082036
v 0.054454 0.465223 0.082036
v 0.123237 0.270023 0.082036
v -0.180640 -0.010103 0.048810
v -0.050862 -0.010103 0.048810
v -0.085256 0.121683 0.048810
v -0.211181 0.143707 0.048810
v -0.105569 0.207093 0.048810
v -0.196160 0.264192 0.048810
v -0.094331 0.395225 0.048810
v -0.064777 0.360150 0.048810
v 0.022481 -0.010103 0.058387
v 0.120815 -0.010103 0.058387
v 0.163816 0.276960 0.058387
v 0.082657 0.263085 0.058387
v 0.020104 0.474539 0.058387
v 0.041907 0.501753 0.058387
v -0.164417 -0.010103 0.031073
v -0.123868 0.077048 0.025161
v -0.067084 -0.010103 0.031073
v -0.165114 0.184715 0.025161
v -0.100997 0.124436 0.031073
v -0.195441 0.140954 0.031073
v -0.121583 0.288706 0.025161
v -0.116893 0.214231 0.031073
v -0.184836 0.257055 0.031073
v -0.094094 0.383202 0.031073
v -0.071929 0.356896 0.031073
v 0.034773 -0.010103 0.040650
v 0.084545 0.154192 0.034738
v 0.108523 -0.010103 0.040650
v 0.092348 0.398085 0.034738
v 0.153671 0.275225 0.040650
v 0.092802 0.264820 0.040650
v 0.028691 0.472210 0.040650
v 0.045044 0.492620 0.040650
v -0.164417 -0.010103 0.066546
v -0.123868 0.077048 0.072459
v -0.067084 -0.010103 0.066547
v -0.165114 0.184715 0.072459
v -0.100997 0.124436 0.066547
v -0.195441 0.140954 0.066546
v -0.121583 0.288706 0.072459
v -0.116893 0.214231 0.066547
v -0.184836 0.257055 0.066547
v -0.094094 0.383202 0.066547
v -0.071929 0.356896 0.066547
v 0.034773 -0.010103 0.076124
v 0.084545 0.154192 0.082036
v 0.108523 -0.010103 0.076123
v 0.092348 0.398085 0.082036
v 0.153671 0.275225 0.076123
v 0.092802 0.264820 0.076124
v 0.028692 0.472210 0.076123
v 0.045044 0.492620 0.076123
v -0.188275 0.079801 0.048809
v -0.059461 0.074295 0.048810
v -0.222697 0.205617 0.048810
v -0.107531 0.163813 0.048810
v -0.147921 0.325404 0.048810
v -0.088331 0.267285 0.048810
v -0.058810 0.423519 0.048810
v 0.037525 0.152457 0.058387
v 0.131565 0.155926 0.058386
v 0.064699 0.380534 0.058387
v 0.108272 0.427098 0.058387
v -0.004167 0.522530 0.058386
v -0.172173 0.079112 0.031073
v -0.075562 0.074983 0.031073
v -0.208301 0.200392 0.031073
v -0.121927 0.169038 0.031073
v -0.141336 0.316229 0.031073
v -0.096644 0.272640 0.031073
v -0.071871 0.394662 0.035671
v 0.049280 0.152891 0.040650
v 0.119810 0.155492 0.040650
v 0.071611 0.384921 0.040650
v 0.104291 0.419845 0.040650
v 0.017979 0.500881 0.045248
v -0.172173 0.079112 0.066546
v -0.075562 0.074983 0.066547
v -0.208301 0.200392 0.066547
v -0.121927 0.169038 0.066547
v -0.141336 0.316229 0.066547
v -0.096644 0.272640 0.066547
v -0.071871 0.394662 0.061948
v 0.049280 0.152891 0.076124
v 0.119810 0.155492 0.076123
v 0.071611 0.384921 0.076124
v 0.104291 0.419845 0.076124
v 0.017979 0.500881 0.071525
vn -0.1213 -0.0109 -0.9926
vn 0.1213 0.0117 -0.9925
vn 0.1291 0.0612 -0.9897
vn -0.1282 -0.0520 -0.9904
vn -0.1393 -0.0372 -0.9896
vn 0.1442 0.0564 -0.9879
vn 0.1384 -0.0278 -0.9900
vn -0.1299 0.0455 -0.9905
vn -0.1365 0.0885 -0.9867
vn 0.1542 -0.0685 -0.9857
vn 0.2349 -0.0871 -0.9681
vn -0.1960 0.1179 -0.9735
vn 0.1666 0.1404 -0.9760
vn -0.1620 0.0136 -0.9867
vn 0.1619 -0.0119 -0.9867
vn 0.3002 0.2084 -0.9308
vn -0.2296 -0.1202 -0.9658
vn -0.1582 0.1268 -0.9792
vn -0.1831 0.0661 -0.9809
vn -0.2099 -0.0440 -0.9767
vn 0.2283 0.0672 -0.9713
vn 0.1822 -0.0561 -0.9817
vn -0.1213 -0.0109 0.9926
vn 0.1213 0.0117 0.9926
vn 0.1291 0.0612 0.9897
vn 0.1441 0.0564 0.9879
vn -0.1393 -0.0372 0.9896
vn -0.1282 -0.0520 0.9904
vn 0.1384 -0.0278 0.9900
vn 0.1542 -0.0685 0.9857
vn -0.1365 0.0885 0.9867
vn -0.1299 0.0455 0.9905
vn 0.2349 -0.0871 0.9681
vn 0.1666 0.1404 0.9760
vn -0.1960 0.1179 0.9735
vn -0.1620 0.0136 0.9867
vn 0.1620 -0.0119 0.9867
vn 0.3002 0.2084 0.9308
vn -0.1582 0.1268 0.9792
vn -0.2296 -0.1202 0.9658
vn -0.1831 0.0661 0.9809
vn 0.1822 -0.0561 0.9817
vn 0.2283 0.0672 0.9713
vn -0.2099 -0.0440 0.9767
vn -0.7383 -0.0634 -0.6715
vn -0.7383 -0.0634 0.6715
vn 0.7378 0.0743 -0.6709
vn 0.7378 0.0743 0.6709
vn 0.7078 0.3744 -0.5990
vn 0.7470 0.3721 -0.5509
vn 0.7470 0.3721 0.5509
vn 0.7078 0.3744 0.5990
vn -0.7698 -0.1546 -0.6192
vn -0.7297 -0.2680 -0.6290
vn -0.7297 -0.2680 0.6290
vn -0.7698 -0.1546 0.6192
vn 0.7974 -0.0631 -0.6001
vn 0.8053 -0.2545 -0.5354
vn 0.8053 -0.2545 0.5354
vn 0.7974 -0.0631 0.6001
vn -0.6576 0.5012 -0.5624
vn -0.7150 0.3102 -0.6265
vn -0.7150 0.3102 0.6265
vn -0.6577 0.5012 0.5624
vn -0.3801 0.6304 -0.6768
vn -0.7173 0.5287 -0.4539
vn -0.7173 0.5287 0.4539
vn -0.3801 0.6304 0.6768
vn 0.8844 -0.2410 -0.3998
vn 0.8488 -0.0266 -0.5280
vn 0.8488 -0.0266 0.5280
vn 0.8844 -0.2410 0.3998
vn -0.8258 0.0750 -0.5589
vn -0.8258 0.0750 0.5589
vn 0.8268 -0.0549 -0.5598
vn 0.8268 -0.0549 0.5598
vn 0.8345 -0.2291 -0.5012
vn 0.8558 0.3047 -0.4180
vn 0.8558 0.3047 0.4180
vn 0.8345 -0.2291 0.5012
vn -0.8816 -0.1453 -0.4490
vn -0.8137 0.3241 -0.4825
vn -0.8137 0.3241 0.4825
vn -0.8816 -0.1453 0.4490
vn -0.7844 -0.3263 -0.5274
vn -0.8307 -0.4010 -0.3862
vn -0.8307 -0.4010 0.3862
vn -0.7844 -0.3263 0.5274
vn 0.7255 0.6181 -0.3028
vn 0.2764 0.7842 -0.5555
vn 0.2764 0.7842 0.5555
vn 0.7255 0.6181 0.3028
usemtl Green
s off
f 1//1 29//1 79//1 30//1
f 1//2 30//2 80//2 31//2
f 2//3 33//3 80//3 30//3
f 2//4 30//4 79//4 34//4
f 2//5 34//5 81//5 32//5
f 2//6 32//6 82//6 33//6
f 3//7 36//7 82//7 32//7
f 3//8 32//8 81//8 37//8
f 3//9 37//9 83//9 35//9
f 3//10 35//10 84//10 36//10
f 4//11 39//11 84//11 35//11
f 4//12 35//12 83//12 38//12
f 4//13 38//13 85//13 39//13
f 5//14 40//14 86//14 41//14
f 5//15 41//15 87//15 42//15
f 6//16 47//16 89//16 43//16
f 6//17 43//17 88//17 46//17
f 6//18 46//18 90//18 47//18
f 7//19 41//19 86//19 45//19
f 7//20 45//20 88//20 43//20
f 7//21 43//21 89//21 44//21
f 7//22 44//22 87//22 41//22
f 8//23 49//23 91//23 48//23
f 8//24 50//24 92//24 49//24
f 9//25 49//25 92//25 52//25
f 9//26 52//26 94//26 51//26
f 9//27 51//27 93//27 53//27
f 9//28 53//28 91//28 49//28
f 10//29 51//29 94//29 55//29
f 10//30 55//30 96//30 54//30
f 10//31 54//31 95//31 56//31
f 10//32 56//32 93//32 51//32
f 11//33 54//33 96//33 58//33
f 11//34 58//34 97//34 57//34
f 11//35 57//35 95//35 54//35
f 12//36 60//36 98//36 59//36
f 12//37 61//37 99//37 60//37
f 13//38 62//38 101//38 66//38
f 13//39 66//39 102//39 65//39
f 13//40 65//40 100//40 62//40
f 14//41 64//41 98//41 60//41
f 14//42 60//42 99//42 63//42
f 14//43 63//43 101//43 62//43
f 14//44 62//44 100//44 64//44
f 15//45 67//45 79//45 29//45
f 15//46 48//46 91//46 67//46
f 16//47 31//47 80//47 68//47
f 16//48 68//48 92//48 50//48
f 17//49 68//49 80//49 33//49
f 17//50 33//50 82//50 70//50
f 17//51 70//51 94//51 52//51
f 17//52 52//52 92//52 68//52
f 18//53 69//53 81//53 34//53
f 18//54 34//54 79//54 67//54
f 18//55 67//55 91//55 53//55
f 18//56 53//56 93//56 69//56
f 19//57 70//57 82//57 36//57
f 19//58 36//58 84//58 72//58
f 19//59 72//59 96//59 55//59
f 19//60 55//60 94//60 70//60
f 20//61 71//61 83//61 37//61
f 20//62 37//62 81//62 69//62
f 20//63 69//63 93//63 56//63
f 20//64 56//64 95//64 71//64
f 21//65 73//65 85//65 38//65
f 21//66 38//66 83//66 71//66
f 21//67 71//67 95//67 57//67
f 21//68 57//68 97//68 73//68
f 22//69 72//69 84//69 39//69
f 22//70 39//70 85//70 73//70
f 22//71 73//71 97//71 58//71
f 22//72 58//72 96//72 72//72
f 23//73 74//73 86//73 40//73
f 23//74 59//74 98//74 74//74
f 24//75 42//75 87//75 75//75
f 24//76 75//76 99//76 61//76
f 25//77 75//77 87//77 44//77
f 25//78 44//78 89//78 77//78
f 25//79 77//79 101//79 63//79
f 25//80 63//80 99//80 75//80
f 26//81 76//81 88//81 45//81
f 26//82 45//82 86//82 74//82
f 26//83 74//83 98//83 64//83
f 26//84 64//84 100//84 76//84
f 27//85 78//85 90//85 46//85
f 27//86 46//86 88//86 76//86
f 27//87 76//87 100//87 65//87
f 27//88 65//88 102//88 78//88
f 28//89 77//89 89//89 47//89
f 28//90 47//90 90//90 78//90
f 28//91 78//91 102//91 66//91
f 28//92 66//92 101//92 77//92
