# Blender v2.79 (sub 0) OBJ File: 'Grass.blend'
# www.blender.org
mtllib Grass.mtl
o Grass_Plane.004
v 0.338620 -0.010103 -0.034737
v 0.324934 0.203650 -0.034737
v 0.349630 0.111956 -0.034737
v -0.083135 -0.010103 -0.034737
v -0.121741 0.188785 -0.034737
v -0.101329 0.083886 -0.034737
v 0.117100 -0.010103 0.082036
v 0.149567 0.132695 0.082036
v 0.152213 0.235643 0.082036
v 0.094732 0.347133 0.082036
v -0.221142 -0.010103 0.072459
v -0.304276 0.453390 0.072459
v -0.272731 0.270023 0.072459
v 0.338620 -0.010103 -0.082036
v 0.324934 0.203650 -0.082036
v 0.349630 0.111956 -0.082036
v -0.083135 -0.010103 -0.082036
v -0.121741 0.188785 -0.082036
v -0.101329 0.083886 -0.082036
v 0.117100 -0.010103 0.034738
v 0.149567 0.132695 0.034738
v 0.152213 0.235643 0.034737
v 0.094732 0.347133 0.034737
v -0.221142 -0.010103 0.025161
v -0.304276 0.453390 0.025161
v -0.272731 0.270023 0.025161
v 0.387787 -0.010103 -0.058386
v 0.289453 -0.010103 -0.058386
v 0.307711 0.113145 -0.058386
v 0.391549 0.110767 -0.058386
v 0.324417 0.227453 -0.058386
v 0.289745 0.229830 -0.058386
v -0.033968 -0.010103 -0.058387
v -0.132302 -0.010103 -0.058387
v -0.143248 0.085075 -0.058387
v -0.059409 0.082697 -0.058387
v -0.105515 0.219619 -0.058387
v -0.140187 0.221997 -0.058387
v 0.181988 -0.010103 0.058387
v 0.052211 -0.010103 0.058387
v 0.086605 0.121683 0.058387
v 0.212530 0.143707 0.058387
v 0.106918 0.207093 0.058387
v 0.197508 0.264192 0.058387
v 0.095680 0.395225 0.058387
v 0.066126 0.360150 0.058387
v -0.171975 -0.010103 0.048810
v -0.270309 -0.010103 0.048810
v -0.313311 0.276960 0.048810
v -0.232152 0.263085 0.048810
v -0.278257 0.477675 0.048810
v -0.310250 0.491549 0.048810
v 0.375495 -0.010103 -0.040649
v 0.341372 0.068381 -0.034737
v 0.301745 -0.010103 -0.040650
v 0.348961 0.155736 -0.034737
v 0.318191 0.112848 -0.040650
v 0.381069 0.111065 -0.040650
v 0.324546 0.221502 -0.040650
v 0.298542 0.223285 -0.040650
v -0.046260 -0.010103 -0.040650
v -0.087683 0.040955 -0.034737
v -0.120010 -0.010103 -0.040650
v -0.115529 0.130537 -0.034737
v -0.132768 0.084778 -0.040650
v -0.069889 0.082995 -0.040650
v -0.109572 0.211911 -0.040650
v -0.135576 0.213694 -0.040650
v 0.165766 -0.010103 0.076124
v 0.125216 0.077048 0.082036
v 0.068433 -0.010103 0.076124
v 0.166463 0.184715 0.082036
v 0.102345 0.124436 0.076124
v 0.196789 0.140954 0.076124
v 0.122932 0.288706 0.082036
v 0.118242 0.214231 0.076124
v 0.186184 0.257055 0.076124
v 0.095443 0.383202 0.076124
v 0.073278 0.356896 0.076124
v -0.184267 -0.010103 0.066547
v -0.234039 0.154192 0.072459
v -0.258017 -0.010103 0.066547
v -0.306412 0.376325 0.072459
v -0.303166 0.275225 0.066547
v -0.242297 0.264820 0.066547
v -0.284762 0.471603 0.066547
v -0.308756 0.482009 0.066547
v 0.375495 -0.010103 -0.076123
v 0.341372 0.068381 -0.082036
v 0.301745 -0.010103 -0.076123
v 0.348961 0.155736 -0.082036
v 0.318191 0.112848 -0.076123
v 0.381069 0.111065 -0.076123
v 0.324546 0.221502 -0.076123
v 0.298542 0.223285 -0.076123
v -0.046260 -0.010103 -0.076124
v -0.087683 0.040955 -0.082036
v -0.120010 -0.010103 -0.076124
v -0.115529 0.130537 -0.082036
v -0.132768 0.084778 -0.076124
v -0.069889 0.082995 -0.076124
v -0.109572 0.211911 -0.076124
v -0.135576 0.213694 -0.076124
v 0.165766 -0.010103 0.040650
v 0.125216 0.077048 0.034738
v 0.068433 -0.010103 0.040650
v 0.166463 0.184715 0.034737
v 0.102345 0.124436 0.040650
v 0.196789 0.140954 0.040650
v 0.122932 0.288706 0.034737
v 0.118242 0.214231 0.040650
v 0.186184 0.257055 0.040650
v 0.095443 0.383202 0.040650
v 0.073278 0.356896 0.040650
v -0.184267 -0.010103 0.031073
v -0.234039 0.154192 0.025161
v -0.258017 -0.010103 0.031073
v -0.306412 0.376325 0.025161
v -0.303166 0.275225 0.031073
v -0.242297 0.264820 0.031073
v -0.284762 0.471603 0.031073
v -0.308756 0.482009 0.031073
v 0.388727 0.068083 -0.058386
v 0.294017 0.068678 -0.058386
v 0.376647 0.160200 -0.058386
v 0.312348 0.163767 -0.058386
v 0.280301 0.266128 -0.058387
v -0.040328 0.040658 -0.058387
v -0.135038 0.041252 -0.058387
v -0.083656 0.136760 -0.058387
v -0.147956 0.140326 -0.058387
v -0.124516 0.268843 -0.058387
v 0.189624 0.079801 0.058387
v 0.060809 0.074295 0.058387
v 0.224045 0.205617 0.058387
v 0.108880 0.163813 0.058387
v 0.149269 0.325404 0.058387
v 0.089680 0.267285 0.058387
v 0.060159 0.423519 0.058387
v -0.187019 0.152457 0.048810
v -0.281059 0.155926 0.048810
v -0.273766 0.373725 0.048810
v -0.334046 0.394537 0.048810
v -0.279221 0.531446 0.048810
v 0.376889 0.068158 -0.040649
v 0.305856 0.068604 -0.040650
v 0.369726 0.159084 -0.040650
v 0.321501 0.161759 -0.040650
v 0.297162 0.242526 -0.045248
v -0.052167 0.040732 -0.040650
v -0.123200 0.041178 -0.040650
v -0.091624 0.135204 -0.040650
v -0.139849 0.137879 -0.040650
v -0.123468 0.238599 -0.045248
v 0.173522 0.079112 0.076124
v 0.076911 0.074983 0.076124
v 0.209650 0.200392 0.076124
v 0.123275 0.169038 0.076124
v 0.142685 0.316229 0.076124
v 0.097993 0.272640 0.076124
v 0.073220 0.394662 0.071525
v -0.198774 0.152891 0.066547
v -0.269304 0.155492 0.066547
v -0.281928 0.374375 0.066547
v -0.327138 0.389984 0.066547
v -0.288686 0.501958 0.061948
v 0.376889 0.068158 -0.076123
v 0.305856 0.068604 -0.076123
v 0.369726 0.159084 -0.076123
v 0.321501 0.161759 -0.076123
v 0.297162 0.242526 -0.071525
v -0.052167 0.040732 -0.076124
v -0.123200 0.041178 -0.076124
v -0.091624 0.135204 -0.076124
v -0.139849 0.137879 -0.076124
v -0.123468 0.238599 -0.071525
v 0.173522 0.079112 0.040651
v 0.076911 0.074983 0.040650
v 0.209650 0.200392 0.040650
v 0.123275 0.169038 0.040650
v 0.142685 0.316229 0.040650
v 0.097993 0.272640 0.040650
v 0.073220 0.394662 0.045248
v -0.198774 0.152891 0.031073
v -0.269304 0.155492 0.031074
v -0.281928 0.374375 0.031073
v -0.327138 0.389984 0.031073
v -0.288686 0.501958 0.035672
vn 0.1612 -0.0043 0.9869
vn -0.1612 0.0070 0.9869
vn -0.2644 -0.1135 0.9577
vn 0.3244 0.2035 0.9238
vn 0.0187 0.2734 0.9617
vn 0.1735 -0.0249 0.9845
vn 0.2195 0.0287 0.9752
vn -0.1962 0.0056 0.9805
vn -0.1731 0.0406 0.9841
vn 0.1612 0.0165 0.9868
vn -0.1612 -0.0122 0.9868
vn -0.2994 -0.0043 0.9541
vn 0.2765 0.0495 0.9597
vn 0.0142 0.2069 0.9783
vn 0.1746 0.0643 0.9825
vn 0.2035 0.0740 0.9763
vn -0.2137 -0.0456 0.9758
vn -0.1745 -0.0468 0.9835
vn 0.1213 -0.0109 0.9926
vn -0.1213 0.0117 0.9925
vn -0.1291 0.0612 0.9897
vn 0.1282 -0.0520 0.9904
vn 0.1393 -0.0372 0.9896
vn -0.1442 0.0564 0.9879
vn -0.1384 -0.0278 0.9900
vn 0.1299 0.0455 0.9905
vn 0.1365 0.0885 0.9867
vn -0.1542 -0.0685 0.9857
vn -0.2349 -0.0871 0.9681
vn 0.1960 0.1179 0.9735
vn -0.1666 0.1404 0.9760
vn 0.1620 0.0136 0.9867
vn -0.1619 -0.0119 0.9867
vn -0.3628 0.0440 0.9308
vn 0.2592 0.0010 0.9658
vn 0.0807 0.1860 0.9792
vn 0.1831 0.0661 0.9809
vn 0.2192 0.0744 0.9728
vn -0.2472 -0.0645 0.9668
vn -0.1822 -0.0561 0.9817
vn 0.1612 -0.0043 -0.9869
vn -0.1612 0.0070 -0.9869
vn -0.2644 -0.1135 -0.9577
vn 0.0188 0.2734 -0.9617
vn 0.3244 0.2035 -0.9238
vn 0.1735 -0.0249 -0.9845
vn -0.1731 0.0406 -0.9841
vn -0.1962 0.0056 -0.9805
vn 0.2195 0.0287 -0.9752
vn 0.1612 0.0165 -0.9868
vn -0.1612 -0.0122 -0.9868
vn -0.2994 -0.0043 -0.9541
vn 0.0142 0.2069 -0.9783
vn 0.2765 0.0495 -0.9597
vn 0.1746 0.0643 -0.9825
vn -0.1745 -0.0468 -0.9835
vn -0.2137 -0.0456 -0.9758
vn 0.2035 0.0740 -0.9763
vn 0.1213 -0.0109 -0.9926
vn -0.1213 0.0117 -0.9926
vn -0.1291 0.0612 -0.9897
vn -0.1441 0.0564 -0.9879
vn 0.1393 -0.0372 -0.9896
vn 0.1282 -0.0520 -0.9904
vn -0.1384 -0.0278 -0.9900
vn -0.1542 -0.0685 -0.9857
vn 0.1365 0.0885 -0.9867
vn 0.1299 0.0455 -0.9905
vn -0.2349 -0.0871 -0.9681
vn -0.1666 0.1404 -0.9760
vn 0.1960 0.1179 -0.9735
vn 0.1620 0.0136 -0.9867
vn -0.1620 -0.0119 -0.9867
vn -0.3628 0.0440 -0.9308
vn 0.0807 0.1860 -0.9792
vn 0.2592 0.0010 -0.9658
vn 0.1831 0.0661 -0.9809
vn -0.1822 -0.0561 -0.9817
vn -0.2472 -0.0645 -0.9668
vn 0.2192 0.0744 -0.9728
vn 0.8268 -0.0123 0.5624
vn 0.8268 -0.0123 -0.5624
vn -0.8259 0.0455 0.5619
vn -0.8259 0.0455 -0.5619
vn -0.8204 0.2407 0.5187
vn -0.8709 0.0695 0.4865
vn -0.8709 0.0695 -0.4865
vn -0.8204 0.2407 -0.5187
vn 0.8706 0.2345 0.4325
vn 0.8441 -0.0691 0.5318
vn 0.8441 -0.0691 -0.5318
vn 0.8706 0.2345 -0.4325
vn 0.5803 0.7238 0.3734
vn 0.7714 0.5795 0.2631
vn 0.7714 0.5795 -0.2631
vn 0.5803 0.7238 -0.3734
vn -0.8758 -0.3127 0.3678
vn -0.8152 -0.1118 0.5683
vn -0.8152 -0.1118 -0.5683
vn -0.8758 -0.3127 -0.3678
vn 0.8228 0.0994 0.5595
vn 0.8228 0.0994 -0.5595
vn -0.8259 -0.0477 0.5617
vn -0.8259 -0.0477 -0.5617
vn -0.8349 -0.1698 0.5235
vn -0.8847 -0.0963 0.4561
vn -0.8847 -0.0963 -0.4561
vn -0.8349 -0.1698 -0.5235
vn 0.8237 0.3564 0.4410
vn 0.7954 0.3472 0.4968
vn 0.7954 0.3472 -0.4968
vn 0.8237 0.3564 -0.4410
vn 0.7695 0.3652 0.5239
vn 0.9033 0.2253 0.3650
vn 0.9033 0.2253 -0.3650
vn 0.7695 0.3652 -0.5239
vn -0.9319 0.0713 0.3557
vn -0.7640 0.3313 0.5536
vn -0.7640 0.3313 -0.5536
vn -0.9319 0.0713 -0.3557
vn 0.7383 -0.0634 0.6715
vn 0.7383 -0.0634 -0.6715
vn -0.7378 0.0743 0.6709
vn -0.7378 0.0743 -0.6709
vn -0.7078 0.3744 0.5990
vn -0.7470 0.3721 0.5509
vn -0.7470 0.3721 -0.5509
vn -0.7078 0.3744 -0.5990
vn 0.7698 -0.1546 0.6192
vn 0.7297 -0.2680 0.6290
vn 0.7297 -0.2680 -0.6290
vn 0.7698 -0.1546 -0.6192
vn -0.7974 -0.0631 0.6001
vn -0.8053 -0.2545 0.5354
vn -0.8053 -0.2545 -0.5354
vn -0.7974 -0.0631 -0.6001
vn 0.6577 0.5012 0.5624
vn 0.7150 0.3102 0.6265
vn 0.7150 0.3102 -0.6265
vn 0.6577 0.5012 -0.5624
vn 0.3801 0.6304 0.6768
vn 0.7173 0.5287 0.4539
vn 0.7173 0.5287 -0.4539
vn 0.3801 0.6304 -0.6768
vn -0.8844 -0.2410 0.3998
vn -0.8488 -0.0266 0.5280
vn -0.8488 -0.0266 -0.5280
vn -0.8844 -0.2410 -0.3998
vn 0.8258 0.0750 0.5589
vn 0.8258 0.0750 -0.5589
vn -0.8268 -0.0549 0.5598
vn -0.8268 -0.0549 -0.5598
vn -0.8345 -0.2291 0.5012
vn -0.8993 -0.1730 0.4017
vn -0.8993 -0.1730 -0.4017
vn -0.8345 -0.2291 -0.5012
vn 0.8520 0.3144 0.4186
vn 0.8137 0.3241 0.4825
vn 0.8137 0.3241 -0.4825
vn 0.8520 0.3144 -0.4186
vn 0.8460 0.0780 0.5274
vn 0.9218 0.0336 0.3862
vn 0.9218 0.0336 -0.3862
vn 0.8460 0.0780 -0.5274
vn -0.9302 0.2075 0.3028
vn -0.6108 0.5642 0.5555
vn -0.6108 0.5642 -0.5555
vn -0.9302 0.2075 -0.3028
usemtl Green
s off
f 1//1 53//1 145//1 54//1
f 1//2 54//2 146//2 55//2
f 2//3 60//3 148//3 56//3
f 2//4 56//4 147//4 59//4
f 2//5 59//5 149//5 60//5
f 3//6 54//6 145//6 58//6
f 3//7 58//7 147//7 56//7
f 3//8 56//8 148//8 57//8
f 3//9 57//9 146//9 54//9
f 4//10 61//10 150//10 62//10
f 4//11 62//11 151//11 63//11
f 5//12 68//12 153//12 64//12
f 5//13 64//13 152//13 67//13
f 5//14 67//14 154//14 68//14
f 6//15 62//15 150//15 66//15
f 6//16 66//16 152//16 64//16
f 6//17 64//17 153//17 65//17
f 6//18 65//18 151//18 62//18
f 7//19 69//19 155//19 70//19
f 7//20 70//20 156//20 71//20
f 8//21 73//21 156//21 70//21
f 8//22 70//22 155//22 74//22
f 8//23 74//23 157//23 72//23
f 8//24 72//24 158//24 73//24
f 9//25 76//25 158//25 72//25
f 9//26 72//26 157//26 77//26
f 9//27 77//27 159//27 75//27
f 9//28 75//28 160//28 76//28
f 10//29 79//29 160//29 75//29
f 10//30 75//30 159//30 78//30
f 10//31 78//31 161//31 79//31
f 11//32 80//32 162//32 81//32
f 11//33 81//33 163//33 82//33
f 12//34 87//34 165//34 83//34
f 12//35 83//35 164//35 86//35
f 12//36 86//36 166//36 87//36
f 13//37 81//37 162//37 85//37
f 13//38 85//38 164//38 83//38
f 13//39 83//39 165//39 84//39
f 13//40 84//40 163//40 81//40
f 14//41 89//41 167//41 88//41
f 14//42 90//42 168//42 89//42
f 15//43 91//43 170//43 95//43
f 15//44 95//44 171//44 94//44
f 15//45 94//45 169//45 91//45
f 16//46 93//46 167//46 89//46
f 16//47 89//47 168//47 92//47
f 16//48 92//48 170//48 91//48
f 16//49 91//49 169//49 93//49
f 17//50 97//50 172//50 96//50
f 17//51 98//51 173//51 97//51
f 18//52 99//52 175//52 103//52
f 18//53 103//53 176//53 102//53
f 18//54 102//54 174//54 99//54
f 19//55 101//55 172//55 97//55
f 19//56 97//56 173//56 100//56
f 19//57 100//57 175//57 99//57
f 19//58 99//58 174//58 101//58
f 20//59 105//59 177//59 104//59
f 20//60 106//60 178//60 105//60
f 21//61 105//61 178//61 108//61
f 21//62 108//62 180//62 107//62
f 21//63 107//63 179//63 109//63
f 21//64 109//64 177//64 105//64
f 22//65 107//65 180//65 111//65
f 22//66 111//66 182//66 110//66
f 22//67 110//67 181//67 112//67
f 22//68 112//68 179//68 107//68
f 23//69 110//69 182//69 114//69
f 23//70 114//70 183//70 113//70
f 23//71 113//71 181//71 110//71
f 24//72 116//72 184//72 115//72
f 24//73 117//73 185//73 116//73
f 25//74 118//74 187//74 122//74
f 25//75 122//75 188//75 121//75
f 25//76 121//76 186//76 118//76
f 26//77 120//77 184//77 116//77
f 26//78 116//78 185//78 119//78
f 26//79 119//79 187//79 118//79
f 26//80 118//80 186//80 120//80
f 27//81 123//81 145//81 53//81
f 27//82 88//82 167//82 123//82
f 28//83 55//83 146//83 124//83
f 28//84 124//84 168//84 90//84
f 29//85 124//85 146//85 57//85
f 29//86 57//86 148//86 126//86
f 29//87 126//87 170//87 92//87
f 29//88 92//88 168//88 124//88
f 30//89 125//89 147//89 58//89
f 30//90 58//90 145//90 123//90
f 30//91 123//91 167//91 93//91
f 30//92 93//92 169//92 125//92
f 31//93 127//93 149//93 59//93
f 31//94 59//94 147//94 125//94
f 31//95 125//95 169//95 94//95
f 31//96 94//96 171//96 127//96
f 32//97 126//97 148//97 60//97
f 32//98 60//98 149//98 127//98
f 32//99 127//99 171//99 95//99
f 32//100 95//100 170//100 126//100
f 33//101 128//101 150//101 61//101
f 33//102 96//102 172//102 128//102
f 34//103 63//103 151//103 129//103
f 34//104 129//104 173//104 98//104
f 35//105 129//105 151//105 65//105
f 35//106 65//106 153//106 131//106
f 35//107 131//107 175//107 100//107
f 35//108 100//108 173//108 129//108
f 36//109 130//109 152//109 66//109
f 36//110 66//110 150//110 128//110
f 36//111 128//111 172//111 101//111
f 36//112 101//112 174//112 130//112
f 37//113 132//113 154//113 67//113
f 37//114 67//114 152//114 130//114
f 37//115 130//115 174//115 102//115
f 37//116 102//116 176//116 132//116
f 38//117 131//117 153//117 68//117
f 38//118 68//118 154//118 132//118
f 38//119 132//119 176//119 103//119
f 38//120 103//120 175//120 131//120
f 39//121 133//121 155//121 69//121
f 39//122 104//122 177//122 133//122
f 40//123 71//123 156//123 134//123
f 40//124 134//124 178//124 106//124
f 41//125 134//125 156//125 73//125
f 41//126 73//126 158//126 136//126
f 41//127 136//127 180//127 108//127
f 41//128 108//128 178//128 134//128
f 42//129 135//129 157//129 74//129
f 42//130 74//130 155//130 133//130
f 42//131 133//131 177//131 109//131
f 42//132 109//132 179//132 135//132
f 43//133 136//133 158//133 76//133
f 43//134 76//134 160//134 138//134
f 43//135 138//135 182//135 111//135
f 43//136 111//136 180//136 136//136
f 44//137 137//137 159//137 77//137
f 44//138 77//138 157//138 135//138
f 44//139 135//139 179//139 112//139
f 44//140 112//140 181//140 137//140
f 45//141 139//141 161//141 78//141
f 45//142 78//142 159//142 137//142
f 45//143 137//143 181//143 113//143
f 45//144 113//144 183//144 139//144
f 46//145 138//145 160//145 79//145
f 46//146 79//146 161//146 139//146
f 46//147 139//147 183//147 114//147
f 46//148 114//148 182//148 138//148
f 47//149 140//149 162//149 80//149
f 47//150 115//150 184//150 140//150
f 48//151 82//151 163//151 141//151
f 48//152 141//152 185//152 117//152
f 49//153 141//153 163//153 84//153
f 49//154 84//154 165//154 143//154
f 49//155 143//155 187//155 119//155
f 49//156 119//156 185//156 141//156
f 50//157 142//157 164//157 85//157
f 50//158 85//158 162//158 140//158
f 50//159 140//159 184//159 120//159
f 50//160 120//160 186//160 142//160
f 51//161 144//161 166//161 86//161
f 51//162 86//162 164//162 142//162
f 51//163 142//163 186//163 121//163
f 51//164 121//164 188//164 144//164
f 52//165 143//165 165//165 87//165
f 52//166 87//166 166//166 144//166
f 52//167 144//167 188//167 122//167
f 52//168 122//168 187//168 143//168
