# Blender v2.79 (sub 0) OBJ File: 'Heart_Half.blend'
# www.blender.org
mtllib Heart_Half.mtl
o Heart_Half_Icosphere.002
v 0.213405 -0.348959 -0.000000
v -0.006227 -0.501591 0.151034
v 0.292568 -0.150251 0.243641
v 0.469585 -0.128223 -0.000000
v 0.292568 -0.138170 -0.243641
v -0.004280 -0.307486 -0.152540
v 0.134243 0.127413 0.243641
v 0.420659 0.128240 0.150577
v 0.420659 0.128240 -0.150577
v 0.134243 0.128240 -0.243641
v -0.005832 0.127520 -0.000000
v 0.213405 0.286566 -0.000000
v 0.259936 -0.295007 0.143207
v 0.081901 -0.443916 0.088683
v 0.134972 -0.343984 0.233244
v -0.013377 -0.519137 -0.018574
v 0.071315 -0.443916 -0.109747
v 0.363984 -0.256536 -0.000000
v 0.410515 -0.160753 0.143208
v 0.259936 -0.288850 -0.143207
v 0.410515 -0.155713 -0.143208
v 0.138115 -0.168375 -0.232231
v 0.213405 -0.007746 0.286418
v -0.056794 -0.004689 0.233000
v 0.485805 0.000149 0.088507
v 0.381757 -0.002386 0.231717
v 0.381757 0.000149 -0.231717
v 0.485805 0.000149 -0.088507
v -0.056794 -0.001687 -0.231717
v 0.213405 0.000099 -0.286418
v 0.000110 0.150028 0.143208
v 0.288696 0.150729 0.231715
v 0.457046 0.150729 -0.000000
v 0.288696 0.150729 -0.231715
v 0.000110 0.150729 -0.143208
v 0.166875 0.243791 0.143207
v 0.062827 0.243790 -0.000000
v 0.335225 0.243791 0.088506
v 0.335225 0.243791 -0.088506
v 0.166875 0.243791 -0.143207
v -0.049832 -0.347937 0.244491
v -0.000463 -0.152802 0.274584
v 0.059659 -0.151095 0.275818
v 0.181808 -0.148855 0.263461
v 0.000110 -0.168997 -0.215388
v 0.115377 -0.303029 -0.161731
v -0.049832 -0.436277 -0.116862
v -0.000253 -0.256237 -0.011028
v -0.049832 -0.411492 -0.015480
v -0.056794 -0.003160 -0.003753
v -0.000014 -0.162153 -0.008321
v 0.000064 -0.221856 0.083909
v -0.056794 -0.003387 0.031451
v 0.000059 -0.159599 0.068960
v -0.049832 -0.378036 0.121370
vn 0.6225 -0.7774 0.0906
vn 0.5760 -0.8152 0.0601
vn 0.5172 -0.8427 0.1494
vn 0.5141 -0.8376 -0.1845
vn 0.6166 -0.7772 -0.1259
vn 0.1704 -0.1953 0.9658
vn 0.8994 -0.3194 0.2984
vn 0.5878 -0.3148 -0.7453
vn -0.1088 -0.4079 -0.9065
vn 0.3103 -0.1110 0.9441
vn 0.9921 -0.1254 0.0000
vn 0.3069 -0.1165 -0.9446
vn -0.3733 0.6639 0.6480
vn 0.4713 0.6617 0.5831
vn 0.7002 0.6617 -0.2680
vn -0.0385 0.6617 -0.7488
vn -0.8601 0.5079 0.0466
vn -0.2680 0.9435 -0.1947
vn -0.4594 0.8232 -0.3337
vn -0.3720 0.6666 -0.6460
vn 0.1024 0.9435 -0.3151
vn 0.1876 0.7947 -0.5773
vn 0.4713 0.6617 -0.5831
vn 0.3313 0.9435 0.0000
vn 0.6071 0.7947 0.0000
vn 0.7002 0.6617 0.2680
vn 0.1024 0.9435 0.3151
vn 0.1876 0.7947 0.5773
vn -0.0416 0.6594 0.7506
vn -0.2680 0.9435 0.1947
vn -0.4617 0.8212 0.3354
vn -0.8602 0.5080 -0.0441
vn -0.4301 0.5680 -0.7017
vn 0.0248 0.3303 -0.9436
vn 0.3035 0.1876 -0.9342
vn 0.5346 0.3304 -0.7779
vn 0.9050 0.3304 -0.2680
vn 0.9822 0.1876 0.0000
vn 0.9050 0.3304 0.2680
vn 0.5349 0.3251 0.7799
vn 0.2987 0.1815 0.9369
vn 0.0257 0.3153 0.9487
vn -0.4307 0.5663 0.7027
vn -0.1957 0.1996 -0.9601
vn -0.1921 -0.2216 -0.9560
vn -0.0115 -0.3015 -0.9534
vn 0.8026 0.1256 -0.5831
vn 0.7956 -0.1815 -0.5780
vn 0.8947 -0.3246 -0.3068
vn 0.8017 0.1244 0.5847
vn 0.7977 -0.1773 0.5764
vn 0.6019 -0.3035 0.7386
vn -0.1881 0.1945 0.9627
vn -0.1039 0.0380 0.9939
vn 0.0443 -0.1810 0.9825
vn -0.0601 -0.3289 -0.9424
vn 0.1543 -0.3841 -0.9103
vn 0.0487 -0.5612 -0.8262
vn 0.4902 -0.5544 -0.6725
vn 0.6323 -0.7151 -0.2980
vn 0.7576 -0.6235 -0.1928
vn 0.7607 -0.6260 0.1716
vn 0.6403 -0.7182 0.2723
vn 0.5047 -0.5660 0.6519
vn -0.0106 -0.7665 -0.6422
vn 0.6428 -0.7653 -0.0343
vn 0.5715 -0.8200 -0.0305
vn 0.6216 -0.5363 0.5710
vn 0.5426 -0.7709 0.3337
vn 0.6497 -0.7157 0.2562
vn 0.0632 -0.5055 0.8605
vn 0.1706 -0.1906 0.9667
vn 0.1023 -0.1762 0.9790
vn -0.0272 0.2606 0.9651
vn -0.1194 -0.1366 -0.9834
vn 0.1576 -0.4788 -0.8637
vn -0.0512 -0.4564 -0.8883
vn 0.0387 -0.2795 -0.9594
vn -0.9459 -0.3153 0.0771
vn -0.9478 0.3085 -0.0809
vn -0.9997 0.0219 0.0076
vn -0.9444 -0.3289 0.0038
vn -0.9354 0.3536 0.0085
vn -0.9317 0.3633 0.0023
vn -0.9517 0.2950 -0.0850
vn -1.0000 0.0016 0.0019
vn -0.9435 -0.3218 0.0787
vn -0.9410 -0.3384 0.0076
vn -0.9363 0.3513 -0.0055
vn -0.9376 -0.3478 0.0035
vn -0.9449 -0.3186 0.0751
vn -0.9592 0.2692 -0.0867
vn -1.0000 -0.0007 -0.0025
usemtl Red.001
s off
f 1//1 13//1 14//1
f 2//2 16//2 14//2
f 1//3 18//3 13//3
f 1//4 20//4 18//4
f 1//5 17//5 20//5
f 3//6 23//6 44//6
f 4//7 25//7 19//7
f 5//8 27//8 21//8
f 6//9 45//9 22//9
f 3//10 26//10 23//10
f 4//11 28//11 25//11
f 5//12 30//12 27//12
f 7//13 36//13 31//13
f 8//14 38//14 32//14
f 9//15 39//15 33//15
f 10//16 40//16 34//16
f 11//17 37//17 35//17
f 37//18 12//18 40//18
f 37//19 40//19 35//19
f 35//20 40//20 10//20
f 40//21 12//21 39//21
f 40//22 39//22 34//22
f 34//23 39//23 9//23
f 39//24 12//24 38//24
f 39//25 38//25 33//25
f 33//26 38//26 8//26
f 38//27 12//27 36//27
f 38//28 36//28 32//28
f 32//29 36//29 7//29
f 36//30 12//30 37//30
f 36//31 37//31 31//31
f 31//32 37//32 11//32
f 29//33 35//33 10//33
f 30//34 10//34 34//34
f 30//35 34//35 27//35
f 27//36 34//36 9//36
f 28//37 9//37 33//37
f 28//38 33//38 25//38
f 25//39 33//39 8//39
f 26//40 8//40 32//40
f 26//41 32//41 23//41
f 23//42 32//42 7//42
f 24//43 7//43 31//43
f 29//44 10//44 30//44
f 29//45 30//45 22//45
f 22//46 30//46 5//46
f 27//47 9//47 28//47
f 27//48 28//48 21//48
f 21//49 28//49 4//49
f 25//50 8//50 26//50
f 25//51 26//51 19//51
f 19//52 26//52 3//52
f 23//53 7//53 24//53
f 23//54 24//54 43//54 44//54
f 15//55 43//55 42//55 41//55
f 17//56 6//56 46//56
f 17//57 46//57 20//57
f 20//58 22//58 5//58
f 20//59 5//59 21//59
f 20//60 21//60 18//60
f 18//61 21//61 4//61
f 18//62 4//62 19//62
f 18//63 19//63 13//63
f 13//64 19//64 3//64
f 16//65 47//65 17//65
f 16//66 17//66 14//66
f 14//67 17//67 1//67
f 13//68 3//68 15//68
f 13//69 15//69 14//69
f 14//70 15//70 2//70
f 41//71 2//71 15//71
f 44//72 15//72 3//72
f 44//73 43//73 15//73
f 42//74 43//74 24//74
f 22//75 45//75 29//75
f 20//76 46//76 22//76
f 46//77 6//77 22//77
f 17//78 47//78 6//78
f 2//79 41//79 55//79
f 47//80 49//80 48//80 6//80
f 6//81 48//81 51//81 45//81
f 45//82 51//82 50//82 29//82
f 29//83 50//83 11//83 35//83
f 11//84 50//84 53//84
f 48//85 49//85 55//85 52//85
f 51//86 48//86 52//86 54//86
f 16//87 49//87 47//87
f 50//88 51//88 54//88 53//88
f 53//89 24//89 31//89 11//89
f 53//90 54//90 42//90 24//90
f 55//91 49//91 16//91 2//91
f 52//92 55//92 41//92 42//92
f 54//93 52//93 42//93
