# Blender v2.79 (sub 0) OBJ File: 'Key.blend'
# www.blender.org
mtllib Key.mtl
o Key_Cube.006
v -0.209767 0.021509 -0.027509
v 0.486068 0.021509 -0.027509
v -0.209767 0.021509 0.027509
v 0.486068 0.021509 0.027509
v -0.163900 0.021509 -0.027509
v -0.163900 0.021509 0.027509
v -0.127111 0.053610 0.027509
v -0.172906 0.056183 0.027509
v -0.172906 0.056183 -0.027509
v -0.127111 0.053610 -0.027509
v -0.108409 0.105728 0.027509
v -0.154236 0.103806 0.027509
v -0.154236 0.103806 -0.027509
v -0.108409 0.105728 -0.027509
v -0.122725 0.166007 0.027509
v -0.161010 0.140748 0.027509
v -0.161010 0.140748 -0.027509
v -0.122725 0.166007 -0.027509
v -0.179162 0.225726 0.027509
v -0.186301 0.180418 0.027509
v -0.186301 0.180418 -0.027509
v -0.179162 0.225726 -0.027509
v -0.252892 0.230356 0.027509
v -0.247598 0.184795 0.027509
v -0.247598 0.184795 -0.027509
v -0.252892 0.230356 -0.027509
v -0.313430 0.193088 0.027509
v -0.281357 0.160300 0.027509
v -0.281357 0.160300 -0.027509
v -0.313430 0.193088 -0.027509
v -0.338767 0.097601 0.027509
v -0.294674 0.084972 0.027509
v -0.294674 0.084972 -0.027509
v -0.338767 0.097601 -0.027509
v -0.316431 0.034885 0.027509
v -0.286779 0.069878 0.027509
v -0.286779 0.069878 -0.027509
v -0.316431 0.034885 -0.027509
v -0.377229 0.100764 -0.027509
v -0.377229 0.100764 0.027509
v -0.376260 0.061025 -0.027509
v -0.376260 0.061025 0.027509
v -0.435158 0.073247 -0.027509
v -0.435158 0.073247 0.027509
v -0.411395 0.041381 -0.027509
v -0.411395 0.041381 0.027509
v -0.460837 0.033374 -0.027509
v -0.460837 0.033374 0.027509
v -0.424492 0.024383 -0.027509
v -0.424492 0.024383 0.027509
v -0.341927 0.059248 -0.027509
v -0.341927 0.059248 0.027509
v -0.213891 0.011493 -0.027509
v -0.213891 0.011493 0.027509
v -0.223907 0.011493 -0.027509
v -0.223907 0.011493 0.027509
v -0.229210 0.022098 -0.027509
v -0.229210 0.022098 0.027509
v -0.242761 0.034471 -0.027509
v -0.242761 0.034471 0.027509
v -0.256902 0.032115 -0.027509
v -0.256902 0.032115 0.027509
v -0.268686 0.023277 -0.027509
v -0.268686 0.023277 0.027509
v -0.099812 0.048023 -0.027509
v -0.099812 0.048023 0.027509
v -0.066804 0.022333 -0.027509
v -0.066804 0.022333 0.027509
v -0.007591 0.022123 -0.027509
v -0.007591 0.022123 0.027509
v -0.012884 0.039805 0.027509
v -0.061386 0.040015 0.027509
v -0.061386 0.040015 -0.027509
v -0.012884 0.039805 -0.027509
v -0.021097 0.050405 0.027509
v -0.053081 0.050615 0.027509
v -0.053081 0.050615 -0.027509
v -0.021097 0.050405 -0.027509
v -0.028074 0.058072 0.027509
v -0.046003 0.058282 0.027509
v -0.046003 0.058282 -0.027509
v -0.028074 0.058072 -0.027509
v -0.209767 -0.021509 -0.027509
v 0.486068 -0.021509 -0.027509
v -0.209767 -0.021509 0.027509
v 0.486068 -0.021509 0.027509
v -0.209767 0.000000 -0.027509
v 0.486068 0.000000 -0.027509
v 0.486068 0.000000 0.027509
v -0.209767 0.000000 0.027509
v -0.163900 -0.021509 -0.027509
v -0.163900 -0.021509 0.027509
v -0.163900 0.000000 0.027509
v -0.163900 0.000000 -0.027509
v -0.127111 -0.053610 0.027509
v -0.172906 -0.056183 0.027509
v -0.172906 -0.056183 -0.027509
v -0.127111 -0.053610 -0.027509
v -0.108409 -0.105728 0.027509
v -0.154236 -0.103806 0.027509
v -0.154236 -0.103806 -0.027509
v -0.108409 -0.105728 -0.027509
v -0.122725 -0.166007 0.027509
v -0.161010 -0.140748 0.027509
v -0.161010 -0.140748 -0.027509
v -0.122725 -0.166007 -0.027509
v -0.179162 -0.225726 0.027509
v -0.186301 -0.180418 0.027509
v -0.186301 -0.180418 -0.027509
v -0.179162 -0.225726 -0.027509
v -0.252892 -0.230356 0.027509
v -0.247598 -0.184795 0.027509
v -0.247598 -0.184795 -0.027509
v -0.252892 -0.230356 -0.027509
v -0.313430 -0.193088 0.027509
v -0.281357 -0.160300 0.027509
v -0.281357 -0.160300 -0.027509
v -0.313430 -0.193088 -0.027509
v -0.338767 -0.097601 0.027509
v -0.294674 -0.084972 0.027509
v -0.294674 -0.084972 -0.027509
v -0.338767 -0.097601 -0.027509
v -0.316431 -0.034885 0.027509
v -0.286779 -0.069878 0.027509
v -0.286779 -0.069878 -0.027509
v -0.316431 -0.034885 -0.027509
v -0.377229 -0.100764 -0.027509
v -0.377229 -0.100764 0.027509
v -0.376260 -0.061025 -0.027509
v -0.376260 -0.061025 0.027509
v -0.435158 -0.073247 -0.027509
v -0.435158 -0.073247 0.027509
v -0.411395 -0.041381 -0.027509
v -0.411395 -0.041381 0.027509
v -0.460837 -0.033374 -0.027509
v -0.460837 -0.033374 0.027509
v -0.424492 -0.024383 -0.027509
v -0.424492 -0.024383 0.027509
v -0.464701 0.000000 -0.027509
v -0.464701 0.000000 0.027509
v -0.429829 0.000000 -0.027509
v -0.429829 0.000000 0.027509
v -0.341927 -0.059248 -0.027509
v -0.341927 -0.059248 0.027509
v -0.213891 0.000000 -0.027509
v -0.213891 -0.011493 -0.027509
v -0.213891 -0.011493 0.027509
v -0.213891 0.000000 0.027509
v -0.223907 0.000000 -0.027509
v -0.223907 -0.011493 -0.027509
v -0.223907 -0.011493 0.027509
v -0.223907 0.000000 0.027509
v -0.229210 0.000000 -0.027509
v -0.229210 -0.022098 -0.027509
v -0.229210 -0.022098 0.027509
v -0.229210 0.000000 0.027509
v -0.242761 0.000000 -0.027509
v -0.242761 -0.034471 -0.027509
v -0.242761 -0.034471 0.027509
v -0.242761 0.000000 0.027509
v -0.256902 0.000000 -0.027509
v -0.256902 -0.032115 -0.027509
v -0.256902 -0.032115 0.027509
v -0.256902 0.000000 0.027509
v -0.275641 0.000000 -0.027509
v -0.268686 -0.023277 -0.027509
v -0.268686 -0.023277 0.027509
v -0.275641 0.000000 0.027509
v -0.099812 -0.048023 -0.027509
v -0.099812 0.000000 -0.027509
v -0.099812 -0.048023 0.027509
v -0.099812 0.000000 0.027509
v -0.066804 -0.022333 -0.027509
v -0.066804 0.000000 -0.027509
v -0.066804 -0.022333 0.027509
v -0.066804 0.000000 0.027509
v -0.007591 -0.022123 -0.027509
v -0.007591 0.000000 -0.027509
v -0.007591 -0.022123 0.027509
v -0.007591 0.000000 0.027509
v -0.012884 -0.039805 0.027509
v -0.061386 -0.040015 0.027509
v -0.061386 -0.040015 -0.027509
v -0.012884 -0.039805 -0.027509
v -0.021097 -0.050405 0.027509
v -0.053081 -0.050615 0.027509
v -0.053081 -0.050615 -0.027509
v -0.021097 -0.050405 -0.027509
v -0.028074 -0.058072 0.027509
v -0.046003 -0.058282 0.027509
v -0.046003 -0.058282 -0.027509
v -0.028074 -0.058072 -0.027509
v 0.491724 0.010663 -0.027509
v 0.491724 0.010663 0.027509
v 0.491724 0.000000 -0.027509
v 0.491724 0.000000 0.027509
v 0.491724 -0.010663 -0.027509
v 0.491724 -0.010663 0.027509
v 0.501623 0.010663 -0.027509
v 0.501623 0.010663 0.027509
v 0.501623 0.000000 -0.027509
v 0.501623 0.000000 0.027509
v 0.501623 -0.010663 -0.027509
v 0.501623 -0.010663 0.027509
v 0.507279 0.022917 -0.027509
v 0.507279 0.022917 0.027509
v 0.507279 0.000000 -0.027509
v 0.507279 0.000000 0.027509
v 0.507279 -0.022917 -0.027509
v 0.507279 -0.022917 0.027509
v 0.526369 0.037503 -0.027509
v 0.526369 0.037503 0.027509
v 0.526369 0.000000 -0.027509
v 0.526369 0.000000 0.027509
v 0.526369 -0.037503 -0.027509
v 0.526369 -0.037503 0.027509
v 0.548994 0.025509 -0.027509
v 0.548994 0.025509 0.027509
v 0.548994 0.000000 -0.027509
v 0.548994 0.000000 0.027509
v 0.548994 -0.025509 -0.027509
v 0.548994 -0.025509 0.027509
v 0.558185 0.015134 -0.027509
v 0.558185 0.015134 0.027509
v 0.558185 0.000000 -0.027509
v 0.558185 0.000000 0.027509
v 0.558185 -0.015134 -0.027509
v 0.558185 -0.015134 0.027509
v 0.304308 0.021918 -0.027509
v 0.403246 0.021714 -0.027509
v 0.304308 0.000000 -0.027509
v 0.403246 0.000000 -0.027509
v 0.403246 0.021714 0.027509
v 0.304308 0.021918 0.027509
v 0.403246 0.000000 0.027509
v 0.304308 0.000000 0.027509
v 0.304308 -0.021918 -0.027509
v 0.403246 -0.021714 -0.027509
v 0.403246 -0.021714 0.027509
v 0.304308 -0.021918 0.027509
v 0.304404 -0.068442 -0.027509
v 0.403343 -0.068238 -0.027509
v 0.403343 -0.068238 0.027509
v 0.304404 -0.068442 0.027509
v 0.278033 -0.157394 -0.026776
v 0.430082 -0.157189 -0.026776
v 0.430082 -0.157189 0.026776
v 0.278033 -0.157394 0.026776
v 0.491485 -0.068238 0.027509
v 0.491485 -0.068238 -0.027509
v 0.215934 -0.068442 0.027509
v 0.215934 -0.068442 -0.027509
v 0.491997 -0.157189 0.027509
v 0.491997 -0.157189 -0.027509
v 0.216446 -0.157394 0.027509
v 0.216446 -0.157394 -0.027509
v 0.337288 0.021850 -0.027509
v 0.370267 0.021782 -0.027509
v 0.337288 0.000000 -0.027509
v 0.370267 0.000000 -0.027509
v 0.370267 0.021782 0.027509
v 0.337288 0.021850 0.027509
v 0.370267 0.000000 0.027509
v 0.337288 0.000000 0.027509
v 0.337288 -0.021850 -0.027509
v 0.370267 -0.021782 -0.027509
v 0.370267 -0.021782 0.027509
v 0.337288 -0.021850 0.027509
v 0.337384 -0.068374 -0.027509
v 0.370363 -0.068306 -0.027509
v 0.370363 -0.068306 0.027509
v 0.337384 -0.068374 0.027509
v 0.328716 -0.157326 -0.026776
v 0.379399 -0.157258 -0.026776
v 0.379399 -0.157258 0.026776
v 0.328716 -0.157326 0.026776
v 0.430115 -0.230244 0.026776
v 0.430115 -0.230244 -0.026776
v 0.278066 -0.230449 0.026776
v 0.278066 -0.230449 -0.026776
v 0.492030 -0.230244 0.027509
v 0.492030 -0.230244 -0.027509
v 0.216479 -0.230449 0.027509
v 0.216479 -0.230449 -0.027509
v 0.328749 -0.230380 -0.026776
v 0.379432 -0.230312 -0.026776
v 0.379432 -0.230312 0.026776
v 0.328749 -0.230380 0.026776
v 0.293546 -0.103203 -0.027207
v 0.284755 -0.136612 -0.026963
v 0.284755 -0.136612 0.026963
v 0.293546 -0.103203 0.027207
v 0.423266 -0.136382 0.026963
v 0.414353 -0.102973 0.027207
v 0.423266 -0.136382 -0.026963
v 0.414353 -0.102973 -0.027207
v 0.216145 -0.103203 -0.027509
v 0.216315 -0.136612 -0.027509
v 0.216315 -0.136612 0.027509
v 0.216145 -0.103203 0.027509
v 0.491867 -0.136382 0.027509
v 0.491696 -0.102973 0.027509
v 0.491867 -0.136382 -0.027509
v 0.491696 -0.102973 -0.027509
v 0.333815 -0.103126 -0.027207
v 0.330925 -0.136536 -0.026963
v 0.374084 -0.103049 -0.027207
v 0.377096 -0.136459 -0.026963
v 0.374084 -0.103049 0.027207
v 0.377096 -0.136459 0.026963
v 0.333815 -0.103126 0.027207
v 0.330925 -0.136536 0.026963
v 0.290615 -0.114340 -0.027126
v 0.287685 -0.125476 -0.027044
v 0.287685 -0.125476 0.027044
v 0.290615 -0.114340 0.027126
v 0.420295 -0.125245 0.027044
v 0.417324 -0.114109 0.027126
v 0.420295 -0.125245 -0.027044
v 0.417324 -0.114109 -0.027126
v 0.242031 -0.108982 -0.027509
v 0.242077 -0.131060 -0.027509
v 0.242077 -0.131060 0.027509
v 0.242031 -0.108982 0.027509
v 0.465980 -0.130603 0.027509
v 0.465934 -0.108525 0.027509
v 0.465980 -0.130603 -0.027509
v 0.465934 -0.108525 -0.027509
v 0.332852 -0.114263 -0.027126
v 0.331888 -0.125399 -0.027044
v 0.375088 -0.114186 -0.027126
v 0.376092 -0.125322 -0.027044
v 0.375088 -0.114186 0.027126
v 0.376092 -0.125322 0.027044
v 0.332852 -0.114263 0.027126
v 0.331888 -0.125399 0.027044
vn 0.0000 0.0000 -1.0000
vn -0.0000 0.0000 1.0000
vn 0.6575 -0.7535 0.0000
vn -0.3823 0.9240 0.0000
vn -0.6852 0.7284 0.0000
vn 0.9412 -0.3378 0.0000
vn -0.9310 0.3650 0.0000
vn 0.7268 0.6869 0.0000
vn 0.9729 0.2311 0.0000
vn -0.9836 -0.1804 0.0000
vn -0.8432 -0.5376 0.0000
vn -0.5242 0.8516 0.0000
vn 0.0627 0.9980 0.0000
vn -0.0712 -0.9975 0.0000
vn 0.9847 -0.1741 0.0000
vn 0.5873 -0.8094 0.0000
vn -0.9666 0.2565 0.0000
vn 0.7629 -0.6465 0.0000
vn 0.8861 0.4635 0.0000
vn -0.0517 -0.9987 0.0000
vn 0.0820 0.9966 0.0000
vn -0.4291 0.9033 0.0000
vn 0.4880 -0.8728 0.0000
vn -0.8407 0.5415 0.0000
vn 0.7921 -0.6104 0.0000
vn 0.9769 -0.2138 0.0000
vn -0.9934 0.1150 0.0000
vn -0.6909 -0.7230 0.0000
vn -0.9247 0.3808 0.0000
vn 0.8944 0.4472 0.0000
vn 0.0000 1.0000 0.0000
vn -0.1644 0.9864 0.0000
vn 0.6743 0.7385 0.0000
vn -0.9581 0.2863 0.0000
vn -0.6000 0.8000 0.0000
vn 0.6142 0.7892 0.0000
vn 0.9580 0.2868 0.0000
vn 0.0007 1.0000 0.0000
vn -0.9561 0.2930 -0.0000
vn 0.7396 0.6730 0.0000
vn 0.7905 0.6125 0.0000
vn -0.7872 0.6167 -0.0000
vn 0.0117 0.9999 -0.0000
vn -0.7348 0.6783 -0.0000
vn 0.6575 0.7535 0.0000
vn -0.3823 -0.9240 0.0000
vn -0.6852 -0.7284 0.0000
vn 0.9412 0.3378 0.0000
vn -0.9310 -0.3650 0.0000
vn 0.7268 -0.6869 0.0000
vn 0.9729 -0.2311 0.0000
vn -0.9836 0.1804 0.0000
vn -0.8432 0.5376 0.0000
vn -0.5242 -0.8516 0.0000
vn 0.0627 -0.9980 0.0000
vn -0.0712 0.9975 0.0000
vn 0.9847 0.1741 0.0000
vn 0.5873 0.8094 0.0000
vn -0.9666 -0.2565 0.0000
vn 0.7629 0.6465 0.0000
vn 0.8861 -0.4635 0.0000
vn -0.0517 0.9987 0.0000
vn 0.0820 -0.9966 0.0000
vn -0.4291 -0.9033 0.0000
vn 0.4880 0.8728 0.0000
vn -0.8407 -0.5415 0.0000
vn 0.7921 0.6104 0.0000
vn 0.9769 0.2138 0.0000
vn -0.9934 -0.1150 0.0000
vn -0.6909 0.7230 0.0000
vn -0.9247 -0.3808 0.0000
vn 0.8944 -0.4472 0.0000
vn 0.0000 -1.0000 0.0000
vn -0.1644 -0.9864 0.0000
vn 0.6743 -0.7385 0.0000
vn -0.9581 -0.2863 0.0000
vn -0.6000 -0.8000 0.0000
vn 0.6142 -0.7892 0.0000
vn 0.9580 -0.2868 0.0000
vn 0.0007 -1.0000 0.0000
vn -0.9561 -0.2930 -0.0000
vn 0.7396 -0.6730 0.0000
vn 0.7905 -0.6125 0.0000
vn -0.7872 -0.6167 -0.0000
vn 0.0117 -0.9999 0.0000
vn -0.7348 -0.6783 -0.0000
vn 0.8867 0.4624 0.0000
vn 0.8867 -0.4624 0.0000
vn -0.6071 0.7946 0.0000
vn -0.9079 -0.4191 0.0000
vn -0.9079 0.4191 0.0000
vn -0.6071 -0.7946 0.0000
vn 0.7485 0.6631 0.0000
vn 0.4684 -0.8835 0.0000
vn 0.4684 0.8835 0.0000
vn 1.0000 0.0000 0.0000
vn 0.7485 -0.6631 0.0000
vn 0.0025 -1.0000 0.0000
vn 0.0025 1.0000 0.0000
vn 0.0021 1.0000 -0.0000
vn 1.0000 0.0021 0.0000
vn -1.0000 -0.0021 0.0000
vn 0.0013 -1.0000 0.0000
vn 0.0000 -0.0090 1.0000
vn -0.0098 -0.0061 0.9999
vn 0.0000 -0.0090 -1.0000
vn -1.0000 -0.0063 0.0000
vn 1.0000 0.0063 0.0000
vn 0.0098 -0.0061 -0.9999
vn 0.0119 0.0000 0.9999
vn -0.0018 -0.0046 -1.0000
vn 0.0018 -0.0046 1.0000
vn -0.0118 -0.0000 0.9999
vn 1.0000 0.0004 0.0000
vn 0.0119 0.0000 -0.9999
vn -0.0118 -0.0000 -0.9999
vn -1.0000 -0.0004 0.0000
vn 0.0000 -0.0087 1.0000
vn 0.0000 -0.0073 1.0000
vn 0.0000 -0.0087 -1.0000
vn 0.0000 -0.0073 -1.0000
vn 0.0098 -0.0061 0.9999
vn 0.0056 0.0027 1.0000
vn -0.0098 -0.0061 -0.9999
vn -0.0056 0.0027 -1.0000
vn 0.0018 -0.0046 -1.0000
vn 0.0099 -0.0220 -0.9997
vn 1.0000 0.0061 0.0000
vn 0.2179 0.9760 0.0000
vn -1.0000 -0.0061 -0.0000
vn -0.2107 0.9776 0.0000
vn -0.0018 -0.0046 1.0000
vn -0.0099 -0.0216 0.9997
vn -0.0056 0.0027 1.0000
vn -0.0090 -0.0033 1.0000
vn -0.2179 -0.9760 0.0000
vn 0.2107 -0.9776 0.0000
vn 0.0056 0.0027 -1.0000
vn 0.0090 -0.0032 -1.0000
vn -0.0099 -0.0216 -0.9997
vn -0.0090 -0.0033 -1.0000
vn 0.0099 -0.0220 0.9997
vn 0.0090 -0.0032 1.0000
usemtl Yellow
s off
f 232//1 230//1 2//1 88//1
f 84//1 88//1 195//1 197//1
f 93//2 6//2 3//2 90//2
f 90//2 3//2 54//2 148//2
f 6//3 5//3 10//3 7//3
f 66//4 65//4 5//4 6//4
f 172//2 66//2 6//2 93//2
f 87//1 1//1 5//1 94//1
f 10//1 9//1 13//1 14//1
f 3//2 6//2 7//2 8//2
f 5//1 1//1 9//1 10//1
f 1//5 3//5 8//5 9//5
f 12//2 11//2 15//2 16//2
f 8//2 7//2 11//2 12//2
f 7//6 10//6 14//6 11//6
f 9//7 8//7 12//7 13//7
f 15//8 18//8 22//8 19//8
f 11//9 14//9 18//9 15//9
f 13//10 12//10 16//10 17//10
f 14//1 13//1 17//1 18//1
f 22//1 21//1 25//1 26//1
f 17//11 16//11 20//11 21//11
f 18//1 17//1 21//1 22//1
f 16//2 15//2 19//2 20//2
f 23//12 26//12 30//12 27//12
f 20//2 19//2 23//2 24//2
f 19//13 22//13 26//13 23//13
f 21//14 20//14 24//14 25//14
f 29//15 28//15 32//15 33//15
f 25//16 24//16 28//16 29//16
f 26//1 25//1 29//1 30//1
f 24//2 23//2 27//2 28//2
f 34//1 33//1 37//1 38//1
f 30//1 29//1 33//1 34//1
f 28//2 27//2 31//2 32//2
f 27//17 30//17 34//17 31//17
f 35//18 38//18 37//18 36//18
f 32//2 31//2 35//2 36//2
f 34//1 51//1 41//1 39//1
f 33//19 32//19 36//19 37//19
f 39//1 41//1 45//1 43//1
f 51//20 52//20 42//20 41//20
f 31//21 34//21 39//21 40//21
f 52//2 31//2 40//2 42//2
f 43//1 45//1 49//1 47//1
f 40//22 39//22 43//22 44//22
f 42//2 40//2 44//2 46//2
f 41//23 42//23 46//23 45//23
f 50//2 48//2 140//2 142//2
f 44//24 43//24 47//24 48//24
f 46//2 44//2 48//2 50//2
f 45//25 46//25 50//25 49//25
f 49//26 50//26 142//26 141//26
f 47//1 49//1 141//1 139//1
f 48//27 47//27 139//27 140//27
f 35//2 31//2 52//2
f 38//28 35//28 52//28 51//28
f 34//1 38//1 51//1
f 148//2 54//2 56//2 152//2
f 3//29 1//29 53//29 54//29
f 1//1 87//1 145//1 53//1
f 56//30 55//30 57//30 58//30
f 53//1 145//1 149//1 55//1
f 54//31 53//31 55//31 56//31
f 156//2 58//2 60//2 160//2
f 152//2 56//2 58//2 156//2
f 55//1 149//1 153//1 57//1
f 60//32 59//32 61//32 62//32
f 57//1 153//1 157//1 59//1
f 58//33 57//33 59//33 60//33
f 164//2 62//2 64//2 168//2
f 160//2 60//2 62//2 164//2
f 59//1 157//1 161//1 61//1
f 168//34 64//34 63//34 165//34
f 61//1 161//1 165//1 63//1
f 62//35 61//35 63//35 64//35
f 176//2 68//2 66//2 172//2
f 68//36 67//36 65//36 66//36
f 94//1 5//1 65//1 170//1
f 70//37 69//37 74//37 71//37
f 180//2 70//2 68//2 176//2
f 170//1 65//1 67//1 174//1
f 236//2 234//2 70//2 180//2
f 234//38 229//38 69//38 70//38
f 174//1 67//1 69//1 178//1
f 72//2 71//2 75//2 76//2
f 67//39 68//39 72//39 73//39
f 68//2 70//2 71//2 72//2
f 69//1 67//1 73//1 74//1
f 75//40 78//40 82//40 79//40
f 71//41 74//41 78//41 75//41
f 73//42 72//42 76//42 77//42
f 74//1 73//1 77//1 78//1
f 79//43 82//43 81//43 80//43
f 77//44 76//44 80//44 81//44
f 78//1 77//1 81//1 82//1
f 76//2 75//2 79//2 80//2
f 232//1 88//1 84//1 238//1
f 88//1 2//1 193//1 195//1
f 93//2 90//2 85//2 92//2
f 90//2 148//2 147//2 85//2
f 92//45 95//45 98//45 91//45
f 171//46 92//46 91//46 169//46
f 172//2 93//2 92//2 171//2
f 87//1 94//1 91//1 83//1
f 98//1 102//1 101//1 97//1
f 85//2 96//2 95//2 92//2
f 91//1 98//1 97//1 83//1
f 83//47 97//47 96//47 85//47
f 100//2 104//2 103//2 99//2
f 96//2 100//2 99//2 95//2
f 95//48 99//48 102//48 98//48
f 97//49 101//49 100//49 96//49
f 103//50 107//50 110//50 106//50
f 99//51 103//51 106//51 102//51
f 101//52 105//52 104//52 100//52
f 102//1 106//1 105//1 101//1
f 110//1 114//1 113//1 109//1
f 105//53 109//53 108//53 104//53
f 106//1 110//1 109//1 105//1
f 104//2 108//2 107//2 103//2
f 111//54 115//54 118//54 114//54
f 108//2 112//2 111//2 107//2
f 107//55 111//55 114//55 110//55
f 109//56 113//56 112//56 108//56
f 117//57 121//57 120//57 116//57
f 113//58 117//58 116//58 112//58
f 114//1 118//1 117//1 113//1
f 112//2 116//2 115//2 111//2
f 122//1 126//1 125//1 121//1
f 118//1 122//1 121//1 117//1
f 116//2 120//2 119//2 115//2
f 115//59 119//59 122//59 118//59
f 123//60 124//60 125//60 126//60
f 120//2 124//2 123//2 119//2
f 122//1 127//1 129//1 143//1
f 121//61 125//61 124//61 120//61
f 127//1 131//1 133//1 129//1
f 143//62 129//62 130//62 144//62
f 119//63 128//63 127//63 122//63
f 144//2 130//2 128//2 119//2
f 131//1 135//1 137//1 133//1
f 128//64 132//64 131//64 127//64
f 130//2 134//2 132//2 128//2
f 129//65 133//65 134//65 130//65
f 138//2 142//2 140//2 136//2
f 132//66 136//66 135//66 131//66
f 134//2 138//2 136//2 132//2
f 133//67 137//67 138//67 134//67
f 137//68 141//68 142//68 138//68
f 135//1 139//1 141//1 137//1
f 136//69 140//69 139//69 135//69
f 123//2 144//2 119//2
f 126//70 143//70 144//70 123//70
f 122//1 143//1 126//1
f 148//2 152//2 151//2 147//2
f 85//71 147//71 146//71 83//71
f 83//1 146//1 145//1 87//1
f 151//72 155//72 154//72 150//72
f 146//1 150//1 149//1 145//1
f 147//73 151//73 150//73 146//73
f 156//2 160//2 159//2 155//2
f 152//2 156//2 155//2 151//2
f 150//1 154//1 153//1 149//1
f 159//74 163//74 162//74 158//74
f 154//1 158//1 157//1 153//1
f 155//75 159//75 158//75 154//75
f 164//2 168//2 167//2 163//2
f 160//2 164//2 163//2 159//2
f 158//1 162//1 161//1 157//1
f 168//76 165//76 166//76 167//76
f 162//1 166//1 165//1 161//1
f 163//77 167//77 166//77 162//77
f 176//2 172//2 171//2 175//2
f 175//78 171//78 169//78 173//78
f 94//1 170//1 169//1 91//1
f 179//79 181//79 184//79 177//79
f 180//2 176//2 175//2 179//2
f 170//1 174//1 173//1 169//1
f 236//2 180//2 179//2 240//2
f 240//80 179//80 177//80 237//80
f 174//1 178//1 177//1 173//1
f 182//2 186//2 185//2 181//2
f 173//81 183//81 182//81 175//81
f 175//2 182//2 181//2 179//2
f 177//1 184//1 183//1 173//1
f 185//82 189//82 192//82 188//82
f 181//83 185//83 188//83 184//83
f 183//84 187//84 186//84 182//84
f 184//1 188//1 187//1 183//1
f 189//85 190//85 191//85 192//85
f 187//86 191//86 190//86 186//86
f 188//1 192//1 191//1 187//1
f 186//2 190//2 189//2 185//2
f 194//2 196//2 202//2 200//2
f 198//73 197//73 203//73 204//73
f 4//2 89//2 196//2 194//2
f 89//2 86//2 198//2 196//2
f 2//87 4//87 194//87 193//87
f 86//88 84//88 197//88 198//88
f 202//2 204//2 210//2 208//2
f 201//1 199//1 205//1 207//1
f 193//31 194//31 200//31 199//31
f 197//1 195//1 201//1 203//1
f 195//1 193//1 199//1 201//1
f 196//2 198//2 204//2 202//2
f 205//89 206//89 212//89 211//89
f 206//2 208//2 214//2 212//2
f 204//90 203//90 209//90 210//90
f 200//2 202//2 208//2 206//2
f 199//91 200//91 206//91 205//91
f 203//1 201//1 207//1 209//1
f 214//2 216//2 222//2 220//2
f 213//1 211//1 217//1 219//1
f 209//1 207//1 213//1 215//1
f 207//1 205//1 211//1 213//1
f 208//2 210//2 216//2 214//2
f 210//92 209//92 215//92 216//92
f 221//1 219//1 225//1 227//1
f 217//93 218//93 224//93 223//93
f 216//94 215//94 221//94 222//94
f 212//2 214//2 220//2 218//2
f 211//95 212//95 218//95 217//95
f 215//1 213//1 219//1 221//1
f 225//96 223//96 224//96 226//96
f 225//96 226//96 228//96 227//96
f 219//1 217//1 223//1 225//1
f 220//2 222//2 228//2 226//2
f 222//97 221//97 227//97 228//97
f 218//2 220//2 226//2 224//2
f 86//98 239//98 238//98 84//98
f 266//1 238//1 242//1 270//1
f 89//2 235//2 239//2 86//2
f 264//2 236//2 240//2 268//2
f 178//1 231//1 237//1 177//1
f 260//1 232//1 238//1 266//1
f 4//99 2//99 230//99 233//99
f 262//100 257//100 229//100 234//100
f 89//2 4//2 233//2 235//2
f 264//2 262//2 234//2 236//2
f 178//1 69//1 229//1 231//1
f 260//1 258//1 230//1 232//1
f 244//31 241//31 252//31 251//31
f 238//101 239//101 243//101 242//101
f 240//102 237//102 241//102 244//102
f 268//2 240//2 244//2 272//2
f 276//103 248//103 245//103 273//103
f 312//104 291//104 248//104 276//104
f 293//105 247//105 253//105 301//105
f 308//106 295//106 246//106 274//106
f 299//107 298//107 256//107 255//107
f 303//108 301//108 253//108 254//108
f 290//109 245//109 256//109 298//109
f 248//110 255//110 283//110 279//110
f 296//111 242//111 250//111 304//111
f 292//112 244//112 251//112 300//112
f 242//31 243//31 249//31 250//31
f 253//113 247//113 277//113 281//113
f 290//106 306//106 273//106 245//106
f 306//106 308//106 274//106 273//106
f 293//104 310//104 275//104 247//104
f 310//104 312//104 276//104 275//104
f 247//103 275//103 274//103 246//103
f 275//2 276//2 288//2 287//2
f 239//2 267//2 271//2 243//2
f 267//2 268//2 272//2 271//2
f 231//1 229//1 257//1 259//1
f 259//1 257//1 258//1 260//1
f 235//2 233//2 261//2 263//2
f 263//2 261//2 262//2 264//2
f 233//100 230//100 258//100 261//100
f 261//100 258//100 257//100 262//100
f 231//1 259//1 265//1 237//1
f 259//1 260//1 266//1 265//1
f 235//2 263//2 267//2 239//2
f 263//2 264//2 268//2 267//2
f 237//1 265//1 269//1 241//1
f 265//1 266//1 270//1 269//1
f 277//73 278//73 282//73 281//73
f 280//73 279//73 283//73 284//73
f 287//103 288//103 285//103 286//103
f 245//114 248//114 279//114 280//114
f 256//115 245//115 280//115 284//115
f 254//114 253//114 281//114 282//114
f 273//1 274//1 286//1 285//1
f 274//114 275//114 287//114 286//114
f 246//116 254//116 282//116 278//116
f 255//117 256//117 284//117 283//117
f 276//117 273//117 285//117 288//117
f 247//117 246//117 278//117 277//117
f 271//118 272//118 311//118 309//118
f 334//119 336//119 312//119 310//119
f 243//118 271//118 309//118 294//118
f 317//119 334//119 310//119 293//119
f 269//120 270//120 307//120 305//120
f 330//121 332//121 308//121 306//121
f 241//120 269//120 305//120 289//120
f 314//121 330//121 306//121 290//121
f 248//122 291//122 299//122 255//122
f 316//123 292//123 300//123 324//123
f 246//124 295//124 303//124 254//124
f 320//125 296//125 304//125 328//125
f 241//126 289//126 297//126 252//126
f 314//127 290//127 298//127 322//127
f 250//128 249//128 302//128 304//128
f 327//129 325//129 301//129 303//129
f 251//130 252//130 297//130 300//130
f 323//131 322//131 298//131 299//131
f 270//120 242//120 296//120 307//120
f 332//121 319//121 295//121 308//121
f 243//132 294//132 302//132 249//132
f 317//133 293//133 301//133 325//133
f 272//118 244//118 292//118 311//118
f 336//119 315//119 291//119 312//119
f 311//119 292//119 316//119 335//119
f 335//119 316//119 315//119 336//119
f 294//134 318//134 326//134 302//134
f 318//135 317//135 325//135 326//135
f 307//121 296//121 320//121 331//121
f 331//121 320//121 319//121 332//121
f 300//136 297//136 321//136 324//136
f 324//102 321//102 322//102 323//102
f 304//137 302//137 326//137 328//137
f 328//101 326//101 325//101 327//101
f 289//138 313//138 321//138 297//138
f 313//139 314//139 322//139 321//139
f 295//140 319//140 327//140 303//140
f 319//141 320//141 328//141 327//141
f 291//142 315//142 323//142 299//142
f 315//143 316//143 324//143 323//143
f 289//121 305//121 329//121 313//121
f 313//121 329//121 330//121 314//121
f 305//121 307//121 331//121 329//121
f 329//121 331//121 332//121 330//121
f 294//119 309//119 333//119 318//119
f 318//119 333//119 334//119 317//119
f 309//119 311//119 335//119 333//119
f 333//119 335//119 336//119 334//119
