# Blender v2.79 (sub 0) OBJ File: 'Ladder_long.blend'
# www.blender.org
mtllib Ladder_long.mtl
o Ladder_long_Cylinder.000
v -0.316525 -0.013533 0.107963
v -0.316525 7.294852 0.014092
v -0.316525 -0.015101 -0.014093
v -0.316525 7.293284 -0.107963
v -0.255942 -0.013533 0.107963
v -0.255942 7.294852 0.014092
v -0.255942 -0.015101 -0.014093
v -0.255942 7.293284 -0.107963
v -0.316525 0.388428 0.102800
v -0.316525 0.461512 0.101861
v -0.316525 0.973098 0.095290
v -0.316525 1.046182 0.094352
v -0.316525 1.557769 0.087780
v -0.316525 1.630853 0.086842
v -0.316525 2.142440 0.080271
v -0.316525 2.215524 0.079332
v -0.316525 2.727111 0.072762
v -0.316525 2.800195 0.071823
v -0.300750 3.311782 0.065252
v -0.316525 3.384866 0.064313
v -0.316525 3.896453 0.057742
v -0.316525 3.969537 0.056804
v -0.316525 4.481124 0.050232
v -0.316525 4.554208 0.049294
v -0.316525 5.065795 0.042723
v -0.316525 5.138879 0.041784
v -0.316525 5.650466 0.035213
v -0.316525 5.723550 0.034275
v -0.316525 6.235137 0.027704
v -0.316525 6.308220 0.026765
v -0.316525 6.819807 0.020194
v -0.316525 6.892891 0.019255
v -0.316525 6.891324 -0.102800
v -0.316525 6.818239 -0.101861
v -0.316525 6.306653 -0.095291
v -0.316525 6.233569 -0.094352
v -0.316525 5.721982 -0.087781
v -0.316525 5.648898 -0.086843
v -0.316525 5.137311 -0.080272
v -0.316525 5.064227 -0.079333
v -0.316525 4.552640 -0.072762
v -0.316525 4.479556 -0.071823
v -0.316525 3.967969 -0.065252
v -0.316525 3.894885 -0.064313
v -0.316525 3.383298 -0.057743
v -0.300750 3.310214 -0.056804
v -0.316525 2.798627 -0.050233
v -0.316525 2.725543 -0.049294
v -0.316525 2.213956 -0.042723
v -0.316525 2.140872 -0.041785
v -0.316525 1.629285 -0.035213
v -0.316525 1.556201 -0.034275
v -0.316525 1.044614 -0.027704
v -0.316525 0.971531 -0.026765
v -0.316525 0.459944 -0.020195
v -0.316525 0.386860 -0.019256
v -0.255942 6.891324 -0.102800
v -0.255942 6.818239 -0.101861
v -0.255942 6.306653 -0.095291
v -0.255942 6.233569 -0.094352
v -0.255942 5.721982 -0.087781
v -0.255942 5.648898 -0.086843
v -0.255942 5.137311 -0.080272
v -0.255942 5.064227 -0.079333
v -0.255942 4.552640 -0.072762
v -0.255942 4.479556 -0.071823
v -0.255942 3.967969 -0.065252
v -0.255942 3.894885 -0.064313
v -0.255942 3.383298 -0.057743
v -0.255942 3.310214 -0.056804
v -0.255942 2.798627 -0.050233
v -0.255942 2.725543 -0.049294
v -0.255942 2.213956 -0.042723
v -0.255942 2.140872 -0.041785
v -0.255942 1.629285 -0.035213
v -0.255942 1.556201 -0.034275
v -0.255942 1.044614 -0.027704
v -0.255942 0.971531 -0.026765
v -0.255942 0.459944 -0.020195
v -0.255942 0.386860 -0.019256
v -0.255942 6.892891 0.019255
v -0.255942 6.819807 0.020194
v -0.255942 6.308221 0.026765
v -0.255942 6.235137 0.027704
v -0.255942 5.723550 0.034275
v -0.255942 5.650466 0.035213
v -0.255942 5.138879 0.041784
v -0.255942 5.065795 0.042723
v -0.255942 4.554208 0.049294
v -0.255942 4.481124 0.050232
v -0.255942 3.969537 0.056803
v -0.255942 3.896453 0.057742
v -0.255942 3.384866 0.064313
v -0.255942 3.311782 0.065252
v -0.255942 2.800195 0.071823
v -0.255942 2.727111 0.072762
v -0.255942 2.215524 0.079332
v -0.255942 2.142440 0.080271
v -0.255942 1.630853 0.086842
v -0.255942 1.557769 0.087780
v -0.255942 1.046182 0.094352
v -0.255942 0.973098 0.095290
v -0.255942 0.461512 0.101861
v -0.255942 0.388428 0.102800
v 0.316525 -0.013533 0.107963
v 0.316525 7.294852 0.014092
v 0.316525 -0.015101 -0.014093
v 0.316525 7.293284 -0.107963
v 0.255942 -0.013533 0.107963
v 0.255942 7.294852 0.014092
v 0.255942 -0.015101 -0.014093
v 0.255942 7.293284 -0.107963
v 0.316525 0.388428 0.102800
v 0.316525 0.461512 0.101861
v 0.316525 0.973098 0.095290
v 0.316525 1.046182 0.094352
v 0.316525 1.557769 0.087780
v 0.316525 1.630853 0.086842
v 0.316525 2.142440 0.080271
v 0.316525 2.215524 0.079332
v 0.316525 2.727111 0.072762
v 0.316525 2.800195 0.071823
v 0.316525 3.311782 0.065252
v 0.316525 3.384866 0.064313
v 0.316525 3.896453 0.057742
v 0.316525 3.969537 0.056803
v 0.316525 4.481124 0.050232
v 0.316525 4.554208 0.049294
v 0.316525 5.065795 0.042723
v 0.316525 5.138879 0.041784
v 0.316525 5.650466 0.035213
v 0.316525 5.723550 0.034275
v 0.316525 6.235137 0.027704
v 0.316525 6.308220 0.026765
v 0.316525 6.819807 0.020194
v 0.316525 6.892891 0.019255
v 0.316525 6.891324 -0.102800
v 0.316525 6.818239 -0.101861
v 0.316525 6.306653 -0.095291
v 0.316525 6.233569 -0.094352
v 0.316525 5.721982 -0.087781
v 0.316525 5.648898 -0.086843
v 0.316525 5.137311 -0.080272
v 0.316525 5.064227 -0.079333
v 0.316525 4.552640 -0.072762
v 0.316525 4.479556 -0.071823
v 0.316525 3.967969 -0.065252
v 0.316525 3.894885 -0.064313
v 0.316525 3.383298 -0.057743
v 0.316525 3.310214 -0.056804
v 0.316525 2.798627 -0.050233
v 0.316525 2.725543 -0.049294
v 0.316525 2.213956 -0.042723
v 0.316525 2.140872 -0.041785
v 0.316525 1.629285 -0.035213
v 0.316525 1.556201 -0.034275
v 0.316525 1.044614 -0.027704
v 0.316525 0.971531 -0.026765
v 0.316525 0.459944 -0.020195
v 0.316525 0.386860 -0.019256
v 0.255942 6.891324 -0.102800
v 0.255942 6.818239 -0.101861
v 0.255942 6.306653 -0.095291
v 0.255942 6.233569 -0.094352
v 0.255942 5.721982 -0.087781
v 0.255942 5.648898 -0.086843
v 0.255942 5.137311 -0.080272
v 0.255942 5.064227 -0.079333
v 0.255942 4.552640 -0.072762
v 0.255942 4.479556 -0.071823
v 0.255942 3.967969 -0.065252
v 0.255942 3.894885 -0.064313
v 0.255942 3.383298 -0.057743
v 0.255942 3.310214 -0.056804
v 0.255942 2.798627 -0.050233
v 0.255942 2.725543 -0.049294
v 0.255942 2.213956 -0.042723
v 0.255942 2.140872 -0.041785
v 0.255942 1.629285 -0.035213
v 0.255942 1.556201 -0.034275
v 0.255942 1.044614 -0.027704
v 0.255942 0.971531 -0.026765
v 0.255942 0.459944 -0.020195
v 0.255942 0.386860 -0.019256
v 0.255942 6.892891 0.019255
v 0.255942 6.819807 0.020194
v 0.255942 6.308221 0.026765
v 0.255942 6.235137 0.027704
v 0.255942 5.723550 0.034275
v 0.255942 5.650466 0.035213
v 0.255942 5.138879 0.041784
v 0.255942 5.065795 0.042723
v 0.255942 4.554208 0.049294
v 0.255942 4.481124 0.050232
v 0.255942 3.969537 0.056803
v 0.255942 3.896453 0.057742
v 0.255942 3.384866 0.064313
v 0.255942 3.311782 0.065252
v 0.255942 2.800195 0.071823
v 0.255942 2.727111 0.072762
v 0.255942 2.215524 0.079332
v 0.255942 2.142440 0.080271
v 0.255942 1.630853 0.086842
v 0.255942 1.557769 0.087780
v 0.255942 1.046182 0.094352
v 0.255942 0.973098 0.095290
v 0.255942 0.461512 0.101861
v 0.255942 0.388428 0.102800
v 0.316525 4.199122 0.055161
v 0.294616 4.224703 0.053518
v 0.316525 4.250284 0.051875
v 0.316525 4.249970 -0.070180
v 0.294616 4.224390 -0.068538
v 0.316525 4.198809 -0.066895
v 0.263245 4.249970 -0.070180
v 0.255942 4.224390 -0.068538
v 0.255942 4.198809 -0.066895
v 0.263245 4.250284 0.051875
v 0.255942 4.224703 0.053518
v 0.255942 4.199122 0.055161
v -0.307762 3.640659 0.061028
v -0.307762 3.639091 -0.061028
v -0.255942 3.639091 -0.061028
v -0.255942 3.640659 0.061028
v 0.316525 1.979107 0.085199
v 0.298998 2.024609 0.083556
v 0.316525 2.070110 0.081914
v 0.316525 2.069553 -0.040142
v 0.298998 2.024051 -0.038499
v 0.316525 1.978549 -0.036856
v 0.264705 2.069553 -0.040142
v 0.255942 2.024051 -0.038499
v 0.255942 1.978549 -0.036856
v 0.264705 2.070110 0.081914
v 0.255942 2.024609 0.083556
v 0.255942 1.979107 0.085199
v -0.300297 0.932496 0.095812
v -0.300297 0.930928 -0.026244
v -0.255942 0.930928 -0.026244
v -0.255942 0.932496 0.095812
v 0.316525 1.535844 0.088062
v 0.316525 1.534276 -0.033993
v 0.271438 1.534276 -0.033993
v 0.271438 1.535844 0.088062
v 0.293389 1.434083 -0.033571
v 0.255942 1.501389 -0.033571
v 0.255942 1.502956 0.088485
v 0.293389 1.435651 0.088485
v -0.315065 5.861193 0.028154
v -0.315065 5.859625 -0.093901
v -0.255942 5.859625 -0.093901
v -0.255942 5.861193 0.028154
v -0.293155 5.764616 -0.092681
v -0.255942 5.764616 -0.092681
v -0.255942 5.766184 0.029375
v -0.293155 5.766184 0.029375
v -0.315202 5.896250 0.028112
v -0.315202 5.894682 -0.093943
v -0.274929 5.894682 -0.093943
v -0.274929 5.896250 0.028112
v -0.303619 5.961980 0.028080
v -0.303619 5.960412 -0.093975
v -0.255942 5.920975 -0.093975
v -0.255942 5.922543 0.028080
v 0.316525 5.357804 0.040142
v 0.297537 5.397032 0.038499
v 0.316525 5.430418 0.036856
v 0.316525 5.429973 -0.085200
v 0.297537 5.396587 -0.083557
v 0.316525 5.357359 -0.081914
v 0.255942 5.429973 -0.085200
v 0.255942 5.393666 -0.083557
v 0.255942 5.357359 -0.081914
v 0.255942 5.430418 0.036856
v 0.255942 5.394111 0.038499
v 0.255942 5.357804 0.040142
v 0.294616 5.318702 -0.081626
v 0.261785 5.318702 -0.081626
v 0.261785 5.319344 0.040430
v 0.294616 5.319344 0.040430
v 0.316525 5.293426 -0.081437
v 0.267627 5.243765 -0.081437
v 0.267627 5.244536 0.040619
v 0.316525 5.294197 0.040619
vn -1.0000 0.0000 0.0000
vn 0.0000 -0.0128 -0.9999
vn 1.0000 -0.0000 0.0000
vn 0.0000 0.0128 0.9999
vn 0.0000 -0.9999 0.0128
vn 0.0000 0.9999 -0.0128
vn 0.0005 0.0013 1.0000
vn -0.0005 -0.0013 -1.0000
vn -0.9286 -0.3711 0.0048
vn -0.9995 0.0308 -0.0004
vn -0.9775 -0.2110 0.0027
vn -0.9994 -0.0342 0.0004
vn -0.9989 -0.0472 0.0006
vn 0.0000 0.0227 0.9997
vn 0.0000 0.0071 1.0000
vn 0.0000 0.0075 1.0000
vn -0.8166 -0.5771 0.0074
vn -0.9926 -0.1211 0.0011
vn -0.9995 -0.0317 0.0002
vn 0.0000 -0.0230 -0.9997
vn 0.0000 -0.0072 -1.0000
vn 0.0000 -0.0075 -1.0000
vn 0.7596 0.6504 -0.0017
vn 0.7596 -0.6504 0.0017
vn 0.0000 -0.0071 -1.0000
vn 0.0000 -0.0641 -0.9979
vn -0.9616 0.2745 -0.0007
vn 0.0000 0.0072 1.0000
vn 0.0000 0.0641 0.9979
vn -0.9994 0.0342 -0.0004
vn 0.9332 0.3594 -0.0016
vn 0.9332 -0.3594 0.0016
vn 0.0000 -0.0047 -1.0000
vn 0.0000 -0.0361 -0.9993
vn -0.9820 0.1891 -0.0009
vn 0.0000 0.0047 1.0000
vn 0.0000 0.0361 0.9993
vn -0.9994 0.0344 -0.0004
vn 0.9744 -0.2250 0.0029
vn -0.0042 -0.0051 -1.0000
vn -0.9046 0.4262 -0.0055
vn 0.0042 0.0051 1.0000
vn 0.0097 0.0141 0.9999
vn -0.0097 -0.0141 -0.9999
vn 0.9982 0.0593 -0.0008
vn -0.9744 -0.2247 0.0029
vn 0.0000 0.1142 0.9935
vn 0.0000 -0.1142 -0.9935
vn -0.8772 0.4801 -0.0062
vn -1.0000 -0.0039 0.0001
vn 0.0000 -0.0012 -1.0000
vn 0.8793 0.4762 -0.0061
vn 0.0000 0.0012 1.0000
vn -0.9848 0.1735 -0.0022
vn -0.0003 -0.0006 -1.0000
vn 0.8107 -0.5854 0.0075
vn 0.0003 0.0006 1.0000
vn 0.8694 -0.4940 0.0022
vn 0.9001 0.4356 -0.0016
vn 0.8693 -0.4943 0.0018
vn 0.0012 -0.0431 -0.9991
vn 0.0014 -0.0475 -0.9989
vn -0.9887 -0.1498 0.0007
vn -0.0012 0.0431 0.9991
vn -0.0014 0.0475 0.9989
vn -0.0020 0.0032 1.0000
vn -0.9970 -0.0778 0.0004
vn 0.0020 -0.0032 -1.0000
vn 0.7548 0.6559 -0.0038
vn 0.0041 -0.0091 -1.0000
vn -0.9940 0.1095 -0.0011
vn -0.0041 0.0091 0.9999
usemtl Brown
s off
f 32//1 2//1 4//1 33//1
f 33//2 4//2 8//2 57//2
f 57//3 8//3 6//3 81//3
f 81//4 6//4 2//4 32//4
f 3//5 7//5 5//5 1//5
f 8//6 4//6 2//6 6//6
f 5//4 104//4 9//4 1//4
f 104//4 103//4 10//4 9//4
f 240//4 102//4 11//4 237//4
f 102//4 101//4 12//4 11//4
f 101//4 100//4 13//4 12//4
f 100//4 99//4 14//4 13//4
f 99//4 98//4 15//4 14//4
f 98//4 97//4 16//4 15//4
f 97//4 96//4 17//4 16//4
f 96//4 95//4 18//4 17//4
f 95//4 94//4 19//4 18//4
f 94//4 93//4 20//4 19//4
f 224//4 92//4 21//4 221//4
f 92//4 91//4 22//4 21//4
f 91//4 90//4 23//4 22//4
f 90//4 89//4 24//4 23//4
f 89//4 88//4 25//4 24//4
f 88//4 87//4 26//4 25//4
f 87//4 86//4 27//4 26//4
f 86//4 85//4 28//4 27//4
f 264//7 84//7 29//7 261//7
f 84//4 83//4 30//4 29//4
f 83//4 82//4 31//4 30//4
f 82//4 81//4 32//4 31//4
f 7//3 80//3 104//3 5//3
f 196//5 92//5 68//5 172//5
f 239//3 78//3 102//3 240//3
f 191//4 87//4 88//4 192//4
f 77//3 76//3 100//3 101//3
f 178//2 74//2 73//2 177//2
f 75//3 74//3 98//3 99//3
f 173//6 69//6 93//6 197//6
f 73//3 72//3 96//3 97//3
f 71//3 70//3 94//3 95//3
f 164//2 60//2 59//2 163//2
f 223//3 68//3 92//3 224//3
f 203//4 99//4 100//4 204//4
f 67//3 66//3 90//3 91//3
f 198//5 94//5 70//5 174//5
f 65//3 64//3 88//3 89//3
f 189//4 85//4 86//4 190//4
f 63//3 62//3 86//3 87//3
f 161//6 57//6 81//6 185//6
f 263//3 60//3 84//3 264//3
f 176//2 72//2 71//2 175//2
f 59//3 58//3 82//3 83//3
f 175//6 71//6 95//6 199//6
f 3//2 56//2 80//2 7//2
f 56//2 55//2 79//2 80//2
f 238//2 54//2 78//2 239//2
f 54//2 53//2 77//2 78//2
f 53//2 52//2 76//2 77//2
f 52//2 51//2 75//2 76//2
f 51//2 50//2 74//2 75//2
f 50//2 49//2 73//2 74//2
f 49//2 48//2 72//2 73//2
f 48//2 47//2 71//2 72//2
f 47//2 46//2 70//2 71//2
f 46//2 45//2 69//2 70//2
f 222//2 44//2 68//2 223//2
f 44//2 43//2 67//2 68//2
f 43//2 42//2 66//2 67//2
f 42//2 41//2 65//2 66//2
f 41//2 40//2 64//2 65//2
f 40//2 39//2 63//2 64//2
f 39//2 38//2 62//2 63//2
f 38//2 37//2 61//2 62//2
f 262//8 36//8 60//8 263//8
f 36//2 35//2 59//2 60//2
f 35//2 34//2 58//2 59//2
f 34//2 33//2 57//2 58//2
f 1//1 9//1 56//1 3//1
f 9//1 10//1 55//1 56//1
f 237//9 11//9 54//9 238//9
f 11//1 12//1 53//1 54//1
f 12//1 13//1 52//1 53//1
f 13//1 14//1 51//1 52//1
f 14//1 15//1 50//1 51//1
f 15//1 16//1 49//1 50//1
f 16//1 17//1 48//1 49//1
f 17//1 18//1 47//1 48//1
f 18//10 19//10 46//10 47//10
f 19//11 20//11 45//11 46//11
f 221//12 21//12 44//12 222//12
f 21//1 22//1 43//1 44//1
f 22//1 23//1 42//1 43//1
f 23//1 24//1 41//1 42//1
f 24//1 25//1 40//1 41//1
f 25//1 26//1 39//1 40//1
f 26//1 27//1 38//1 39//1
f 27//1 28//1 37//1 38//1
f 261//13 29//13 36//13 262//13
f 29//1 30//1 35//1 36//1
f 30//1 31//1 34//1 35//1
f 31//1 32//1 33//1 34//1
f 205//4 101//4 102//4 206//4
f 166//2 62//2 61//2 165//2
f 171//6 67//6 91//6 195//6
f 180//2 76//2 75//2 179//2
f 193//4 89//4 90//4 194//4
f 194//5 90//5 66//5 170//5
f 207//4 103//4 104//4 208//4
f 183//6 79//6 103//6 207//6
f 168//2 64//2 63//2 167//2
f 169//6 65//6 89//6 193//6
f 182//2 78//2 77//2 181//2
f 206//5 102//5 78//5 182//5
f 195//4 91//4 92//4 196//4
f 192//5 88//5 64//5 168//5
f 208//5 104//5 80//5 184//5
f 181//6 77//6 101//6 205//6
f 170//2 66//2 65//2 169//2
f 167//6 63//6 87//6 191//6
f 184//2 80//2 79//2 183//2
f 204//5 100//5 76//5 180//5
f 197//4 93//4 94//4 198//4
f 190//5 86//5 62//5 166//5
f 179//6 75//6 99//6 203//6
f 172//2 68//2 67//2 171//2
f 165//6 61//6 85//6 189//6
f 185//4 81//4 82//4 186//4
f 202//5 98//5 74//5 178//5
f 199//4 95//4 96//4 200//4
f 188//5 84//5 60//5 164//5
f 177//6 73//6 97//6 201//6
f 174//2 70//2 69//2 173//2
f 163//6 59//6 83//6 187//6
f 187//4 83//4 84//4 188//4
f 200//5 96//5 72//5 176//5
f 201//4 97//4 98//4 202//4
f 186//5 82//5 58//5 162//5
f 136//3 137//3 108//3 106//3
f 137//2 161//2 112//2 108//2
f 161//1 185//1 110//1 112//1
f 185//4 136//4 106//4 110//4
f 107//5 105//5 109//5 111//5
f 112//6 110//6 106//6 108//6
f 109//4 105//4 113//4 208//4
f 208//4 113//4 114//4 207//4
f 207//4 114//4 115//4 206//4
f 206//4 115//4 116//4 205//4
f 244//4 241//4 117//4 204//4
f 204//4 117//4 118//4 203//4
f 234//14 227//14 119//14 202//14
f 202//4 119//4 120//4 201//4
f 201//4 120//4 121//4 200//4
f 200//4 121//4 122//4 199//4
f 199//4 122//4 123//4 198//4
f 198//4 123//4 124//4 197//4
f 197//4 124//4 125//4 196//4
f 196//4 125//4 126//4 195//4
f 218//15 211//15 127//15 194//15
f 194//4 127//4 128//4 193//4
f 193//4 128//4 129//4 192//4
f 192//4 129//4 130//4 191//4
f 274//16 267//16 131//16 190//16
f 190//4 131//4 132//4 189//4
f 189//4 132//4 133//4 188//4
f 188//4 133//4 134//4 187//4
f 187//4 134//4 135//4 186//4
f 186//4 135//4 136//4 185//4
f 111//1 109//1 208//1 184//1
f 183//1 207//1 206//1 182//1
f 243//17 244//17 204//17 180//17
f 231//18 234//18 202//18 178//18
f 177//1 201//1 200//1 176//1
f 175//1 199//1 198//1 174//1
f 173//1 197//1 196//1 172//1
f 215//19 218//19 194//19 170//19
f 169//1 193//1 192//1 168//1
f 271//1 274//1 190//1 166//1
f 165//1 189//1 188//1 164//1
f 163//1 187//1 186//1 162//1
f 107//2 111//2 184//2 160//2
f 160//2 184//2 183//2 159//2
f 159//2 183//2 182//2 158//2
f 158//2 182//2 181//2 157//2
f 242//2 243//2 180//2 156//2
f 156//2 180//2 179//2 155//2
f 228//20 231//20 178//20 154//20
f 154//2 178//2 177//2 153//2
f 153//2 177//2 176//2 152//2
f 152//2 176//2 175//2 151//2
f 151//2 175//2 174//2 150//2
f 150//2 174//2 173//2 149//2
f 149//2 173//2 172//2 148//2
f 148//2 172//2 171//2 147//2
f 212//21 215//21 170//21 146//21
f 146//2 170//2 169//2 145//2
f 145//2 169//2 168//2 144//2
f 144//2 168//2 167//2 143//2
f 268//22 271//22 166//22 142//22
f 142//2 166//2 165//2 141//2
f 141//2 165//2 164//2 140//2
f 140//2 164//2 163//2 139//2
f 139//2 163//2 162//2 138//2
f 138//2 162//2 161//2 137//2
f 105//3 107//3 160//3 113//3
f 113//3 160//3 159//3 114//3
f 114//3 159//3 158//3 115//3
f 115//3 158//3 157//3 116//3
f 241//3 242//3 156//3 117//3
f 117//3 156//3 155//3 118//3
f 227//3 228//3 154//3 119//3
f 119//3 154//3 153//3 120//3
f 120//3 153//3 152//3 121//3
f 121//3 152//3 151//3 122//3
f 122//3 151//3 150//3 123//3
f 123//3 150//3 149//3 124//3
f 124//3 149//3 148//3 125//3
f 125//3 148//3 147//3 126//3
f 211//3 212//3 146//3 127//3
f 127//3 146//3 145//3 128//3
f 128//3 145//3 144//3 129//3
f 129//3 144//3 143//3 130//3
f 267//3 268//3 142//3 131//3
f 131//3 142//3 141//3 132//3
f 132//3 141//3 140//3 133//3
f 133//3 140//3 139//3 134//3
f 134//3 139//3 138//3 135//3
f 135//3 138//3 137//3 136//3
f 162//2 58//2 57//2 161//2
f 126//3 147//3 214//3 209//3
f 209//23 214//23 213//23 210//23
f 210//24 213//24 212//24 211//24
f 147//25 171//25 217//25 214//25
f 214//26 217//26 216//26 213//26
f 213//26 216//26 215//26 212//26
f 171//1 195//1 220//1 217//1
f 217//1 220//1 219//1 216//1
f 216//27 219//27 218//27 215//27
f 195//28 126//28 209//28 220//28
f 220//29 209//29 210//29 219//29
f 219//29 210//29 211//29 218//29
f 20//30 221//30 222//30 45//30
f 45//2 222//2 223//2 69//2
f 69//3 223//3 224//3 93//3
f 93//4 224//4 221//4 20//4
f 118//3 155//3 230//3 225//3
f 225//31 230//31 229//31 226//31
f 226//32 229//32 228//32 227//32
f 155//33 179//33 233//33 230//33
f 230//34 233//34 232//34 229//34
f 229//34 232//34 231//34 228//34
f 179//1 203//1 236//1 233//1
f 233//1 236//1 235//1 232//1
f 232//35 235//35 234//35 231//35
f 203//36 118//36 225//36 236//36
f 236//37 225//37 226//37 235//37
f 235//37 226//37 227//37 234//37
f 10//38 237//38 238//38 55//38
f 55//2 238//2 239//2 79//2
f 79//3 239//3 240//3 103//3
f 103//4 240//4 237//4 10//4
f 248//39 245//39 242//39 241//39
f 245//40 246//40 243//40 242//40
f 246//41 247//41 244//41 243//41
f 247//42 248//42 241//42 244//42
f 205//43 116//43 248//43 247//43
f 181//1 205//1 247//1 246//1
f 157//44 181//44 246//44 245//44
f 116//45 157//45 245//45 248//45
f 256//46 249//46 250//46 253//46
f 253//2 250//2 251//2 254//2
f 254//3 251//3 252//3 255//3
f 255//4 252//4 249//4 256//4
f 85//47 255//47 256//47 28//47
f 61//3 254//3 255//3 85//3
f 37//48 253//48 254//48 61//48
f 28//49 256//49 253//49 37//49
f 249//50 257//50 258//50 250//50
f 250//51 258//51 259//51 251//51
f 251//52 259//52 260//52 252//52
f 252//53 260//53 257//53 249//53
f 257//54 261//54 262//54 258//54
f 258//55 262//55 263//55 259//55
f 259//56 263//56 264//56 260//56
f 260//57 264//57 261//57 257//57
f 280//58 277//58 270//58 265//58
f 265//59 270//59 269//59 266//59
f 266//60 269//60 268//60 267//60
f 277//22 278//22 273//22 270//22
f 270//61 273//61 272//61 269//61
f 269//62 272//62 271//62 268//62
f 278//63 279//63 276//63 273//63
f 273//1 276//1 275//1 272//1
f 272//1 275//1 274//1 271//1
f 279//16 280//16 265//16 276//16
f 276//64 265//64 266//64 275//64
f 275//65 266//65 267//65 274//65
f 283//66 284//66 280//66 279//66
f 282//67 283//67 279//67 278//67
f 281//68 282//68 278//68 277//68
f 284//69 281//69 277//69 280//69
f 130//3 143//3 281//3 284//3
f 143//70 167//70 282//70 281//70
f 167//71 191//71 283//71 282//71
f 191//72 130//72 284//72 283//72
