# Blender v2.79 (sub 0) OBJ File: 'Mushroom.blend'
# www.blender.org
mtllib Mushroom.mtl
o Mushroom_Cylinder.012
v -0.000150 -0.013102 -0.076591
v 0.000150 0.140080 -0.094894
v 0.059731 -0.013220 -0.047754
v 0.075086 0.139933 -0.058806
v 0.074521 -0.013249 0.017043
v 0.093594 0.139897 0.022281
v 0.033081 -0.013168 0.069007
v 0.041737 0.139999 0.087309
v -0.033382 -0.013037 0.069006
v -0.041436 0.140162 0.087309
v -0.074821 -0.012956 0.017043
v -0.093293 0.140264 0.022281
v -0.060032 -0.012985 -0.047754
v -0.074786 0.140227 -0.058806
v 0.052145 0.174619 -0.041914
v 0.000218 0.174721 -0.066920
v 0.064969 0.174594 0.014275
v 0.029035 0.174665 0.059335
v -0.028598 0.174778 0.059335
v -0.064533 0.174848 0.014275
v -0.051708 0.174823 -0.041914
v 0.045942 0.384893 -0.037057
v 0.000631 0.384982 -0.058877
v 0.057132 0.384871 0.011973
v 0.025777 0.384933 0.051292
v -0.024514 0.385032 0.051292
v -0.055870 0.385093 0.011973
v -0.044679 0.385071 -0.037057
v 0.072227 0.384842 -0.056354
v 0.000631 0.384982 -0.090832
v 0.089910 0.384807 0.021119
v 0.040364 0.384904 0.083248
v -0.039101 0.385060 0.083248
v -0.088647 0.385157 0.021119
v -0.070964 0.385123 -0.056354
v 0.046526 0.473970 -0.037357
v 0.000806 0.474059 -0.059375
v 0.057818 0.473947 0.012116
v 0.026179 0.474010 0.051790
v -0.024566 0.474109 0.051790
v -0.056205 0.474171 0.012116
v -0.044914 0.474149 -0.037357
v 0.283684 0.433914 -0.211522
v 0.000729 0.434470 -0.347787
v 0.353569 0.433777 0.094662
v 0.157757 0.434161 0.340202
v -0.156300 0.434778 0.340202
v -0.352112 0.435162 0.094662
v -0.282227 0.435025 -0.211522
v 0.264072 0.521908 -0.196992
v 0.000908 0.522844 -0.323726
v 0.329068 0.521677 0.087775
v 0.146953 0.522324 0.316141
v -0.145138 0.523363 0.316141
v -0.327253 0.524010 0.087775
v -0.262257 0.523779 -0.196992
v 0.172376 0.623763 -0.129594
v 0.001018 0.624373 -0.212116
v 0.214699 0.623613 0.055832
v 0.096115 0.624034 0.204531
v -0.094079 0.624711 0.204531
v -0.212663 0.625132 0.055832
v -0.170341 0.624982 -0.129594
v 0.092459 0.662726 -0.070893
v 0.001060 0.663050 -0.114908
v 0.115033 0.662645 0.028010
v 0.051782 0.662870 0.107323
v -0.049663 0.663231 0.107323
v -0.112913 0.663456 0.028010
v -0.090340 0.663375 -0.070893
v 0.001086 0.687557 0.001996
vn 0.4312 -0.1079 -0.8958
vn 0.9687 -0.1131 -0.2211
vn 0.7763 -0.1179 0.6193
vn -0.0002 -0.1186 0.9929
vn -0.7767 -0.1148 0.6193
vn 0.6142 0.6195 0.4888
vn -0.9691 -0.1093 -0.2211
vn -0.4316 -0.1062 -0.8958
vn -0.0020 -1.0000 -0.0000
vn -0.9742 0.0377 -0.2224
vn -0.7765 0.6046 -0.1775
vn 0.0012 0.6283 0.7780
vn -0.3497 0.5890 -0.7286
vn 0.7788 0.6016 -0.1775
vn -0.6118 0.6219 0.4888
vn 0.3520 0.5876 -0.7286
vn 0.0001 0.0382 0.9993
vn 0.9744 0.0339 -0.2224
vn -0.4336 0.0353 -0.9004
vn -0.7812 0.0390 0.6231
vn 0.7814 0.0359 0.6231
vn 0.4337 0.0336 -0.9004
vn 0.0007 0.3330 0.9429
vn -0.0673 -0.9885 0.1357
vn 0.9263 0.3121 -0.2113
vn -0.4129 0.3040 -0.8586
vn -0.7382 0.3286 0.5892
vn 0.7394 0.3257 0.5892
vn 0.4141 0.3024 -0.8586
vn -0.9250 0.3158 -0.2113
vn 0.1395 -0.9897 0.0323
vn -0.0019 -0.9907 -0.1360
vn -0.1434 -0.9891 0.0323
vn 0.0634 -0.9887 0.1357
vn 0.1065 -0.9906 -0.0865
vn -0.1104 -0.9901 -0.0865
vn -0.4208 0.2386 -0.8752
vn -0.6776 0.7188 -0.1552
vn -0.7550 0.2584 0.6027
vn 0.7558 0.2574 0.6021
vn 0.4220 0.2379 -0.8748
vn -0.9445 0.2477 -0.2157
vn 0.0007 0.2627 0.9649
vn 0.9449 0.2463 -0.2155
vn 0.2971 0.9256 0.2343
vn 0.0026 0.7397 0.6729
vn 0.6811 0.7156 -0.1549
vn -0.3059 0.7044 -0.6405
vn -0.5297 0.7343 0.4245
vn 0.5339 0.7318 0.4237
vn 0.3106 0.7030 -0.6398
vn -0.0949 0.9743 -0.2042
vn 0.1785 0.9142 -0.3638
vn -0.3784 0.9216 -0.0871
vn 0.0033 0.9291 0.3697
vn 0.3842 0.9191 -0.0870
vn -0.1721 0.9153 -0.3641
vn -0.2909 0.9275 0.2346
vn -0.1738 0.9746 0.1414
vn 0.1806 0.9734 0.1412
vn 0.1018 0.9736 -0.2041
vn -0.2176 0.9747 -0.0505
vn 0.0035 0.9740 0.2266
vn 0.2243 0.9732 -0.0504
usemtl White
s off
f 1//1 2//1 4//1 3//1
f 3//2 4//2 6//2 5//2
f 5//3 6//3 8//3 7//3
f 7//4 8//4 10//4 9//4
f 9//5 10//5 12//5 11//5
f 8//6 6//6 17//6 18//6
f 11//7 12//7 14//7 13//7
f 13//8 14//8 2//8 1//8
f 1//9 3//9 5//9 7//9 9//9 11//9 13//9
f 21//10 20//10 27//10 28//10
f 14//11 12//11 20//11 21//11
f 10//12 8//12 18//12 19//12
f 2//13 14//13 21//13 16//13
f 6//14 4//14 15//14 17//14
f 12//15 10//15 19//15 20//15
f 4//16 2//16 16//16 15//16
f 23//9 28//9 35//9 30//9
f 19//17 18//17 25//17 26//17
f 17//18 15//18 22//18 24//18
f 16//19 21//19 28//19 23//19
f 20//20 19//20 26//20 27//20
f 18//21 17//21 24//21 25//21
f 15//22 16//22 23//22 22//22
f 33//23 32//23 39//23 40//23
f 27//9 26//9 33//9 34//9
f 25//9 24//9 31//9 32//9
f 22//9 23//9 30//9 29//9
f 28//9 27//9 34//9 35//9
f 26//9 25//9 32//9 33//9
f 24//9 22//9 29//9 31//9
f 36//24 37//24 44//24 43//24
f 31//25 29//25 36//25 38//25
f 30//26 35//26 42//26 37//26
f 34//27 33//27 40//27 41//27
f 32//28 31//28 38//28 39//28
f 29//29 30//29 37//29 36//29
f 35//30 34//30 41//30 42//30
f 42//31 41//31 48//31 49//31
f 40//32 39//32 46//32 47//32
f 38//33 36//33 43//33 45//33
f 37//34 42//34 49//34 44//34
f 41//35 40//35 47//35 48//35
f 39//36 38//36 45//36 46//36
usemtl LightRed
f 44//37 49//37 56//37 51//37
f 56//38 55//38 62//38 63//38
f 48//39 47//39 54//39 55//39
f 46//40 45//40 52//40 53//40
f 43//41 44//41 51//41 50//41
f 49//42 48//42 55//42 56//42
f 47//43 46//43 53//43 54//43
f 45//44 43//44 50//44 52//44
f 60//45 59//45 66//45 67//45
f 54//46 53//46 60//46 61//46
f 52//47 50//47 57//47 59//47
f 51//48 56//48 63//48 58//48
f 55//49 54//49 61//49 62//49
f 53//50 52//50 59//50 60//50
f 50//51 51//51 58//51 57//51
f 65//52 70//52 71//52
f 57//53 58//53 65//53 64//53
f 63//54 62//54 69//54 70//54
f 61//55 60//55 67//55 68//55
f 59//56 57//56 64//56 66//56
f 58//57 63//57 70//57 65//57
f 62//58 61//58 68//58 69//58
f 69//59 68//59 71//59
f 67//60 66//60 71//60
f 64//61 65//61 71//61
f 70//62 69//62 71//62
f 68//63 67//63 71//63
f 66//64 64//64 71//64
