# Blender v2.79 (sub 0) OBJ File: 'Platform_CenterMiddle.blend'
# www.blender.org
mtllib Platform_CenterMiddle.mtl
o Platform_CenterMiddle_Cube.004
v -0.506900 0.999998 -1.562632
v -0.506900 0.999998 1.562632
v -0.999999 0.999998 1.562632
v -0.999999 0.999998 -1.562632
v -0.506900 -0.999998 -1.562632
v -0.506900 -0.999998 1.562632
v -0.999999 -0.999998 1.562632
v -0.999999 -0.999998 -1.562632
v 0.476907 0.999998 -1.562632
v 0.476907 0.999998 1.562632
v 0.999999 0.999998 1.562632
v -0.014996 0.999998 1.562632
v 0.999999 0.999998 -1.562632
v -0.014996 0.999998 -1.562632
v 0.476907 -0.999998 -1.562632
v 0.476907 -0.999998 1.562632
v 0.999999 -0.999998 1.562632
v -0.014996 -0.999998 1.562632
v 0.999999 -0.999998 -1.562632
v -0.014996 -0.999998 -1.562632
vn 0.0000 -0.0000 -1.0000
vn 0.0000 -0.0000 1.0000
vn 1.0000 0.0000 0.0000
vn 0.0000 1.0000 0.0000
vn 0.0000 -1.0000 0.0000
vn -1.0000 -0.0000 0.0000
usemtl LightBrown
s off
f 4//1 1//1 5//1 8//1
f 1//1 14//1 20//1 5//1
f 2//2 3//2 7//2 6//2
f 12//2 2//2 6//2 18//2
f 13//1 19//1 15//1 9//1
f 9//1 15//1 20//1 14//1
f 10//2 16//2 17//2 11//2
f 12//2 18//2 16//2 10//2
f 17//3 19//3 13//3 11//3
f 12//4 10//4 9//4 14//4
f 18//5 20//5 15//5 16//5
f 7//6 3//6 4//6 8//6
f 2//4 1//4 4//4 3//4
f 14//4 1//4 2//4 12//4
f 9//4 10//4 11//4 13//4
f 16//5 15//5 19//5 17//5
f 20//5 18//5 6//5 5//5
f 5//5 6//5 7//5 8//5
