# Blender v2.79 (sub 0) OBJ File: 'Platform_TopMiddle.blend'
# www.blender.org
mtllib Platform_TopMiddle.mtl
o Platform_TopMiddle_Cube.000
v -0.999999 -0.191306 1.638737
v -0.999999 0.972458 -0.654703
v -0.999999 0.972458 0.654703
v -0.999999 0.684040 1.527640
v -0.999999 0.137793 1.692305
v -0.999999 -0.191306 -1.638737
v -0.999999 0.137793 -1.692305
v -0.999999 0.684040 -1.527641
v -0.999999 0.305057 -1.745875
v -0.999999 0.305057 1.745875
v -0.999999 0.999998 -0.000000
v -0.999999 0.481137 1.691316
v -0.999999 0.481137 -1.691316
v -0.999999 0.864301 1.200289
v -0.999999 0.053221 1.652129
v -0.999999 0.181906 -1.732482
v -0.999999 0.864301 -1.200289
v -0.999999 0.053221 -1.652129
v -0.999999 0.181907 1.732482
v -0.506900 0.271714 1.745875
v -0.506900 0.271714 -1.745875
v -0.506900 0.684040 -1.527641
v -0.506900 0.091494 -1.692305
v -0.506900 -0.224649 -1.638737
v -0.506900 0.091493 1.692305
v -0.506900 0.684040 1.527640
v -0.506900 0.972458 0.654703
v -0.506900 0.972458 -0.654703
v -0.506900 -0.224649 1.638737
v -0.506901 0.999998 -0.000000
v -0.506900 0.472801 1.691316
v -0.506900 0.472801 -1.691316
v -0.506900 0.864301 1.200289
v -0.506900 0.015257 1.652129
v -0.506900 0.864301 -1.200289
v -0.506900 0.015257 -1.652129
v -0.506900 0.143942 -1.732482
v -0.506900 0.143942 1.732482
v -0.999999 -0.999998 1.562632
v -0.999999 -0.999998 -1.562632
v -0.506900 -0.999998 1.562632
v -0.506900 -0.999998 -1.562632
v 0.999999 -0.191306 1.638737
v 0.999999 0.972458 -0.654703
v 0.999999 0.972458 0.654703
v 0.999999 0.684040 1.527640
v 0.999999 0.137793 1.692305
v 0.999999 -0.191306 -1.638737
v 0.999999 0.137793 -1.692305
v 0.999999 0.684040 -1.527641
v 0.999999 0.305057 -1.745875
v 0.999999 0.305057 1.745875
v 0.000000 0.292618 1.745875
v 0.000000 0.292618 -1.745875
v 0.000000 0.684040 -1.527641
v 0.000000 0.112915 -1.692305
v 0.000000 -0.203745 -1.638737
v 0.000000 0.112915 1.692305
v 0.000000 0.684040 1.527640
v 0.000000 0.972458 0.654703
v 0.000000 0.972458 -0.654703
v 0.000000 -0.203745 1.638737
v 0.999999 0.999998 -0.000000
v 0.999999 0.481137 1.691316
v 0.999999 0.481137 -1.691316
v 0.999999 0.864301 1.200289
v 0.999999 0.053221 1.652129
v 0.000000 0.864301 -1.200289
v 0.000000 0.031453 -1.652129
v 0.999999 0.181906 -1.732482
v 0.000000 0.160138 1.732482
v 0.000000 0.999998 -0.000000
v 0.000000 0.478027 1.691316
v 0.000000 0.478027 -1.691316
v 0.000000 0.864301 1.200289
v 0.000000 0.031453 1.652129
v 0.999999 0.864301 -1.200289
v 0.999999 0.053221 -1.652129
v 0.000000 0.160138 -1.732482
v 0.999999 0.181907 1.732482
v 0.506901 0.271714 1.745875
v 0.506901 0.271714 -1.745875
v 0.506901 0.684040 -1.527641
v 0.506901 0.091494 -1.692305
v 0.506901 -0.224649 -1.638737
v 0.506901 0.091493 1.692305
v 0.506901 0.684040 1.527640
v 0.506901 0.972458 0.654703
v 0.506901 0.972458 -0.654703
v 0.506901 -0.224649 1.638737
v 0.506901 0.999998 -0.000000
v 0.506901 0.472801 1.691316
v 0.506901 0.472801 -1.691316
v 0.506901 0.864301 1.200289
v 0.506901 0.015257 1.652129
v 0.506901 0.864301 -1.200289
v 0.506901 0.015257 -1.652129
v 0.506901 0.143942 -1.732482
v 0.506901 0.143942 1.732482
v 0.999999 -0.999998 1.562632
v 0.999999 -0.999998 -1.562632
v 0.000000 -0.999998 -1.562632
v 0.000000 -0.999998 1.562632
v 0.506900 -0.999998 1.562632
v 0.506901 -0.999998 -1.562632
vn -0.0032 -0.0956 0.9954
vn -0.0040 -0.0552 0.9985
vn -0.0382 -0.4467 0.8939
vn -0.0032 -0.0956 -0.9954
vn -0.0040 -0.0552 -0.9985
vn -0.0382 -0.4467 -0.8939
vn 0.0168 -0.4539 -0.8909
vn 0.0020 -0.0964 -0.9953
vn 0.0021 -0.0563 -0.9984
vn 0.0168 -0.4539 0.8909
vn 0.0020 -0.0964 0.9953
vn 0.0021 -0.0563 0.9984
vn 0.0032 -0.0956 0.9954
vn 0.0040 -0.0552 0.9985
vn 0.0382 -0.4467 0.8939
vn 0.0032 -0.0956 -0.9954
vn 0.0040 -0.0552 -0.9985
vn 0.0382 -0.4467 -0.8939
vn -0.0168 -0.4539 -0.8909
vn -0.0020 -0.0964 -0.9953
vn -0.0021 -0.0563 -0.9984
vn -0.0168 -0.4539 0.8909
vn -0.0020 -0.0964 0.9953
vn -0.0021 -0.0563 0.9984
vn -1.0000 0.0000 0.0000
vn 1.0000 -0.0000 0.0000
vn 0.0000 -1.0000 0.0000
vn 0.0000 0.9991 -0.0420
vn 0.0000 0.9809 -0.1945
vn 0.0000 0.9991 0.0420
vn 0.0000 0.9809 0.1945
vn 0.0052 0.6201 0.7845
vn 0.0000 0.8760 0.4824
vn -0.0546 -0.6387 0.7675
vn -0.0546 -0.6387 -0.7675
vn 0.0052 0.6201 -0.7845
vn 0.0000 0.8760 -0.4824
vn 0.0117 0.2779 -0.9605
vn -0.0077 -0.1061 -0.9943
vn 0.0117 0.2779 0.9605
vn -0.0077 -0.1061 0.9943
vn -0.0070 0.2717 0.9624
vn 0.0037 -0.1024 0.9947
vn 0.0037 -0.1024 -0.9947
vn -0.0070 0.2717 -0.9624
vn -0.0032 0.6172 -0.7868
vn 0.0233 -0.6275 -0.7783
vn 0.0233 -0.6275 0.7783
vn -0.0032 0.6172 0.7868
vn -0.0052 0.6201 0.7845
vn 0.0546 -0.6387 0.7675
vn 0.0546 -0.6387 -0.7675
vn -0.0052 0.6201 -0.7845
vn -0.0117 0.2779 -0.9605
vn 0.0077 -0.1061 -0.9943
vn -0.0117 0.2779 0.9605
vn 0.0077 -0.1061 0.9943
vn 0.0070 0.2717 0.9624
vn -0.0037 -0.1024 0.9947
vn -0.0037 -0.1024 -0.9947
vn 0.0070 0.2717 -0.9624
vn 0.0032 0.6172 -0.7868
vn -0.0233 -0.6275 -0.7783
vn -0.0233 -0.6275 0.7783
vn 0.0032 0.6172 0.7868
usemtl LightBrown
s off
f 1//1 39//1 41//1 29//1
f 1//2 29//2 34//2 15//2
f 5//3 15//3 34//3 25//3
f 42//4 40//4 6//4 24//4
f 6//5 18//5 36//5 24//5
f 7//6 23//6 36//6 18//6
f 56//7 69//7 36//7 23//7
f 57//8 102//8 42//8 24//8
f 57//9 24//9 36//9 69//9
f 58//10 25//10 34//10 76//10
f 29//11 41//11 103//11 62//11
f 62//12 76//12 34//12 29//12
f 43//13 90//13 104//13 100//13
f 43//14 67//14 95//14 90//14
f 47//15 86//15 95//15 67//15
f 105//16 85//16 48//16 101//16
f 48//17 85//17 97//17 78//17
f 49//18 78//18 97//18 84//18
f 56//19 84//19 97//19 69//19
f 57//20 85//20 105//20 102//20
f 57//21 69//21 97//21 85//21
f 58//22 76//22 95//22 86//22
f 90//23 62//23 103//23 104//23
f 62//24 90//24 95//24 76//24
f 1//25 6//25 40//25 39//25
f 43//26 100//26 101//26 48//26
f 41//27 39//27 40//27 42//27 102//27 105//27 101//27 100//27 104//27 103//27
f 6//25 1//25 15//25 18//25
f 18//25 15//25 5//25 7//25
f 67//26 78//26 49//26 47//26
f 48//26 78//26 67//26 43//26
usemtl Green
f 2//28 11//28 30//28 28//28
f 2//29 28//29 35//29 17//29
f 3//30 27//30 30//30 11//30
f 3//31 14//31 33//31 27//31
f 4//32 12//32 31//32 26//32
f 4//33 26//33 33//33 14//33
f 5//34 25//34 38//34 19//34
f 7//35 16//35 37//35 23//35
f 8//36 22//36 32//36 13//36
f 8//37 17//37 35//37 22//37
f 9//38 13//38 32//38 21//38
f 9//39 21//39 37//39 16//39
f 10//40 20//40 31//40 12//40
f 10//41 19//41 38//41 20//41
f 53//42 73//42 31//42 20//42
f 53//43 20//43 38//43 71//43
f 54//44 79//44 37//44 21//44
f 54//45 21//45 32//45 74//45
f 55//46 74//46 32//46 22//46
f 55//37 22//37 35//37 68//37
f 56//47 23//47 37//47 79//47
f 58//48 71//48 38//48 25//48
f 59//33 75//33 33//33 26//33
f 59//49 26//49 31//49 73//49
f 60//30 72//30 30//30 27//30
f 60//31 27//31 33//31 75//31
f 61//29 68//29 35//29 28//29
f 61//28 28//28 30//28 72//28
f 44//28 89//28 91//28 63//28
f 44//29 77//29 96//29 89//29
f 45//30 63//30 91//30 88//30
f 45//31 88//31 94//31 66//31
f 46//50 87//50 92//50 64//50
f 46//33 66//33 94//33 87//33
f 47//51 80//51 99//51 86//51
f 49//52 84//52 98//52 70//52
f 50//53 65//53 93//53 83//53
f 50//37 83//37 96//37 77//37
f 51//54 82//54 93//54 65//54
f 51//55 70//55 98//55 82//55
f 52//56 64//56 92//56 81//56
f 52//57 81//57 99//57 80//57
f 53//58 81//58 92//58 73//58
f 53//59 71//59 99//59 81//59
f 54//60 82//60 98//60 79//60
f 54//61 74//61 93//61 82//61
f 55//62 83//62 93//62 74//62
f 55//37 68//37 96//37 83//37
f 56//63 79//63 98//63 84//63
f 58//64 86//64 99//64 71//64
f 59//33 87//33 94//33 75//33
f 59//65 73//65 92//65 87//65
f 60//30 88//30 91//30 72//30
f 60//31 75//31 94//31 88//31
f 61//29 89//29 96//29 68//29
f 61//28 72//28 91//28 89//28
f 7//25 5//25 19//25 16//25
f 16//25 19//25 10//25 9//25
f 9//25 10//25 12//25 13//25
f 13//25 12//25 4//25 8//25
f 8//25 4//25 14//25 17//25
f 17//25 14//25 3//25 2//25
f 2//25 3//25 11//25
f 45//26 44//26 63//26
f 66//26 77//26 44//26 45//26
f 46//26 50//26 77//26 66//26
f 64//26 65//26 50//26 46//26
f 52//26 51//26 65//26 64//26
f 80//26 70//26 51//26 52//26
f 47//26 49//26 70//26 80//26
