# Blender v2.79 (sub 0) OBJ File: 'Platform_BottomLeft.blend'
# www.blender.org
mtllib Platform_BottomLeft.mtl
o Platform_BottomLeft_Cube.055
v 0.031825 0.301556 1.433893
v -0.361691 0.321679 1.388373
v 0.031825 -0.495029 1.126630
v 0.511407 0.301556 1.433893
v 0.031825 0.999998 1.562631
v -0.548218 0.382049 1.251812
v -0.564018 0.999998 1.388373
v -0.666351 0.422295 0.981534
v -0.537683 -0.348417 0.981534
v -0.737833 0.382049 0.534865
v -0.761911 0.341803 -0.000001
v -0.666351 -0.348417 0.495034
v -0.773949 0.999998 0.594610
v -0.737833 0.382049 -0.534866
v -0.773949 0.999998 -0.594611
v -0.666351 0.422295 -0.981535
v -0.666351 -0.348417 -0.495035
v -0.548218 0.382049 -1.251813
v -0.361691 0.321679 -1.388374
v -0.537683 -0.348417 -0.981535
v -0.564018 0.999998 -1.388374
v 0.031825 0.301556 -1.433895
v 0.031825 0.999998 -1.562632
v 0.511407 0.301556 -1.433895
v 0.031825 -0.495029 -1.126632
v 0.999999 0.301556 1.433893
v 0.999999 0.999998 1.562631
v 0.999999 -0.495029 1.126630
v -0.548218 -0.714561 -0.534866
v -0.558752 -0.806554 -0.000001
v -0.361691 -0.852550 -0.594611
v 0.031825 -0.898546 -0.614527
v 0.511407 -0.898546 -0.614527
v 0.031825 -0.999998 -0.000001
v 0.031825 -0.898545 0.614525
v 0.511407 -0.898546 0.614525
v -0.361691 -0.852550 0.594610
v -0.548218 -0.714561 0.534865
v 0.999999 0.301556 -1.433895
v 0.999999 -0.495029 -1.126632
v 0.999999 0.999998 -1.562632
v 0.999999 -0.898545 -0.614527
v 0.999999 -0.999998 -0.000001
v 0.999999 -0.898546 0.614525
v -0.361690 0.999998 1.562631
v 0.511407 0.999998 1.562631
v -0.695131 0.999998 1.090356
v -0.361691 -0.458376 1.090356
v -0.800284 0.999998 -0.000001
v -0.695131 0.999998 -1.090357
v -0.685538 -0.421723 -0.000001
v -0.361690 0.999998 -1.562632
v 0.511407 0.999998 -1.562632
v -0.361691 -0.458376 -1.090357
v -0.361691 -0.953165 -0.000001
v 0.511407 -0.999998 -0.000001
v -0.627476 -0.127520 -0.834542
v -0.627476 -0.127520 0.834541
v 0.511407 -0.495028 -1.126631
v 0.511407 -0.495028 1.126630
vn -0.0619 -0.2145 0.9748
vn -0.1220 -0.3557 0.9266
vn 0.0000 -0.3599 0.9330
vn 0.0000 -0.1813 0.9834
vn -0.6309 -0.1882 0.7527
vn -0.9127 -0.1145 0.3922
vn -0.9194 -0.1535 0.3621
vn -0.6247 -0.2788 0.7294
vn -0.9971 -0.0604 0.0467
vn -0.9936 -0.0997 0.0527
vn -0.9786 -0.1097 0.1738
vn -0.9842 -0.0760 0.1602
vn -0.9971 -0.0604 -0.0467
vn -0.9842 -0.0760 -0.1602
vn -0.9786 -0.1097 -0.1738
vn -0.9936 -0.0997 -0.0527
vn -0.6309 -0.1882 -0.7527
vn -0.6247 -0.2788 -0.7294
vn -0.9194 -0.1535 -0.3621
vn -0.9127 -0.1145 -0.3922
vn -0.0619 -0.2145 -0.9748
vn 0.0000 -0.1813 -0.9834
vn 0.0000 -0.3599 -0.9330
vn -0.1220 -0.3557 -0.9266
vn -0.6039 -0.7847 -0.1395
vn -0.9491 -0.3055 -0.0764
vn -0.9354 -0.2526 -0.2474
vn -0.6358 -0.5972 -0.4889
vn -0.1196 -0.9792 -0.1636
vn -0.1256 -0.7779 -0.6157
vn 0.0000 -0.7855 -0.6189
vn 0.0000 -0.9866 -0.1629
vn -0.1196 -0.9792 0.1636
vn -0.0000 -0.9866 0.1629
vn -0.0000 -0.7855 0.6189
vn -0.1256 -0.7779 0.6157
vn -0.6039 -0.7847 0.1395
vn -0.6358 -0.5972 0.4889
vn -0.9354 -0.2526 0.2474
vn -0.9491 -0.3055 0.0764
vn 0.0000 1.0000 0.0000
vn 1.0000 0.0000 0.0000
usemtl LightBrown
s off
f 1//1 5//1 45//1 2//1
f 1//2 2//2 48//2 3//2
f 1//3 3//3 60//3 4//3
f 1//4 4//4 46//4 5//4
f 6//5 2//5 45//5 7//5
f 6//6 7//6 47//6 8//6
f 6//7 8//7 58//7 9//7
f 6//8 9//8 48//8 2//8
f 10//9 13//9 49//9 11//9
f 10//10 11//10 51//10 12//10
f 10//11 12//11 58//11 8//11
f 10//12 8//12 47//12 13//12
f 14//13 11//13 49//13 15//13
f 14//14 15//14 50//14 16//14
f 14//15 16//15 57//15 17//15
f 14//16 17//16 51//16 11//16
f 18//17 21//17 52//17 19//17
f 18//18 19//18 54//18 20//18
f 18//19 20//19 57//19 16//19
f 18//20 16//20 50//20 21//20
f 22//21 19//21 52//21 23//21
f 22//22 23//22 53//22 24//22
f 22//23 24//23 59//23 25//23
f 22//24 25//24 54//24 19//24
f 26//4 27//4 46//4 4//4
f 26//3 4//3 60//3 28//3
f 29//25 31//25 55//25 30//25
f 29//26 30//26 51//26 17//26
f 29//27 17//27 57//27 20//27
f 29//28 20//28 54//28 31//28
f 32//29 34//29 55//29 31//29
f 32//30 31//30 54//30 25//30
f 32//31 25//31 59//31 33//31
f 32//32 33//32 56//32 34//32
f 35//33 37//33 55//33 34//33
f 35//34 34//34 56//34 36//34
f 35//35 36//35 60//35 3//35
f 35//36 3//36 48//36 37//36
f 38//37 30//37 55//37 37//37
f 38//38 37//38 48//38 9//38
f 38//39 9//39 58//39 12//39
f 38//40 12//40 51//40 30//40
f 39//23 40//23 59//23 24//23
f 39//22 24//22 53//22 41//22
f 42//32 43//32 56//32 33//32
f 42//31 33//31 59//31 40//31
f 44//35 28//35 60//35 36//35
f 44//34 36//34 56//34 43//34
f 45//41 5//41 46//41 27//41 41//41 53//41 23//41 52//41 21//41 50//41 15//41 49//41 13//41 47//41 7//41
f 27//42 26//42 39//42 41//42
f 26//42 28//42 40//42 39//42
f 28//42 44//42 42//42 40//42
f 44//42 43//42 42//42
