# Blender v2.79 (sub 0) OBJ File: 'Rock2.blend'
# www.blender.org
mtllib Rock2.mtl
o Rock2_Cube.003
v -0.395778 -0.030772 0.120795
v -0.457281 0.426582 0.120795
v -0.420507 -0.030772 -0.247324
v -0.488592 0.426582 -0.247324
v 0.457281 -0.030772 0.120795
v 0.334073 0.287699 0.120795
v 0.362380 -0.030772 -0.162739
v 0.252036 0.314924 -0.162739
v 0.003610 -0.030772 -0.232028
v -0.093146 0.426582 -0.232028
v 0.117004 -0.030772 0.120795
v 0.013636 0.426582 0.120795
v -0.431304 0.279165 0.120795
v -0.459834 0.137952 -0.247324
v 0.298642 0.210184 -0.162739
v 0.349001 0.198940 0.120795
v 0.057296 0.255562 0.120795
v -0.052278 0.233524 -0.232028
v 0.339525 0.175777 0.232028
v 0.410693 -0.030772 0.232028
v 0.117004 -0.030772 0.232028
v 0.104889 0.175777 0.232028
v -0.253042 -0.030772 -0.241284
v -0.271337 0.426582 0.120795
v -0.332448 0.426582 -0.241284
v -0.193303 -0.030772 0.120795
v -0.298909 0.175689 -0.241284
v -0.238377 0.334267 0.120795
v -0.364286 -0.030772 0.218562
v -0.399812 0.279165 0.218562
v -0.238377 0.334267 0.218562
v -0.193303 -0.030772 0.218562
vn -0.9868 -0.1239 0.1040
vn 0.2062 0.0606 -0.9766
vn 0.9341 0.2971 -0.1979
vn -0.0000 0.0000 1.0000
vn 0.0000 -1.0000 0.0000
vn 0.0000 1.0000 0.0000
vn 0.3575 0.9315 -0.0662
vn 0.0373 0.0063 -0.9993
vn 0.0359 0.0078 -0.9993
vn -0.9462 -0.1085 0.3048
vn 0.9146 0.3343 -0.2277
vn 0.1929 0.0457 -0.9802
vn -0.9830 -0.1537 0.1006
vn 0.8922 0.3670 0.2631
vn -0.9771 -0.1424 0.1580
vn 0.0978 0.9095 0.4041
vn 0.0358 0.0081 -0.9993
vn 0.0376 0.0043 -0.9993
vn -0.2966 0.9538 0.0478
vn 0.9925 0.1225 0.0000
usemtl Grey
s off
f 13//1 2//1 4//1 14//1
f 18//2 10//2 8//2 15//2
f 15//3 8//3 6//3 16//3
f 28//4 24//4 2//4 13//4
f 9//5 7//5 5//5 11//5
f 25//6 4//6 2//6 24//6
f 8//7 10//7 12//7 6//7
f 23//5 9//5 11//5 26//5
f 16//4 6//4 12//4 17//4
f 27//8 25//8 10//8 18//8
f 23//9 27//9 18//9 9//9
f 11//5 5//5 20//5 21//5
f 13//10 1//10 29//10 30//10
f 7//11 15//11 16//11 5//11
f 9//12 18//12 15//12 7//12
f 1//13 13//13 14//13 3//13
f 20//4 19//4 22//4 21//4
f 5//14 16//14 19//14 20//14
f 17//15 11//15 21//15 22//15
f 16//16 17//16 22//16 19//16
f 11//4 17//4 28//4 26//4
f 3//17 14//17 27//17 23//17
f 14//18 4//18 25//18 27//18
f 3//5 23//5 26//5 1//5
f 10//6 25//6 24//6 12//6
f 17//4 12//4 24//4 28//4
f 32//4 31//4 30//4 29//4
f 1//5 26//5 32//5 29//5
f 28//19 13//19 30//19 31//19
f 26//20 28//20 31//20 32//20
