# Blender v2.79 (sub 0) OBJ File: 'Rock1.blend'
# www.blender.org
mtllib Rock1.mtl
o Rock1_Cube.001
v -0.395778 -0.009055 0.120795
v -0.457281 0.198798 0.120795
v -0.325656 -0.009055 -0.214332
v -0.393741 0.236778 -0.214332
v 0.457281 -0.009055 0.120795
v 0.334073 0.554882 0.120795
v 0.236654 -0.009054 -0.162739
v 0.126310 0.480648 -0.162739
v 0.003610 -0.009055 -0.232028
v -0.093146 0.402235 -0.232028
v 0.117004 -0.009055 0.120795
v 0.013636 0.440389 0.120795
v -0.431304 0.111006 0.120795
v -0.364984 0.132944 -0.214332
v 0.172917 0.273809 -0.162739
v 0.386113 0.316689 0.120795
v 0.057296 0.250555 0.120795
v -0.052278 0.228516 -0.232028
v 0.386113 0.316689 0.232028
v 0.457281 -0.009055 0.232028
v 0.117004 -0.009055 0.232028
v 0.057296 0.250555 0.232028
vn -0.9409 -0.2687 -0.2063
vn 0.2805 0.0645 -0.9577
vn 0.7738 0.1715 -0.6098
vn -0.0000 0.0000 1.0000
vn 0.0000 -1.0000 -0.0000
vn -0.4659 0.8844 0.0291
vn -0.3365 0.9417 0.0000
vn -0.0521 -0.0131 -0.9986
vn -0.0531 -0.0133 -0.9985
vn 0.7761 0.1720 -0.6067
vn 0.2830 0.0650 -0.9569
vn -0.9420 -0.2691 -0.2006
vn 0.9770 0.2134 0.0000
vn -0.9746 -0.2241 0.0000
vn -0.1972 0.9804 0.0000
usemtl Grey
s off
f 13//1 2//1 4//1 14//1
f 18//2 10//2 8//2 15//2
f 15//3 8//3 6//3 16//3
f 17//4 12//4 2//4 13//4
f 9//5 7//5 5//5 11//5
f 10//6 4//6 2//6 12//6
f 8//7 10//7 12//7 6//7
f 3//5 9//5 11//5 1//5
f 16//4 6//4 12//4 17//4
f 14//8 4//8 10//8 18//8
f 3//9 14//9 18//9 9//9
f 11//5 5//5 20//5 21//5
f 11//4 17//4 13//4 1//4
f 7//10 15//10 16//10 5//10
f 9//11 18//11 15//11 7//11
f 1//12 13//12 14//12 3//12
f 20//4 19//4 22//4 21//4
f 5//13 16//13 19//13 20//13
f 17//14 11//14 21//14 22//14
f 16//15 17//15 22//15 19//15
