# Blender v2.79 (sub 0) OBJ File: 'Spike_Group.blend'
# www.blender.org
mtllib Spike_Group.mtl
o Spike_Group_Cylinder.016
v -0.818892 -0.002078 -0.220765
v -0.818892 1.582392 0.000000
v -0.627704 -0.002078 -0.110382
v -0.627704 -0.002078 0.110382
v -0.818892 -0.002078 0.220765
v -1.010080 -0.002078 0.110382
v -1.010080 -0.002078 -0.110382
v -0.706824 -0.002078 0.684287
v -0.706824 2.154522 0.905052
v -0.515636 -0.002078 0.794670
v -0.515636 -0.002078 1.015435
v -0.706824 -0.002078 1.125817
v -0.898012 -0.002078 1.015435
v -0.898012 -0.002078 0.794670
v 0.592861 -0.002078 -0.633283
v 0.592861 1.989967 -0.412518
v 0.784048 -0.002078 -0.522900
v 0.784048 -0.002078 -0.302135
v 0.592861 -0.002078 -0.191753
v 0.401673 -0.002078 -0.302135
v 0.401673 -0.002078 -0.522900
v 0.139760 -0.002078 -0.060944
v 0.139760 1.732415 0.159820
v 0.330947 -0.002078 0.049438
v 0.330947 -0.002078 0.270203
v 0.139760 -0.002078 0.380585
v -0.051428 -0.002078 0.270203
v -0.051428 -0.002078 0.049438
v 0.497471 -0.002078 0.660440
v 0.497471 2.470325 0.881205
v 0.688659 -0.002078 0.770822
v 0.688659 -0.002078 0.991587
v 0.497471 -0.002078 1.101970
v 0.306283 -0.002078 0.991587
v 0.306283 -0.002078 0.770822
v 0.855182 -0.002078 -0.054983
v 0.855182 2.097281 0.165782
v 1.046370 -0.002078 0.055400
v 1.046370 -0.002078 0.276165
v 0.855182 -0.002078 0.386547
v 0.663994 -0.002078 0.276165
v 0.663994 -0.002078 0.055400
v -0.206028 -0.002078 -0.621359
v -0.206028 1.567868 -0.400594
v -0.014840 -0.002078 -0.510976
v -0.014840 -0.002078 -0.290211
v -0.206028 -0.002078 -0.179829
v -0.397215 -0.002078 -0.290211
v -0.397215 -0.002078 -0.510976
v -0.334804 -0.002078 0.247880
v -0.334804 2.447846 0.468644
v -0.143616 -0.002078 0.358262
v -0.143616 -0.002078 0.579027
v -0.334804 -0.002078 0.689409
v -0.525992 -0.002078 0.579027
v -0.525992 -0.002078 0.358262
vn 0.4964 0.1198 -0.8598
vn 0.9928 0.1198 0.0000
vn 0.4964 0.1198 0.8598
vn -0.4964 0.1198 0.8598
vn -0.9928 0.1198 0.0000
vn -0.4964 0.1198 -0.8598
vn 0.0000 -1.0000 0.0000
vn 0.4980 0.0883 -0.8626
vn 0.9961 0.0883 0.0000
vn 0.4980 0.0883 0.8626
vn -0.4980 0.0883 0.8626
vn -0.9961 0.0883 0.0000
vn -0.4980 0.0883 -0.8626
vn 0.4977 0.0955 -0.8621
vn 0.9954 0.0955 0.0000
vn 0.4977 0.0955 0.8621
vn -0.4977 0.0955 0.8621
vn -0.9954 0.0955 0.0000
vn -0.4977 0.0955 -0.8621
vn 0.4970 0.1096 -0.8608
vn 0.9940 0.1096 0.0000
vn 0.4970 0.1096 0.8608
vn -0.4970 0.1096 0.8608
vn -0.9940 0.1096 0.0000
vn -0.4970 0.1096 -0.8608
vn 0.4985 0.0771 -0.8634
vn 0.9970 0.0771 0.0000
vn 0.4985 0.0771 0.8634
vn -0.4985 0.0771 0.8634
vn -0.9970 0.0771 0.0000
vn -0.4985 0.0771 -0.8634
vn 0.4979 0.0907 -0.8625
vn 0.9959 0.0907 0.0000
vn 0.4979 0.0907 0.8625
vn -0.4979 0.0907 0.8625
vn -0.9959 0.0907 0.0000
vn -0.4979 0.0907 -0.8625
vn 0.4963 0.1209 -0.8597
vn 0.9927 0.1209 0.0000
vn 0.4963 0.1209 0.8597
vn -0.4963 0.1209 0.8597
vn -0.9927 0.1209 0.0000
vn -0.4963 0.1209 -0.8597
vn 0.4985 0.0778 -0.8634
vn 0.9970 0.0778 0.0000
vn 0.4985 0.0778 0.8634
vn -0.4985 0.0778 0.8634
vn -0.9970 0.0778 0.0000
vn -0.4985 0.0778 -0.8634
usemtl Grey
s off
f 1//1 2//1 3//1
f 3//2 2//2 4//2
f 4//3 2//3 5//3
f 5//4 2//4 6//4
f 6//5 2//5 7//5
f 7//6 2//6 1//6
f 1//7 3//7 4//7 5//7 6//7 7//7
f 8//8 9//8 10//8
f 10//9 9//9 11//9
f 11//10 9//10 12//10
f 12//11 9//11 13//11
f 13//12 9//12 14//12
f 14//13 9//13 8//13
f 8//7 10//7 11//7 12//7 13//7 14//7
f 15//14 16//14 17//14
f 17//15 16//15 18//15
f 18//16 16//16 19//16
f 19//17 16//17 20//17
f 20//18 16//18 21//18
f 21//19 16//19 15//19
f 15//7 17//7 18//7 19//7 20//7 21//7
f 22//20 23//20 24//20
f 24//21 23//21 25//21
f 25//22 23//22 26//22
f 26//23 23//23 27//23
f 27//24 23//24 28//24
f 28//25 23//25 22//25
f 22//7 24//7 25//7 26//7 27//7 28//7
f 29//26 30//26 31//26
f 31//27 30//27 32//27
f 32//28 30//28 33//28
f 33//29 30//29 34//29
f 34//30 30//30 35//30
f 35//31 30//31 29//31
f 29//7 31//7 32//7 33//7 34//7 35//7
f 36//32 37//32 38//32
f 38//33 37//33 39//33
f 39//34 37//34 40//34
f 40//35 37//35 41//35
f 41//36 37//36 42//36
f 42//37 37//37 36//37
f 36//7 38//7 39//7 40//7 41//7 42//7
f 43//38 44//38 45//38
f 45//39 44//39 46//39
f 46//40 44//40 47//40
f 47//41 44//41 48//41
f 48//42 44//42 49//42
f 49//43 44//43 43//43
f 43//7 45//7 46//7 47//7 48//7 49//7
f 50//44 51//44 52//44
f 52//45 51//45 53//45
f 53//46 51//46 54//46
f 54//47 51//47 55//47
f 55//48 51//48 56//48
f 56//49 51//49 50//49
f 50//7 52//7 53//7 54//7 55//7 56//7
