# Blender v2.79 (sub 0) OBJ File: 'Spikes_Platform.blend'
# www.blender.org
mtllib Spikes_Platform.mtl
o Spikes_Platform_Cube.027
v -0.851209 -0.004703 0.851209
v -0.851209 0.165044 0.851209
v -0.851209 -0.004703 -0.851209
v -0.851209 0.165044 -0.851209
v 0.851209 -0.004703 0.851209
v 0.851209 0.165044 0.851209
v 0.851209 -0.004703 -0.851209
v 0.851209 0.165044 -0.851209
v 0.668807 -0.004703 -0.851209
v 0.364804 -0.004703 -0.851209
v 0.121601 -0.004703 -0.851209
v -0.121601 -0.004703 -0.851209
v -0.364804 -0.004703 -0.851209
v -0.668807 -0.004703 -0.851209
v -0.668807 0.228529 -0.851209
v -0.364804 0.228529 -0.851209
v -0.121601 0.228529 -0.851209
v 0.121601 0.228529 -0.851209
v 0.364804 0.228529 -0.851209
v 0.668807 0.228529 -0.851209
v -0.668807 -0.004703 0.851209
v -0.364804 -0.004703 0.851209
v -0.121601 -0.004703 0.851209
v 0.121601 -0.004703 0.851209
v 0.364804 -0.004703 0.851209
v 0.668807 -0.004703 0.851209
v 0.668807 0.228529 0.851209
v 0.364804 0.228529 0.851209
v 0.121601 0.228529 0.851209
v -0.121601 0.228529 0.851209
v -0.364804 0.228529 0.851209
v -0.668807 0.228529 0.851209
v -0.851209 -0.004703 -0.668807
v -0.851209 -0.004703 -0.364804
v -0.851209 -0.004703 -0.121601
v -0.851209 -0.004703 0.121601
v -0.851209 -0.004703 0.364804
v -0.851209 -0.004703 0.668807
v -0.851209 0.228529 0.668807
v -0.851209 0.228529 0.364804
v -0.851209 0.228529 0.121601
v -0.851209 0.228529 -0.121601
v -0.851209 0.228529 -0.364804
v -0.851209 0.228529 -0.668807
v 0.851209 -0.004703 0.668807
v 0.851209 -0.004703 0.364804
v 0.851209 -0.004703 0.121601
v 0.851209 -0.004703 -0.121601
v 0.851209 -0.004703 -0.364804
v 0.851209 -0.004703 -0.668807
v 0.851209 0.228529 -0.668807
v 0.851209 0.228529 -0.364804
v 0.851209 0.228529 -0.121601
v 0.851209 0.228529 0.121601
v 0.851209 0.228529 0.364804
v 0.851209 0.228529 0.668807
v 0.714286 0.300305 -0.714286
v 0.714286 0.300305 -0.428571
v 0.714286 0.300305 -0.142857
v 0.714286 0.300305 0.142857
v 0.714286 0.300305 0.428571
v 0.714286 0.300305 0.714286
v 0.428571 0.300305 -0.714286
v 0.428571 0.300305 -0.428571
v 0.428571 0.300305 -0.142857
v 0.428571 0.300305 0.142857
v 0.428571 0.300305 0.428571
v 0.428571 0.300305 0.714286
v 0.142857 0.300305 -0.714286
v 0.142857 0.300305 -0.428571
v 0.142857 0.300305 -0.142857
v 0.142857 0.300305 0.142857
v 0.142857 0.300305 0.428571
v 0.142857 0.300305 0.714286
v -0.142857 0.300305 -0.714286
v -0.142857 0.300305 -0.428571
v -0.142857 0.300305 -0.142857
v -0.142857 0.300305 0.142857
v -0.142857 0.300305 0.428571
v -0.142857 0.300305 0.714286
v -0.428571 0.300305 -0.714286
v -0.428571 0.300305 -0.428571
v -0.428571 0.300305 -0.142857
v -0.428571 0.300305 0.142857
v -0.428571 0.300305 0.428571
v -0.428571 0.300305 0.714286
v -0.714286 0.300305 -0.714286
v -0.714286 0.300305 -0.428571
v -0.714286 0.300305 -0.142857
v -0.714286 0.300305 0.142857
v -0.714286 0.300305 0.428571
v -0.714286 0.300305 0.714286
v -0.714286 -0.004703 -0.714286
v -0.714286 -0.004703 -0.428571
v -0.714286 -0.004703 -0.142857
v -0.714286 -0.004703 0.142857
v -0.714286 -0.004703 0.428571
v -0.714286 -0.004703 0.714286
v -0.428571 -0.004703 -0.714286
v -0.428571 -0.004703 -0.428571
v -0.428571 -0.004703 -0.142857
v -0.428571 -0.004703 0.142857
v -0.428571 -0.004703 0.428571
v -0.428571 -0.004703 0.714286
v -0.142857 -0.004703 -0.714286
v -0.142857 -0.004703 -0.428571
v -0.142857 -0.004703 -0.142857
v -0.142857 -0.004703 0.142857
v -0.142857 -0.004703 0.428571
v -0.142857 -0.004703 0.714286
v 0.142857 -0.004703 -0.714286
v 0.142857 -0.004703 -0.428571
v 0.142857 -0.004703 -0.142857
v 0.142857 -0.004703 0.142857
v 0.142857 -0.004703 0.428571
v 0.142857 -0.004703 0.714286
v 0.428571 -0.004703 -0.714286
v 0.428571 -0.004703 -0.428571
v 0.428571 -0.004703 -0.142857
v 0.428571 -0.004703 0.142857
v 0.428571 -0.004703 0.428571
v 0.428571 -0.004703 0.714286
v 0.714286 -0.004703 -0.714286
v 0.714286 -0.004703 -0.428571
v 0.714286 -0.004703 -0.142857
v 0.714286 -0.004703 0.142857
v 0.714286 -0.004703 0.428571
v 0.714286 -0.004703 0.714286
v -0.514286 0.300305 0.514286
v -0.514286 0.300305 0.628571
v -0.628571 0.300305 0.514286
v -0.628571 0.300305 0.628571
v -0.228571 0.300305 0.514286
v -0.228571 0.300305 0.628571
v -0.342857 0.300305 0.514286
v -0.342857 0.300305 0.628571
v 0.342857 0.300305 0.514286
v 0.342857 0.300305 0.628571
v 0.228571 0.300305 0.514286
v 0.228571 0.300305 0.628571
v 0.057143 0.300305 0.514286
v 0.057143 0.300305 0.628571
v -0.057143 0.300305 0.514286
v -0.057143 0.300305 0.628571
v 0.628571 0.300305 0.514286
v 0.628571 0.300305 0.628571
v 0.514286 0.300305 0.514286
v 0.514286 0.300305 0.628571
v 0.628571 0.300305 0.228571
v 0.628571 0.300305 0.342857
v 0.514286 0.300305 0.228571
v 0.514286 0.300305 0.342857
v 0.342857 0.300305 0.228571
v 0.342857 0.300305 0.342857
v 0.228571 0.300305 0.228571
v 0.228571 0.300305 0.342857
v 0.057143 0.300305 0.228571
v 0.057143 0.300305 0.342857
v -0.057143 0.300305 0.228571
v -0.057143 0.300305 0.342857
v -0.228571 0.300305 0.228571
v -0.228571 0.300305 0.342857
v -0.342857 0.300305 0.228571
v -0.342857 0.300305 0.342857
v -0.514286 0.300305 0.228571
v -0.514286 0.300305 0.342857
v -0.628571 0.300305 0.228571
v -0.628571 0.300305 0.342857
v -0.514286 0.300305 -0.057143
v -0.514286 0.300305 0.057143
v -0.628571 0.300305 -0.057143
v -0.628571 0.300305 0.057143
v -0.228571 0.300305 -0.057143
v -0.228571 0.300305 0.057143
v -0.342857 0.300305 -0.057143
v -0.342857 0.300305 0.057143
v 0.057143 0.300305 -0.057143
v 0.057143 0.300305 0.057143
v -0.057143 0.300305 -0.057143
v -0.057143 0.300305 0.057143
v 0.342857 0.300305 -0.057143
v 0.342857 0.300305 0.057143
v 0.228571 0.300305 -0.057143
v 0.228571 0.300305 0.057143
v 0.628571 0.300305 -0.057143
v 0.628571 0.300305 0.057143
v 0.514286 0.300305 -0.057143
v 0.514286 0.300305 0.057143
v 0.628571 0.300305 -0.342857
v 0.628571 0.300305 -0.228571
v 0.514286 0.300305 -0.342857
v 0.514286 0.300305 -0.228571
v 0.342857 0.300305 -0.342857
v 0.342857 0.300305 -0.228571
v 0.228571 0.300305 -0.342857
v 0.228571 0.300305 -0.228571
v 0.057143 0.300305 -0.342857
v 0.057143 0.300305 -0.228571
v -0.057143 0.300305 -0.342857
v -0.057143 0.300305 -0.228571
v -0.228571 0.300305 -0.342857
v -0.228571 0.300305 -0.228571
v -0.342857 0.300305 -0.342857
v -0.342857 0.300305 -0.228571
v -0.514286 0.300305 -0.342857
v -0.514286 0.300305 -0.228571
v -0.628571 0.300305 -0.342857
v -0.628571 0.300305 -0.228571
v -0.514286 0.300305 -0.628571
v -0.514286 0.300305 -0.514286
v -0.628571 0.300305 -0.628571
v -0.628571 0.300305 -0.514286
v -0.228571 0.300305 -0.628571
v -0.228571 0.300305 -0.514286
v -0.342857 0.300305 -0.628571
v -0.342857 0.300305 -0.514286
v 0.057143 0.300305 -0.628571
v 0.057143 0.300305 -0.514286
v -0.057143 0.300305 -0.628571
v -0.057143 0.300305 -0.514286
v 0.342857 0.300305 -0.628571
v 0.342857 0.300305 -0.514286
v 0.228571 0.300305 -0.628571
v 0.228571 0.300305 -0.514286
v 0.628571 0.300305 -0.628571
v 0.628571 0.300305 -0.514286
v 0.514286 0.300305 -0.628571
v 0.514286 0.300305 -0.514286
v -0.571429 1.266608 0.571429
v -0.285714 1.266608 0.571429
v 0.285714 1.266608 0.571429
v 0.000000 1.266608 0.571429
v 0.571429 1.266608 0.571429
v 0.571429 1.266608 0.285714
v 0.285714 1.266608 0.285714
v 0.000000 1.266608 0.285714
v -0.285714 1.266608 0.285714
v -0.571429 1.266608 0.285714
v -0.571429 1.266608 0.000000
v -0.285714 1.266608 0.000000
v 0.000000 1.266608 0.000000
v 0.285714 1.266608 0.000000
v 0.571429 1.266608 0.000000
v 0.571429 1.266608 -0.285714
v 0.285714 1.266608 -0.285714
v 0.000000 1.266608 -0.285714
v -0.285714 1.266608 -0.285714
v -0.571429 1.266608 -0.285714
v -0.571429 1.266608 -0.571429
v -0.285714 1.266608 -0.571429
v 0.000000 1.266608 -0.571429
v 0.285714 1.266608 -0.571429
v 0.571429 1.266608 -0.571429
vn -0.9983 0.0590 0.0000
vn 0.0000 0.0590 -0.9983
vn 0.9983 0.0590 0.0000
vn 0.0000 0.0590 0.9983
vn -1.0000 0.0000 0.0000
vn 0.0000 0.0000 -1.0000
vn 1.0000 0.0000 0.0000
vn -0.0000 0.0000 1.0000
vn 0.0000 -1.0000 0.0000
vn -0.4049 0.8198 0.4049
vn 0.4049 0.8198 0.4049
vn 0.0000 0.8857 0.4643
vn 0.0000 0.8857 -0.4643
vn 0.0000 1.0000 0.0000
vn 0.4049 0.8198 -0.4049
vn 0.4643 0.8857 0.0000
vn -0.4049 0.8198 -0.4049
vn -0.4643 0.8857 0.0000
usemtl Grey
s off
f 207//1 208//1 248//1
f 153//2 155//2 235//2
f 206//3 205//3 248//3
f 155//1 156//1 235//1
f 154//3 153//3 235//3
f 180//4 178//4 241//4
f 177//2 179//2 241//2
f 179//1 180//1 241//1
f 178//3 177//3 241//3
f 204//4 202//4 247//4
f 201//2 203//2 247//2
f 152//4 150//4 234//4
f 203//1 204//1 247//1
f 149//2 151//2 234//2
f 202//3 201//3 247//3
f 151//1 152//1 234//1
f 228//4 226//4 253//4
f 150//3 149//3 234//3
f 225//2 227//2 253//2
f 176//4 174//4 240//4
f 227//1 228//1 253//1
f 173//2 175//2 240//2
f 226//3 225//3 253//3
f 175//1 176//1 240//1
f 174//3 173//3 240//3
f 156//4 154//4 235//4
f 205//2 207//2 248//2
f 130//3 129//3 229//3
f 208//4 206//4 248//4
f 131//1 132//1 229//1
f 182//3 181//3 242//3
f 129//2 131//2 229//2
f 183//1 184//1 242//1
f 132//4 130//4 229//4
f 181//2 183//2 242//2
f 184//4 182//4 242//4
f 158//3 157//3 236//3
f 159//1 160//1 236//1
f 210//3 209//3 249//3
f 157//2 159//2 236//2
f 211//1 212//1 249//1
f 160//4 158//4 236//4
f 209//2 211//2 249//2
f 134//3 133//3 230//3
f 212//4 210//4 249//4
f 135//1 136//1 230//1
f 186//3 185//3 243//3
f 133//2 135//2 230//2
f 187//1 188//1 243//1
f 136//4 134//4 230//4
f 185//2 187//2 243//2
f 188//4 186//4 243//4
f 162//3 161//3 237//3
f 163//1 164//1 237//1
f 214//3 213//3 250//3
f 161//2 163//2 237//2
f 215//1 216//1 250//1
f 164//4 162//4 237//4
f 213//2 215//2 250//2
f 138//3 137//3 231//3
f 216//4 214//4 250//4
f 139//1 140//1 231//1
f 190//3 189//3 244//3
f 137//2 139//2 231//2
f 191//1 192//1 244//1
f 140//4 138//4 231//4
f 189//2 191//2 244//2
f 192//4 190//4 244//4
f 166//3 165//3 238//3
f 167//1 168//1 238//1
f 218//3 217//3 251//3
f 165//2 167//2 238//2
f 219//1 220//1 251//1
f 168//4 166//4 238//4
f 217//2 219//2 251//2
f 142//3 141//3 232//3
f 220//4 218//4 251//4
f 143//1 144//1 232//1
f 194//3 193//3 245//3
f 141//2 143//2 232//2
f 195//1 196//1 245//1
f 144//4 142//4 232//4
f 193//2 195//2 245//2
f 196//4 194//4 245//4
f 170//3 169//3 239//3
f 171//1 172//1 239//1
f 222//3 221//3 252//3
f 169//2 171//2 239//2
f 223//1 224//1 252//1
f 172//4 170//4 239//4
f 221//2 223//2 252//2
f 146//3 145//3 233//3
f 224//4 222//4 252//4
f 147//1 148//1 233//1
f 198//3 197//3 246//3
f 145//2 147//2 233//2
f 199//1 200//1 246//1
f 148//4 146//4 233//4
f 197//2 199//2 246//2
f 200//4 198//4 246//4
usemtl DarkGrey
f 33//5 44//5 4//5 3//5
f 9//6 20//6 8//6 7//6
f 45//7 56//7 6//7 5//7
f 21//8 32//8 2//8 1//8
f 128//9 45//9 5//9 26//9
f 92//10 39//10 2//10 32//10
f 56//11 62//11 27//11 6//11
f 62//12 68//12 28//12 27//12
f 68//12 74//12 29//12 28//12
f 74//12 80//12 30//12 29//12
f 80//12 86//12 31//12 30//12
f 86//12 92//12 32//12 31//12
f 38//9 98//9 21//9 1//9
f 98//9 104//9 22//9 21//9
f 104//9 110//9 23//9 22//9
f 110//9 116//9 24//9 23//9
f 116//9 122//9 25//9 24//9
f 122//9 128//9 26//9 25//9
f 5//8 6//8 27//8 26//8
f 26//8 27//8 28//8 25//8
f 25//8 28//8 29//8 24//8
f 24//8 29//8 30//8 23//8
f 23//8 30//8 31//8 22//8
f 22//8 31//8 32//8 21//8
f 3//6 4//6 15//6 14//6
f 14//6 15//6 16//6 13//6
f 13//6 16//6 17//6 12//6
f 12//6 17//6 18//6 11//6
f 11//6 18//6 19//6 10//6
f 10//6 19//6 20//6 9//6
f 10//9 9//9 123//9 117//9
f 117//9 123//9 124//9 118//9
f 118//9 124//9 125//9 119//9
f 119//9 125//9 126//9 120//9
f 120//9 126//9 127//9 121//9
f 121//9 127//9 128//9 122//9
f 11//9 10//9 117//9 111//9
f 111//9 117//9 118//9 112//9
f 112//9 118//9 119//9 113//9
f 113//9 119//9 120//9 114//9
f 114//9 120//9 121//9 115//9
f 115//9 121//9 122//9 116//9
f 12//9 11//9 111//9 105//9
f 105//9 111//9 112//9 106//9
f 106//9 112//9 113//9 107//9
f 107//9 113//9 114//9 108//9
f 108//9 114//9 115//9 109//9
f 109//9 115//9 116//9 110//9
f 13//9 12//9 105//9 99//9
f 99//9 105//9 106//9 100//9
f 100//9 106//9 107//9 101//9
f 101//9 107//9 108//9 102//9
f 102//9 108//9 109//9 103//9
f 103//9 109//9 110//9 104//9
f 14//9 13//9 99//9 93//9
f 93//9 99//9 100//9 94//9
f 94//9 100//9 101//9 95//9
f 95//9 101//9 102//9 96//9
f 96//9 102//9 103//9 97//9
f 97//9 103//9 104//9 98//9
f 3//9 14//9 93//9 33//9
f 33//9 93//9 94//9 34//9
f 34//9 94//9 95//9 35//9
f 35//9 95//9 96//9 36//9
f 36//9 96//9 97//9 37//9
f 37//9 97//9 98//9 38//9
f 16//13 15//13 87//13 81//13
f 82//14 81//14 209//14 210//14
f 88//14 89//14 208//14 207//14
f 84//14 83//14 169//14 170//14
f 90//14 91//14 168//14 167//14
f 86//14 85//14 129//14 130//14
f 17//13 16//13 81//13 75//13
f 82//14 76//14 214//14 216//14
f 76//14 82//14 203//14 201//14
f 84//14 78//14 174//14 176//14
f 78//14 84//14 163//14 161//14
f 85//14 86//14 136//14 135//14
f 18//13 17//13 75//13 69//13
f 69//14 75//14 219//14 217//14
f 71//14 70//14 197//14 198//14
f 71//14 77//14 179//14 177//14
f 73//14 72//14 157//14 158//14
f 73//14 79//14 143//14 141//14
f 19//13 18//13 69//13 63//13
f 64//14 63//14 221//14 222//14
f 71//14 65//14 194//14 196//14
f 65//14 71//14 183//14 181//14
f 72//14 73//14 156//14 155//14
f 74//14 68//14 138//14 140//14
f 20//13 19//13 63//13 57//13
f 63//14 64//14 228//14 227//14
f 58//14 64//14 191//14 189//14
f 60//14 59//14 185//14 186//14
f 60//14 66//14 151//14 149//14
f 62//14 61//14 145//14 146//14
f 8//15 20//15 57//15 51//15
f 51//16 57//16 58//16 52//16
f 52//16 58//16 59//16 53//16
f 53//16 59//16 60//16 54//16
f 54//16 60//16 61//16 55//16
f 55//16 61//16 62//16 56//16
f 15//17 4//17 44//17 87//17
f 87//18 44//18 43//18 88//18
f 88//18 43//18 42//18 89//18
f 89//18 42//18 41//18 90//18
f 90//18 41//18 40//18 91//18
f 91//18 40//18 39//18 92//18
f 9//9 7//9 50//9 123//9
f 123//9 50//9 49//9 124//9
f 124//9 49//9 48//9 125//9
f 125//9 48//9 47//9 126//9
f 126//9 47//9 46//9 127//9
f 127//9 46//9 45//9 128//9
f 7//7 8//7 51//7 50//7
f 50//7 51//7 52//7 49//7
f 49//7 52//7 53//7 48//7
f 48//7 53//7 54//7 47//7
f 47//7 54//7 55//7 46//7
f 46//7 55//7 56//7 45//7
f 1//5 2//5 39//5 38//5
f 38//5 39//5 40//5 37//5
f 37//5 40//5 41//5 36//5
f 36//5 41//5 42//5 35//5
f 35//5 42//5 43//5 34//5
f 34//5 43//5 44//5 33//5
f 92//14 86//14 130//14 132//14
f 91//14 92//14 132//14 131//14
f 85//14 91//14 131//14 129//14
f 80//14 79//14 133//14 134//14
f 79//14 85//14 135//14 133//14
f 86//14 80//14 134//14 136//14
f 73//14 74//14 140//14 139//14
f 68//14 67//14 137//14 138//14
f 67//14 73//14 139//14 137//14
f 79//14 80//14 144//14 143//14
f 74//14 73//14 141//14 142//14
f 80//14 74//14 142//14 144//14
f 68//14 62//14 146//14 148//14
f 61//14 67//14 147//14 145//14
f 67//14 68//14 148//14 147//14
f 66//14 67//14 152//14 151//14
f 61//14 60//14 149//14 150//14
f 67//14 61//14 150//14 152//14
f 67//14 66//14 153//14 154//14
f 66//14 72//14 155//14 153//14
f 73//14 67//14 154//14 156//14
f 79//14 73//14 158//14 160//14
f 72//14 78//14 159//14 157//14
f 78//14 79//14 160//14 159//14
f 85//14 79//14 162//14 164//14
f 84//14 85//14 164//14 163//14
f 79//14 78//14 161//14 162//14
f 84//14 90//14 167//14 165//14
f 85//14 84//14 165//14 166//14
f 91//14 85//14 166//14 168//14
f 90//14 84//14 170//14 172//14
f 89//14 90//14 172//14 171//14
f 83//14 89//14 171//14 169//14
f 83//14 84//14 176//14 175//14
f 78//14 77//14 173//14 174//14
f 77//14 83//14 175//14 173//14
f 77//14 78//14 180//14 179//14
f 72//14 71//14 177//14 178//14
f 78//14 72//14 178//14 180//14
f 72//14 66//14 182//14 184//14
f 71//14 72//14 184//14 183//14
f 66//14 65//14 181//14 182//14
f 66//14 60//14 186//14 188//14
f 59//14 65//14 187//14 185//14
f 65//14 66//14 188//14 187//14
f 64//14 65//14 192//14 191//14
f 59//14 58//14 189//14 190//14
f 65//14 59//14 190//14 192//14
f 70//14 71//14 196//14 195//14
f 65//14 64//14 193//14 194//14
f 64//14 70//14 195//14 193//14
f 77//14 71//14 198//14 200//14
f 70//14 76//14 199//14 197//14
f 76//14 77//14 200//14 199//14
f 83//14 77//14 202//14 204//14
f 82//14 83//14 204//14 203//14
f 77//14 76//14 201//14 202//14
f 82//14 88//14 207//14 205//14
f 83//14 82//14 205//14 206//14
f 89//14 83//14 206//14 208//14
f 88//14 82//14 210//14 212//14
f 87//14 88//14 212//14 211//14
f 81//14 87//14 211//14 209//14
f 81//14 82//14 216//14 215//14
f 76//14 75//14 213//14 214//14
f 75//14 81//14 215//14 213//14
f 75//14 76//14 220//14 219//14
f 70//14 69//14 217//14 218//14
f 76//14 70//14 218//14 220//14
f 63//14 69//14 223//14 221//14
f 70//14 64//14 222//14 224//14
f 69//14 70//14 224//14 223//14
f 58//14 57//14 225//14 226//14
f 64//14 58//14 226//14 228//14
f 57//14 63//14 227//14 225//14
