# Blender v2.79 (sub 0) OBJ File: 'Spike_Single.blend'
# www.blender.org
mtllib Spike_Single.mtl
o Spike_Single_Cylinder.014
v 0.000000 -0.002078 -0.220765
v 0.000000 1.989968 0.000000
v 0.191188 -0.002078 -0.110382
v 0.191188 -0.002078 0.110382
v 0.000000 -0.002078 0.220765
v -0.191188 -0.002078 0.110382
v -0.191188 -0.002078 -0.110382
vn 0.4977 0.0955 -0.8621
vn 0.9954 0.0955 0.0000
vn 0.4977 0.0955 0.8621
vn -0.4977 0.0955 0.8621
vn -0.9954 0.0955 0.0000
vn -0.4977 0.0955 -0.8621
vn 0.0000 -1.0000 0.0000
usemtl Grey
s off
f 1//1 2//1 3//1
f 3//2 2//2 4//2
f 4//3 2//3 5//3
f 5//4 2//4 6//4
f 6//5 2//5 7//5
f 7//6 2//6 1//6
f 1//7 3//7 4//7 5//7 6//7 7//7
