# Blender v2.79 (sub 0) OBJ File: 'YellowBox.blend'
# www.blender.org
mtllib YellowBox.mtl
o YellowBox_Cube.008
v -0.410277 -0.493122 0.410277
v -0.410277 -0.410277 0.493122
v -0.493122 -0.410277 0.410277
v -0.410277 0.410277 0.493122
v -0.410277 0.493122 0.410277
v -0.493122 0.410277 0.410277
v -0.410277 -0.493122 -0.410277
v -0.493122 -0.410277 -0.410277
v -0.410277 -0.410277 -0.493122
v -0.410277 0.493122 -0.410277
v -0.410277 0.410277 -0.493122
v -0.493122 0.410277 -0.410277
v 0.410277 -0.493122 0.410277
v 0.493122 -0.410277 0.410277
v 0.410277 -0.410277 0.493122
v 0.410277 0.493122 0.410277
v 0.410277 0.410277 0.493122
v 0.493122 0.410277 0.410277
v 0.410277 -0.493122 -0.410277
v 0.410277 -0.410277 -0.493122
v 0.493122 -0.410277 -0.410277
v 0.410277 0.493122 -0.410277
v 0.493122 0.410277 -0.410277
v 0.410277 0.410277 -0.493122
v -0.328222 -0.328222 0.493122
v -0.328222 0.328222 0.493122
v 0.328222 0.328222 0.493122
v 0.328222 -0.328222 0.493122
v -0.328222 0.493122 0.328222
v -0.328222 0.493122 -0.328222
v 0.328222 0.493122 -0.328222
v 0.328222 0.493122 0.328222
v -0.493122 -0.328222 0.328222
v -0.493122 -0.328222 -0.328222
v -0.493122 0.328222 0.328222
v -0.493122 0.328222 -0.328222
v -0.328222 0.328222 -0.493122
v -0.328222 -0.328222 -0.493122
v 0.328222 -0.328222 -0.493122
v 0.328222 0.328222 -0.493122
v 0.493122 0.328222 -0.328222
v 0.493122 -0.328222 -0.328222
v 0.493122 -0.328222 0.328222
v 0.493122 0.328222 0.328222
v -0.328222 -0.493122 -0.328222
v -0.328222 -0.493122 0.328222
v 0.328222 -0.493122 -0.328222
v 0.328222 -0.493122 0.328222
v -0.328222 0.328222 -0.468466
v -0.328222 -0.328222 -0.468466
v 0.328222 -0.328222 -0.468466
v 0.328222 0.328222 -0.468466
v -0.328222 0.468466 0.328222
v -0.328222 0.468466 -0.328222
v 0.328222 0.468466 -0.328222
v 0.328222 0.468466 0.328222
v 0.468466 0.328222 -0.328222
v 0.468466 -0.328222 -0.328222
v 0.468466 -0.328222 0.328222
v 0.468466 0.328222 0.328222
v -0.328222 -0.328222 0.468466
v -0.328222 0.328222 0.468466
v 0.328222 0.328222 0.468466
v 0.328222 -0.328222 0.468466
v -0.468466 -0.328222 0.328222
v -0.468466 -0.328222 -0.328222
v -0.468466 0.328222 0.328222
v -0.468466 0.328222 -0.328222
v -0.328222 -0.468466 -0.328222
v -0.328222 -0.468466 0.328222
v 0.328222 -0.468466 -0.328222
v 0.328222 -0.468466 0.328222
v -0.262578 -0.262578 0.468466
v -0.262578 0.262578 0.468466
v 0.262578 0.262578 0.468466
v 0.262578 -0.262578 0.468466
v -0.262578 0.468466 0.262578
v -0.262578 0.468466 -0.262578
v 0.262578 0.468466 -0.262578
v 0.262578 0.468466 0.262578
v -0.468466 -0.262578 0.262578
v -0.468466 -0.262578 -0.262578
v -0.468466 0.262578 0.262578
v -0.468466 0.262578 -0.262578
v -0.262578 0.262578 -0.468466
v -0.262578 -0.262578 -0.468466
v 0.262578 -0.262578 -0.468466
v 0.262578 0.262578 -0.468466
v 0.468466 0.262578 -0.262578
v 0.468466 -0.262578 -0.262578
v 0.468466 -0.262578 0.262578
v 0.468466 0.262578 0.262578
v -0.262578 -0.468466 -0.262578
v -0.262578 -0.468466 0.262578
v 0.262578 -0.468466 -0.262578
v 0.262578 -0.468466 0.262578
v -0.262578 0.262578 -0.493122
v -0.262578 -0.262578 -0.493122
v 0.262578 -0.262578 -0.493122
v 0.262578 0.262578 -0.493122
v -0.262578 0.493122 0.262578
v -0.262578 0.493122 -0.262578
v 0.262578 0.493122 -0.262578
v 0.262578 0.493122 0.262578
v 0.493122 0.262578 -0.262578
v 0.493122 -0.262578 -0.262578
v 0.493122 -0.262578 0.262578
v 0.493122 0.262578 0.262578
v -0.262578 -0.262578 0.493122
v -0.262578 0.262578 0.493122
v 0.262578 0.262578 0.493122
v 0.262578 -0.262578 0.493122
v -0.493122 -0.262578 0.262578
v -0.493122 -0.262578 -0.262578
v -0.493122 0.262578 0.262578
v -0.493122 0.262578 -0.262578
v -0.262578 -0.493122 -0.262578
v -0.262578 -0.493122 0.262578
v 0.262578 -0.493122 -0.262578
v 0.262578 -0.493122 0.262578
v 0.493122 -0.328222 0.410277
v 0.493122 0.328222 0.410277
v 0.493122 0.328222 -0.410277
v 0.493122 -0.410277 -0.328221
v 0.493122 -0.410277 0.328222
v 0.410277 0.328222 0.493122
v 0.410277 -0.328222 0.493122
v 0.410277 -0.493122 0.328222
v 0.410277 -0.493122 -0.328221
v 0.493122 0.410277 -0.328222
v 0.410277 0.328222 -0.493122
v 0.410277 0.493122 -0.328222
v 0.493122 0.410277 0.328222
v 0.410277 0.493122 0.328222
v -0.493122 0.410277 0.328222
v -0.328222 0.493122 0.410277
v -0.328222 0.410277 -0.493122
v -0.410277 0.493122 0.328222
v -0.328222 0.493122 -0.410277
v -0.328222 0.410277 0.493122
v 0.328223 0.410277 0.493122
v 0.328223 0.410277 -0.493122
v -0.410277 0.493122 -0.328222
v 0.328223 0.493122 0.410277
v 0.328223 0.493122 -0.410277
v -0.493122 0.410277 -0.328222
v -0.410277 -0.328222 0.493122
v -0.410277 0.328222 0.493122
v 0.328222 -0.410277 0.493122
v -0.328222 -0.410277 0.493122
v -0.493122 0.328222 0.410277
v -0.493122 -0.328222 0.410277
v -0.328222 -0.493122 0.410277
v 0.328222 -0.493122 0.410277
v -0.493122 -0.410277 0.328221
v -0.493122 -0.410277 -0.328223
v -0.493122 -0.328223 -0.410277
v -0.493122 0.328221 -0.410277
v -0.410277 -0.493122 -0.328223
v -0.410277 -0.493122 0.328221
v -0.410277 0.328221 -0.493122
v -0.410277 -0.328223 -0.493122
v 0.493122 -0.328223 -0.410277
v 0.410277 -0.328223 -0.493122
v 0.328222 -0.493122 -0.410277
v -0.328221 -0.493122 -0.410277
v 0.328223 0.454571 -0.448828
v -0.328221 -0.410277 -0.493122
v 0.328222 -0.410277 -0.493122
v -0.348735 -0.493122 -0.389764
v -0.389763 -0.493122 -0.389764
v -0.348736 -0.493122 -0.348736
v -0.389763 -0.493122 -0.348736
v -0.389764 -0.493122 0.348735
v -0.389764 -0.493122 0.389763
v -0.348736 -0.493122 0.348736
v -0.348736 -0.493122 0.389763
v 0.348736 -0.493122 0.389764
v 0.389764 -0.493122 0.389764
v 0.348736 -0.493122 0.348736
v 0.389764 -0.493122 0.348736
v 0.389764 -0.493122 -0.348735
v 0.389764 -0.493122 -0.389763
v 0.348736 -0.493122 -0.348736
v 0.348736 -0.493122 -0.389763
v -0.348735 -0.517778 -0.389764
v -0.389763 -0.517778 -0.389764
v -0.348736 -0.517778 -0.348736
v -0.389763 -0.517778 -0.348736
v -0.389764 -0.517778 0.348735
v -0.389764 -0.517778 0.389763
v -0.348736 -0.517778 0.348736
v -0.348736 -0.517778 0.389763
v 0.348736 -0.517778 0.389764
v 0.389764 -0.517778 0.389764
v 0.348736 -0.517778 0.348736
v 0.389764 -0.517778 0.348736
v 0.389764 -0.517778 -0.348735
v 0.389764 -0.517778 -0.389763
v 0.348736 -0.517778 -0.348736
v 0.348736 -0.517778 -0.389763
v 0.493122 -0.389764 0.348736
v 0.493122 -0.389764 0.389764
v 0.493122 -0.348736 0.348736
v 0.493122 -0.348736 0.389764
v 0.493122 0.348736 0.389764
v 0.493122 0.389764 0.389764
v 0.493122 0.348736 0.348736
v 0.493122 0.389764 0.348736
v 0.493122 0.389764 -0.348736
v 0.493122 0.389764 -0.389764
v 0.493122 0.348736 -0.348736
v 0.493122 0.348736 -0.389764
v 0.493122 -0.348736 -0.389763
v 0.493122 -0.389764 -0.389763
v 0.493122 -0.348736 -0.348736
v 0.493122 -0.389764 -0.348735
v 0.517778 -0.389764 0.348736
v 0.517778 -0.389764 0.389764
v 0.517778 -0.348736 0.348736
v 0.517778 -0.348736 0.389764
v 0.517778 0.348736 0.389764
v 0.517778 0.389764 0.389764
v 0.517778 0.348736 0.348736
v 0.517778 0.389764 0.348736
v 0.517778 0.389764 -0.348736
v 0.517778 0.389764 -0.389764
v 0.517778 0.348736 -0.348736
v 0.517778 0.348736 -0.389764
v 0.517778 -0.348736 -0.389763
v 0.517778 -0.389764 -0.389763
v 0.517778 -0.348736 -0.348736
v 0.517778 -0.389764 -0.348735
v 0.389764 -0.348736 0.493122
v 0.389764 -0.389764 0.493122
v 0.348736 -0.348736 0.493122
v 0.348736 -0.389764 0.493122
v -0.348736 -0.389764 0.493122
v -0.389764 -0.389764 0.493122
v -0.348736 -0.348736 0.493122
v -0.389764 -0.348736 0.493122
v -0.389764 0.348736 0.493122
v -0.389764 0.389764 0.493122
v -0.348736 0.348736 0.493122
v -0.348736 0.389764 0.493122
v 0.348736 0.389764 0.493122
v 0.389764 0.389764 0.493122
v 0.348736 0.348736 0.493122
v 0.389764 0.348736 0.493122
v 0.389764 -0.348736 0.517778
v 0.389764 -0.389764 0.517778
v 0.348736 -0.348736 0.517778
v 0.348736 -0.389764 0.517778
v -0.348736 -0.389764 0.517778
v -0.389764 -0.389764 0.517778
v -0.348736 -0.348736 0.517778
v -0.389764 -0.348736 0.517778
v -0.389764 0.348736 0.517778
v -0.389764 0.389764 0.517778
v -0.348736 0.348736 0.517778
v -0.348736 0.389764 0.517778
v 0.348736 0.389764 0.517778
v 0.389764 0.389764 0.517778
v 0.348736 0.348736 0.517778
v 0.389764 0.348736 0.517778
v 0.389764 0.493122 0.348736
v 0.389764 0.493122 0.389764
v 0.348736 0.493122 0.348736
v 0.348736 0.493122 0.389764
v -0.348736 0.493122 0.389764
v -0.389764 0.493122 0.389764
v -0.348736 0.493122 0.348736
v -0.389764 0.493122 0.348736
v -0.389764 0.493122 -0.348736
v -0.389764 0.493122 -0.389764
v -0.348736 0.493122 -0.348736
v -0.348736 0.493122 -0.389764
v 0.348736 0.493122 -0.389764
v 0.389764 0.493122 -0.389764
v 0.348736 0.493122 -0.348736
v 0.389764 0.493122 -0.348736
v 0.389764 0.517778 0.348736
v 0.389764 0.517778 0.389764
v 0.348736 0.517778 0.348736
v 0.348736 0.517778 0.389764
v -0.348736 0.517778 0.389764
v -0.389764 0.517778 0.389764
v -0.348736 0.517778 0.348736
v -0.389764 0.517778 0.348736
v -0.389764 0.517778 -0.348736
v -0.389764 0.517778 -0.389764
v -0.348736 0.517778 -0.348736
v -0.348736 0.517778 -0.389764
v 0.348736 0.517778 -0.389764
v 0.389764 0.517778 -0.389764
v 0.348736 0.517778 -0.348736
v 0.389764 0.517778 -0.348736
v 0.389764 0.348736 -0.493122
v 0.389764 0.389764 -0.493122
v 0.348736 0.348736 -0.493122
v 0.348736 0.389764 -0.493122
v 0.348736 -0.389764 -0.493122
v 0.389764 -0.389764 -0.493122
v 0.348736 -0.348736 -0.493122
v 0.389764 -0.348736 -0.493122
v -0.348736 0.389763 -0.493122
v -0.389764 0.389763 -0.493122
v -0.348736 0.348736 -0.493122
v -0.389764 0.348735 -0.493122
v -0.389763 -0.348736 -0.493122
v -0.389763 -0.389764 -0.493122
v -0.348736 -0.348736 -0.493122
v -0.348735 -0.389764 -0.493122
v -0.493122 -0.389764 -0.348736
v -0.493122 -0.389764 -0.389764
v -0.493122 -0.348736 -0.348736
v -0.493122 -0.348736 -0.389764
v -0.493122 0.348735 -0.389764
v -0.493122 0.389763 -0.389764
v -0.493122 0.348736 -0.348736
v -0.493122 0.389763 -0.348736
v -0.493122 0.389764 0.348736
v -0.493122 0.389764 0.389764
v -0.493122 0.348736 0.348736
v -0.493122 0.348736 0.389764
v -0.493122 -0.348736 0.389763
v -0.493122 -0.389764 0.389763
v -0.493122 -0.348736 0.348736
v -0.493122 -0.389764 0.348735
v -0.517778 -0.389764 -0.348736
v -0.517778 -0.389764 -0.389764
v -0.517778 -0.348736 -0.348736
v -0.517778 -0.348736 -0.389764
v -0.517778 0.348735 -0.389764
v -0.517778 0.389763 -0.389764
v -0.517778 0.348736 -0.348736
v -0.517778 0.389763 -0.348736
v -0.517778 0.389764 0.348736
v -0.517778 0.389764 0.389764
v -0.517778 0.348736 0.348736
v -0.517778 0.348736 0.389764
v -0.517778 -0.348736 0.389763
v -0.517778 -0.389764 0.389763
v -0.517778 -0.348736 0.348736
v -0.517778 -0.389764 0.348735
v 0.389764 0.348736 -0.517778
v 0.389764 0.389764 -0.517778
v 0.348736 0.348736 -0.517778
v 0.348736 0.389764 -0.517778
v 0.348736 -0.389764 -0.517778
v 0.389764 -0.389764 -0.517778
v 0.348736 -0.348736 -0.517778
v 0.389764 -0.348736 -0.517778
v -0.348736 0.389763 -0.517778
v -0.389764 0.389763 -0.517778
v -0.348736 0.348736 -0.517778
v -0.389764 0.348735 -0.517778
v -0.389763 -0.348736 -0.517778
v -0.389763 -0.389764 -0.517778
v -0.348736 -0.348736 -0.517778
v -0.348735 -0.389764 -0.517778
vn 0.0000 0.0000 1.0000
vn 1.0000 0.0000 0.0000
vn 0.0000 1.0000 -0.0000
vn -1.0000 0.0000 0.0000
vn 0.0000 0.0000 -1.0000
vn -0.5774 -0.5774 0.5774
vn -0.5774 0.5774 0.5774
vn -0.5774 -0.5774 -0.5774
vn -0.5774 0.5774 -0.5774
vn 0.5774 -0.5774 0.5774
vn 0.5774 0.5774 0.5774
vn 0.5774 -0.5774 -0.5774
vn 0.5774 0.5774 -0.5774
vn -0.7071 -0.7071 0.0000
vn -0.7071 0.0000 0.7071
vn -0.7071 0.7071 0.0000
vn -0.7071 0.0000 -0.7071
vn 0.0000 -0.7071 -0.7071
vn 0.0000 0.7071 -0.7071
vn 0.7071 0.0000 -0.7071
vn 0.7071 -0.7071 0.0000
vn 0.7071 0.7071 0.0000
vn 0.7071 0.0000 0.7071
vn 0.0000 -0.7071 0.7071
vn 0.0000 0.7071 0.7071
vn 0.0000 -1.0000 0.0000
usemtl Yellow
s off
f 149//1 15//1 235//1 237//1
f 42//2 124//2 217//2 216//2
f 134//3 32//3 268//3 266//3
f 146//4 12//4 319//4 321//4
f 39//5 164//5 305//5 304//5
f 1//6 2//6 3//6
f 4//7 5//7 6//7
f 7//8 8//8 9//8
f 10//9 11//9 12//9
f 13//10 14//10 15//10
f 16//11 17//11 18//11
f 19//12 20//12 21//12
f 22//13 23//13 24//13
f 7//14 159//14 156//14 8//14
f 2//15 147//15 152//15 3//15
f 5//16 138//16 135//16 6//16
f 11//17 161//17 158//17 12//17
f 19//18 165//18 169//18 20//18
f 10//19 139//19 137//19 11//19
f 23//20 123//20 131//20 24//20
f 13//21 128//21 125//21 14//21
f 22//22 132//22 130//22 23//22
f 17//23 126//23 122//23 18//23
f 1//24 153//24 150//24 2//24
f 16//25 144//25 141//25 17//25
f 154//26 48//26 180//26 178//26
f 27//26 26//26 62//26 63//26
f 126//1 17//1 247//1 249//1
f 2//1 150//1 238//1 239//1
f 4//1 148//1 242//1 243//1
f 32//4 31//4 55//4 56//4
f 31//3 132//3 281//3 280//3
f 139//3 10//3 275//3 277//3
f 136//3 29//3 272//3 270//3
f 35//26 36//26 68//26 67//26
f 35//4 151//4 325//4 324//4
f 33//4 155//4 329//4 328//4
f 8//4 156//4 314//4 315//4
f 40//4 39//4 51//4 52//4
f 162//5 38//5 312//5 310//5
f 40//5 142//5 301//5 300//5
f 161//5 11//5 307//5 309//5
f 41//26 44//26 60//26 57//26
f 44//2 133//2 209//2 208//2
f 130//2 41//2 212//2 210//2
f 14//2 125//2 202//2 203//2
f 46//2 45//2 69//2 70//2
f 165//26 19//26 183//26 185//26
f 7//26 166//26 170//26 171//26
f 153//26 1//26 175//26 177//26
f 39//3 38//3 50//3 51//3
f 37//26 40//26 52//26 49//26
f 38//2 37//2 49//2 50//2
f 30//2 29//2 53//2 54//2
f 29//5 32//5 56//5 53//5
f 31//1 30//1 54//1 55//1
f 42//1 41//1 57//1 58//1
f 44//5 43//5 59//5 60//5
f 43//3 42//3 58//3 59//3
f 28//4 27//4 63//4 64//4
f 25//3 28//3 64//3 61//3
f 26//2 25//2 61//2 62//2
f 34//3 33//3 65//3 66//3
f 36//1 34//1 66//1 68//1
f 33//5 35//5 67//5 65//5
f 48//5 46//5 70//5 72//5
f 45//1 47//1 71//1 69//1
f 47//4 48//4 72//4 71//4
f 73//26 76//26 112//26 109//26
f 80//2 79//2 103//2 104//2
f 84//5 82//5 114//5 116//5
f 85//3 88//3 100//3 97//3
f 90//5 89//5 105//5 106//5
f 96//1 94//1 118//1 120//1
f 98//5 97//5 100//5 99//5
f 86//4 85//4 97//4 98//4
f 88//2 87//2 99//2 100//2
f 87//26 86//26 98//26 99//26
f 103//3 102//3 101//3 104//3
f 78//4 77//4 101//4 102//4
f 77//1 80//1 104//1 101//1
f 79//5 78//5 102//5 103//5
f 106//2 105//2 108//2 107//2
f 92//1 91//1 107//1 108//1
f 91//26 90//26 106//26 107//26
f 89//3 92//3 108//3 105//3
f 112//1 111//1 110//1 109//1
f 74//4 73//4 109//4 110//4
f 75//3 74//3 110//3 111//3
f 76//2 75//2 111//2 112//2
f 113//4 115//4 116//4 114//4
f 81//1 83//1 115//1 113//1
f 83//3 84//3 116//3 115//3
f 82//26 81//26 113//26 114//26
f 117//26 119//26 120//26 118//26
f 93//5 95//5 119//5 117//5
f 95//2 96//2 120//2 119//2
f 94//4 93//4 117//4 118//4
f 125//21 128//21 129//21 124//21
f 124//21 129//21 19//21 21//21
f 41//2 130//2 133//2 44//2
f 130//22 132//22 134//22 133//22
f 43//2 125//2 124//2 42//2
f 21//2 163//2 214//2 215//2
f 41//2 123//2 213//2 212//2
f 122//23 126//23 127//23 121//23
f 121//23 127//23 15//23 14//23
f 131//20 123//20 163//20 164//20
f 44//2 122//2 121//2 43//2
f 43//2 121//2 205//2 204//2
f 18//2 122//2 206//2 207//2
f 133//22 134//22 16//22 18//22
f 29//3 136//3 144//3 32//3
f 135//16 138//16 143//16 146//16
f 140//25 136//25 5//25 4//25
f 143//3 30//3 276//3 274//3
f 137//19 139//19 145//19 167//19 142//19
f 138//3 5//3 271//3 273//3
f 32//3 134//3 132//3 31//3
f 22//3 145//3 278//3 279//3
f 31//3 145//3 139//3 30//3
f 141//25 144//25 136//25 140//25
f 16//3 134//3 266//3 267//3
f 30//3 143//3 138//3 29//3
f 142//19 167//19 145//19 22//19 24//19
f 146//16 143//16 10//16 12//16
f 150//24 153//24 154//24 149//24
f 149//24 154//24 13//24 15//24
f 27//1 141//1 140//1 26//1
f 26//1 140//1 245//1 244//1
f 28//1 127//1 126//1 27//1
f 17//1 141//1 246//1 247//1
f 152//15 147//15 148//15 151//15
f 151//15 148//15 4//15 6//15
f 25//1 150//1 149//1 28//1
f 28//1 149//1 237//1 236//1
f 26//1 148//1 147//1 25//1
f 25//1 147//1 241//1 240//1
f 158//17 161//17 162//17 157//17
f 157//17 162//17 9//17 8//17
f 156//14 159//14 160//14 155//14
f 155//14 160//14 1//14 3//14
f 36//4 158//4 157//4 34//4
f 34//4 157//4 317//4 316//4
f 34//4 156//4 155//4 33//4
f 3//4 152//4 326//4 327//4
f 35//4 135//4 146//4 36//4
f 158//4 36//4 320//4 318//4
f 33//4 152//4 151//4 35//4
f 6//4 135//4 322//4 323//4
f 40//5 131//5 164//5 39//5
f 164//5 20//5 303//5 305//5
f 164//20 163//20 21//20 20//20
f 169//18 165//18 166//18 168//18
f 168//18 166//18 7//18 9//18
f 37//5 137//5 142//5 40//5
f 142//5 24//5 299//5 301//5
f 39//5 169//5 168//5 38//5
f 38//5 168//5 313//5 312//5
f 38//5 162//5 161//5 37//5
f 137//5 37//5 308//5 306//5
f 128//26 13//26 179//26 181//26
f 46//26 160//26 159//26 45//26
f 19//26 129//26 182//26 183//26
f 48//26 154//26 153//26 46//26
f 47//26 129//26 128//26 48//26
f 45//26 159//26 173//26 172//26
f 45//26 166//26 165//26 47//26
f 46//26 153//26 177//26 176//26
f 159//26 7//26 171//26 173//26
f 166//26 45//26 172//26 170//26
f 160//26 46//26 176//26 174//26
f 1//26 160//26 174//26 175//26
f 13//26 154//26 178//26 179//26
f 48//26 128//26 181//26 180//26
f 129//26 47//26 184//26 182//26
f 47//26 165//26 185//26 184//26
f 125//2 43//2 204//2 202//2
f 121//2 14//2 203//2 205//2
f 133//2 18//2 207//2 209//2
f 122//2 44//2 208//2 206//2
f 23//2 130//2 210//2 211//2
f 123//2 23//2 211//2 213//2
f 42//2 163//2 123//2 41//2
f 124//2 21//2 215//2 217//2
f 163//2 42//2 216//2 214//2
f 127//1 28//1 236//1 234//1
f 15//1 127//1 234//1 235//1
f 147//1 2//1 239//1 241//1
f 150//1 25//1 240//1 238//1
f 148//1 26//1 244//1 242//1
f 140//1 4//1 243//1 245//1
f 141//1 27//1 248//1 246//1
f 27//1 126//1 249//1 248//1
f 32//3 144//3 269//3 268//3
f 144//3 16//3 267//3 269//3
f 29//3 138//3 273//3 272//3
f 5//3 136//3 270//3 271//3
f 10//3 143//3 274//3 275//3
f 30//3 139//3 277//3 276//3
f 145//3 31//3 280//3 278//3
f 132//3 22//3 279//3 281//3
f 24//5 131//5 298//5 299//5
f 131//5 40//5 300//5 298//5
f 169//5 39//5 304//5 302//5
f 20//5 169//5 302//5 303//5
f 11//5 137//5 306//5 307//5
f 37//5 161//5 309//5 308//5
f 9//5 162//5 310//5 311//5
f 168//5 9//5 311//5 313//5
f 157//4 8//4 315//4 317//4
f 156//4 34//4 316//4 314//4
f 36//4 146//4 321//4 320//4
f 12//4 158//4 318//4 319//4
f 151//4 6//4 323//4 325//4
f 135//4 35//4 324//4 322//4
f 155//4 3//4 327//4 329//4
f 152//4 33//4 328//4 326//4
usemtl DarkYellow
f 52//5 51//5 87//5 88//5
f 56//3 55//3 79//3 80//3
f 60//2 59//2 91//2 92//2
f 64//1 63//1 75//1 76//1
f 67//4 68//4 84//4 83//4
f 72//26 70//26 94//26 96//26
f 61//1 64//1 76//1 73//1
f 62//1 61//1 73//1 74//1
f 63//1 62//1 74//1 75//1
f 54//3 53//3 77//3 78//3
f 53//3 56//3 80//3 77//3
f 55//3 54//3 78//3 79//3
f 66//4 65//4 81//4 82//4
f 68//4 66//4 82//4 84//4
f 65//4 67//4 83//4 81//4
f 51//5 50//5 86//5 87//5
f 49//5 52//5 88//5 85//5
f 50//5 49//5 85//5 86//5
f 59//2 58//2 90//2 91//2
f 57//2 60//2 92//2 89//2
f 58//2 57//2 89//2 90//2
f 69//26 71//26 95//26 93//26
f 71//26 72//26 96//26 95//26
f 70//26 69//26 93//26 94//26
f 182//1 184//1 200//1 198//1
f 178//4 180//4 196//4 194//4
f 184//4 185//4 201//4 200//4
f 176//2 177//2 193//2 192//2
f 180//5 181//5 197//5 196//5
f 170//2 172//2 188//2 186//2
f 185//5 183//5 199//5 201//5
f 174//5 176//5 192//5 190//5
f 187//26 186//26 188//26
f 188//26 189//26 187//26
f 191//26 190//26 192//26
f 192//26 193//26 191//26
f 195//26 194//26 196//26
f 196//26 197//26 195//26
f 199//26 198//26 200//26
f 200//26 201//26 199//26
f 171//5 170//5 186//5 187//5
f 175//4 174//4 190//4 191//4
f 179//1 178//1 194//1 195//1
f 183//2 182//2 198//2 199//2
f 173//4 171//4 187//4 189//4
f 177//1 175//1 191//1 193//1
f 172//1 173//1 189//1 188//1
f 181//2 179//2 195//2 197//2
f 202//5 204//5 220//5 218//5
f 215//5 214//5 230//5 231//5
f 206//26 208//26 224//26 222//26
f 205//1 203//1 219//1 221//1
f 211//3 210//3 226//3 227//3
f 207//1 206//1 222//1 223//1
f 203//26 202//26 218//26 219//26
f 214//3 216//3 232//3 230//3
f 219//2 218//2 220//2
f 220//2 221//2 219//2
f 223//2 222//2 224//2
f 224//2 225//2 223//2
f 227//2 226//2 228//2
f 228//2 229//2 227//2
f 231//2 230//2 232//2
f 232//2 233//2 231//2
f 213//5 211//5 227//5 229//5
f 209//3 207//3 223//3 225//3
f 204//3 205//3 221//3 220//3
f 210//1 212//1 228//1 226//1
f 208//5 209//5 225//5 224//5
f 217//26 215//26 231//26 233//26
f 212//26 213//26 229//26 228//26
f 216//1 217//1 233//1 232//1
f 238//2 240//2 256//2 254//2
f 245//3 243//3 259//3 261//3
f 234//3 236//3 252//3 250//3
f 241//4 239//4 255//4 257//4
f 237//26 235//26 251//26 253//26
f 247//3 246//3 262//3 263//3
f 243//4 242//4 258//4 259//4
f 239//26 238//26 254//26 255//26
f 251//1 250//1 252//1
f 252//1 253//1 251//1
f 255//1 254//1 256//1
f 256//1 257//1 255//1
f 259//1 258//1 260//1
f 260//1 261//1 259//1
f 263//1 262//1 264//1
f 264//1 265//1 263//1
f 249//2 247//2 263//2 265//2
f 236//4 237//4 253//4 252//4
f 244//2 245//2 261//2 260//2
f 240//3 241//3 257//3 256//3
f 246//4 248//4 264//4 262//4
f 242//26 244//26 260//26 258//26
f 248//26 249//26 265//26 264//26
f 235//2 234//2 250//2 251//2
f 280//1 281//1 297//1 296//1
f 272//5 273//5 289//5 288//5
f 276//2 277//2 293//2 292//2
f 268//4 269//4 285//4 284//4
f 281//2 279//2 295//2 297//2
f 270//2 272//2 288//2 286//2
f 277//5 275//5 291//5 293//5
f 269//1 267//1 283//1 285//1
f 283//3 282//3 284//3
f 284//3 285//3 283//3
f 287//3 286//3 288//3
f 288//3 289//3 287//3
f 291//3 290//3 292//3
f 292//3 293//3 291//3
f 295//3 294//3 296//3
f 296//3 297//3 295//3
f 274//1 276//1 292//1 290//1
f 278//4 280//4 296//4 294//4
f 267//2 266//2 282//2 283//2
f 271//1 270//1 286//1 287//1
f 275//4 274//4 290//4 291//4
f 279//5 278//5 294//5 295//5
f 266//5 268//5 284//5 282//5
f 273//4 271//4 287//4 289//4
f 298//26 300//26 348//26 346//26
f 305//2 303//2 351//2 353//2
f 301//3 299//3 347//3 349//3
f 311//4 310//4 358//4 359//4
f 307//3 306//3 354//3 355//3
f 303//26 302//26 350//26 351//26
f 299//2 298//2 346//2 347//2
f 310//3 312//3 360//3 358//3
f 328//5 329//5 345//5 344//5
f 320//1 321//1 337//1 336//1
f 322//5 324//5 340//5 338//5
f 314//1 316//1 332//1 330//1
f 329//26 327//26 343//26 345//26
f 318//26 320//26 336//26 334//26
f 325//1 323//1 339//1 341//1
f 316//3 317//3 333//3 332//3
f 331//4 330//4 332//4
f 332//4 333//4 331//4
f 335//4 334//4 336//4
f 336//4 337//4 335//4
f 339//4 338//4 340//4
f 340//4 341//4 339//4
f 343//4 342//4 344//4
f 344//4 345//4 343//4
f 324//26 325//26 341//26 340//26
f 326//3 328//3 344//3 342//3
f 315//26 314//26 330//26 331//26
f 319//5 318//5 334//5 335//5
f 323//3 322//3 338//3 339//3
f 327//1 326//1 342//1 343//1
f 317//5 315//5 331//5 333//5
f 321//3 319//3 335//3 337//3
f 347//5 346//5 348//5
f 348//5 349//5 347//5
f 351//5 350//5 352//5
f 352//5 353//5 351//5
f 355//5 354//5 356//5
f 356//5 357//5 355//5
f 359//5 358//5 360//5
f 360//5 361//5 359//5
f 309//4 307//4 355//4 357//4
f 304//3 305//3 353//3 352//3
f 313//26 311//26 359//26 361//26
f 300//4 301//4 349//4 348//4
f 306//2 308//2 356//2 354//2
f 302//4 304//4 352//4 350//4
f 312//2 313//2 361//2 360//2
f 308//26 309//26 357//26 356//26
